{"glyphs":{"0":{"ha":785,"x_min":68,"x_max":871,"o":"m 440 260 q 401 268 419 260 q 371 291 383 276 q 353 325 358 306 q 350 368 347 344 l 368 476 l 376 531 l 393 638 q 409 679 397 660 q 438 713 421 699 q 476 737 456 728 q 518 746 497 746 l 572 746 q 644 714 619 746 q 663 638 669 682 l 646 531 l 638 476 l 619 368 q 577 291 613 322 q 494 260 542 260 l 440 260 m 386 368 q 400 317 382 338 q 446 296 418 296 l 500 296 l 511 296 l 554 567 q 540 624 560 599 q 483 649 519 649 l 431 649 l 429 638 l 386 368 m 329 0 q 217 23 268 0 q 133 85 167 46 q 83 179 99 125 q 78 296 68 233 l 121 567 q 163 681 131 626 q 242 775 194 735 l 258 790 q 385 901 307 857 q 549 944 463 944 l 603 944 q 719 920 667 944 q 806 854 771 896 q 856 757 842 813 q 861 638 871 701 l 818 368 q 751 208 804 278 q 622 101 697 139 l 604 86 q 501 23 557 46 q 382 0 444 0 l 329 0 m 188 368 q 192 262 179 311 q 237 176 206 213 q 314 118 268 139 q 415 97 360 97 l 469 97 q 578 118 525 97 q 673 176 631 139 q 744 262 715 213 q 782 368 774 311 l 825 638 q 820 742 833 693 q 776 828 807 792 q 699 887 744 865 q 597 908 653 908 l 543 908 q 435 887 488 908 q 340 828 383 865 q 268 742 297 792 q 231 638 239 693 l 188 368 m 607 779 q 578 792 588 779 q 571 825 568 806 q 588 857 574 844 q 622 869 603 869 q 653 857 642 869 q 661 825 664 844 q 642 792 658 806 q 607 779 626 779 m 619 853 q 599 844 608 853 q 588 825 589 836 q 592 806 585 814 q 610 797 599 797 q 631 806 621 797 q 643 825 640 814 q 638 844 644 836 q 619 853 631 853 m 631 825 q 613 810 628 810 q 601 825 599 810 q 617 840 604 840 q 628 836 624 840 q 631 825 632 832 m 489 788 q 458 800 469 788 q 450 832 447 813 q 468 864 453 851 q 503 876 483 876 q 532 864 521 876 q 540 832 543 851 q 522 800 538 813 q 489 788 507 788 m 501 860 q 481 851 490 860 q 468 832 471 843 q 474 813 467 821 q 492 804 481 804 q 512 813 503 804 q 522 832 521 821 q 519 851 525 843 q 501 860 513 860 m 510 832 q 494 817 507 817 q 483 821 488 817 q 481 832 479 825 q 499 846 483 846 q 510 832 513 846 m 388 739 q 357 751 368 739 q 349 783 346 764 q 367 815 351 803 q 401 828 382 828 q 431 815 419 828 q 439 783 442 803 q 421 751 436 764 q 388 739 406 739 m 399 811 q 378 803 388 811 q 367 783 369 794 q 372 764 364 772 q 390 756 379 756 q 410 764 401 756 q 421 783 418 772 q 417 803 424 794 q 399 811 410 811 m 408 783 q 392 769 406 769 q 379 783 376 769 q 397 799 382 799 q 408 783 411 799 m 699 743 q 669 756 679 743 q 661 789 658 769 q 679 820 664 807 q 714 833 694 833 q 744 820 733 833 q 751 789 754 807 q 733 756 749 769 q 699 743 718 743 m 711 817 q 690 808 700 817 q 678 789 681 800 q 683 769 676 778 q 701 761 690 761 q 722 769 713 761 q 733 789 732 778 q 729 808 736 800 q 711 817 722 817 m 721 789 q 716 778 721 782 q 704 774 711 774 q 690 789 690 774 q 708 803 693 803 q 721 789 724 803 m 731 651 q 700 664 711 651 q 692 696 689 676 q 710 728 694 715 q 744 740 725 740 q 774 728 764 740 q 782 696 785 715 q 765 664 779 676 q 731 651 750 651 m 742 724 q 722 715 731 724 q 710 696 713 707 q 715 676 707 685 q 733 668 722 668 q 753 676 744 668 q 765 696 763 685 q 760 715 768 707 q 742 724 753 724 m 751 696 q 735 682 749 682 q 722 696 719 682 q 740 711 725 711 q 751 696 754 711 m 726 542 q 697 554 707 542 q 689 586 686 567 q 707 619 692 606 q 742 632 722 632 q 772 619 761 632 q 779 586 782 606 q 761 554 776 567 q 726 542 746 542 m 739 614 q 718 606 728 614 q 706 586 708 597 q 711 567 704 575 q 729 558 718 558 q 750 567 740 558 q 761 586 760 575 q 757 606 764 597 q 739 614 750 614 m 749 586 q 744 576 749 581 q 732 572 739 572 q 719 586 719 572 q 736 601 722 601 q 749 586 751 601 m 711 442 q 681 455 692 442 q 674 486 671 468 q 691 519 676 506 q 725 532 706 532 q 755 519 744 532 q 763 486 765 506 q 745 455 760 468 q 711 442 731 442 m 722 514 q 702 506 711 514 q 690 486 693 497 q 695 467 688 475 q 714 460 703 460 q 734 467 725 460 q 746 486 743 475 q 741 506 749 497 q 722 514 733 514 m 733 486 q 715 472 731 472 q 703 486 700 472 q 721 501 706 501 q 733 486 736 501 m 700 343 q 669 356 681 343 q 661 388 658 368 q 679 419 664 407 q 714 432 694 432 q 743 419 732 432 q 751 388 754 407 q 733 356 749 368 q 700 343 718 343 m 711 415 q 690 407 700 415 q 679 388 681 399 q 684 368 676 376 q 703 360 692 360 q 722 368 714 360 q 733 388 731 376 q 728 407 735 399 q 711 415 722 415 m 721 388 q 704 372 718 372 q 692 388 689 372 q 708 403 694 403 q 718 399 714 403 q 721 388 722 394 m 657 250 q 628 263 639 250 q 619 294 617 275 q 638 326 622 314 q 671 339 653 339 q 701 326 690 339 q 710 294 713 314 q 692 263 707 275 q 657 250 676 250 m 668 322 q 649 314 657 322 q 638 294 640 306 q 642 275 635 283 q 660 267 649 267 q 680 275 671 267 q 692 294 689 283 q 687 314 694 306 q 668 322 679 322 m 679 294 q 661 279 676 279 q 650 294 647 279 q 667 310 653 310 q 679 294 682 310 m 576 161 q 547 174 557 161 q 539 207 536 188 q 556 238 542 225 q 590 251 571 251 q 621 238 610 251 q 629 207 632 225 q 611 174 626 188 q 576 161 596 161 m 588 235 q 567 226 576 235 q 556 207 558 218 q 560 188 553 196 q 579 179 568 179 q 599 188 590 179 q 611 207 608 196 q 606 226 614 218 q 588 235 599 235 m 599 207 q 581 192 596 192 q 569 207 567 192 q 586 221 572 221 q 599 207 601 221 m 475 136 q 446 149 457 136 q 438 181 435 161 q 456 213 440 200 q 489 226 471 226 q 519 213 508 226 q 528 181 531 200 q 510 149 525 161 q 475 136 494 136 m 486 208 q 467 200 475 208 q 456 181 458 192 q 460 161 453 169 q 478 153 467 153 q 498 161 489 153 q 510 181 507 169 q 505 200 513 192 q 486 208 497 208 m 497 181 q 479 165 494 165 q 468 181 465 165 q 485 196 471 196 q 497 181 500 196 m 372 147 q 342 160 353 147 q 335 192 332 172 q 352 224 338 211 q 386 236 367 236 q 416 224 406 236 q 424 192 426 211 q 406 160 421 172 q 372 147 392 147 m 385 219 q 364 211 374 219 q 351 192 354 203 q 357 172 350 181 q 375 164 364 164 q 396 172 386 164 q 407 192 406 181 q 403 211 410 203 q 385 219 396 219 m 394 192 q 378 176 392 176 q 367 181 371 176 q 364 192 363 185 q 382 207 367 207 q 394 192 397 207 m 288 207 q 258 219 268 207 q 250 251 247 232 q 267 283 253 271 q 301 296 282 296 q 331 283 321 296 q 339 251 342 271 q 322 219 336 232 q 288 207 307 207 m 299 279 q 278 271 288 279 q 267 251 269 263 q 272 232 264 240 q 290 224 279 224 q 310 232 301 224 q 322 251 319 240 q 317 271 325 263 q 299 279 310 279 m 310 251 q 292 236 307 236 q 279 251 276 236 q 297 267 282 267 q 310 251 313 267 m 265 304 q 235 317 246 304 q 226 350 224 331 q 244 382 229 369 q 279 394 260 394 q 309 382 299 394 q 317 350 319 369 q 299 317 314 331 q 265 304 285 304 m 278 378 q 257 369 267 378 q 244 350 247 361 q 250 331 243 339 q 268 322 257 322 q 289 331 279 322 q 300 350 299 339 q 296 369 303 361 q 278 378 289 378 m 286 350 q 271 335 283 335 q 260 339 264 335 q 257 350 256 343 q 275 364 260 364 q 286 350 289 364 m 279 417 q 249 429 260 417 q 242 461 239 442 q 259 493 244 481 q 293 506 274 506 q 323 493 313 506 q 331 461 333 481 q 313 429 328 442 q 279 417 299 417 m 290 489 q 270 481 279 489 q 258 461 261 472 q 263 442 256 450 q 282 433 271 433 q 302 442 293 433 q 314 461 311 450 q 309 481 317 472 q 290 489 301 489 m 301 461 q 283 446 299 446 q 271 461 268 446 q 289 476 274 476 q 301 461 304 476 m 300 519 q 269 532 281 519 q 261 564 258 544 q 279 596 264 583 q 314 608 294 608 q 344 596 333 608 q 351 564 354 583 q 334 532 349 544 q 300 519 319 519 m 311 592 q 291 583 300 592 q 279 564 282 575 q 284 544 276 553 q 303 536 292 536 q 323 544 314 536 q 335 564 332 553 q 330 583 338 575 q 311 592 322 592 m 321 564 q 304 549 318 549 q 292 564 289 549 q 310 579 294 579 q 321 564 324 579 m 325 635 q 295 647 306 635 q 288 679 285 660 q 305 711 290 699 q 339 724 319 724 q 369 711 358 724 q 378 679 381 699 q 360 647 375 660 q 325 635 344 635 m 336 707 q 316 699 325 707 q 304 679 307 690 q 309 660 301 668 q 328 651 317 651 q 348 660 339 651 q 360 679 357 668 q 355 699 363 690 q 336 707 347 707 m 347 679 q 329 664 344 664 q 318 679 315 664 q 335 694 321 694 q 347 679 350 694 z "},"1":{"ha":511,"x_min":111,"x_max":636,"o":"m 193 650 q 183 758 196 707 q 147 863 171 810 l 218 924 l 210 946 l 585 946 q 622 942 611 946 q 635 931 633 939 q 629 911 636 924 q 611 881 622 899 q 588 849 599 869 q 574 801 578 829 l 479 206 q 481 153 474 175 q 499 119 488 131 q 499 85 510 103 q 460 61 488 67 l 401 11 q 364 0 388 0 l 156 0 q 118 15 125 0 q 125 40 111 29 l 133 47 q 172 133 163 72 l 254 650 l 193 650 m 274 910 q 268 907 271 910 q 268 901 265 904 q 301 831 290 869 q 306 747 311 793 l 367 747 l 281 206 q 240 108 268 128 q 238 101 238 106 q 243 97 238 97 l 451 97 q 459 101 458 97 q 457 108 460 106 q 443 206 431 131 l 453 267 l 486 476 l 514 650 l 529 747 l 538 801 q 582 899 550 875 q 579 910 590 910 l 500 910 l 338 910 l 274 910 m 349 125 q 318 138 329 125 q 310 169 307 151 q 328 202 313 189 q 363 215 343 215 q 392 202 382 215 q 400 169 403 189 q 383 138 397 151 q 349 125 368 125 m 360 197 q 340 189 349 197 q 328 169 331 181 q 333 151 325 158 q 351 143 340 143 q 372 151 363 143 q 383 169 381 158 q 378 189 386 181 q 360 197 371 197 m 369 169 q 353 156 367 156 q 340 169 338 156 q 358 185 343 185 q 369 169 372 185 m 367 238 q 336 251 347 238 q 328 283 325 264 q 346 315 331 303 q 381 328 361 328 q 410 315 400 328 q 418 283 421 303 q 401 251 415 264 q 367 238 386 238 m 378 311 q 358 303 367 311 q 346 283 349 294 q 351 264 343 272 q 369 256 358 256 q 390 264 381 256 q 401 283 399 272 q 397 303 404 294 q 378 311 389 311 m 388 283 q 371 268 385 268 q 358 283 356 268 q 375 297 361 297 q 388 283 390 297 m 383 346 q 353 359 364 346 q 344 392 342 372 q 363 424 347 411 q 397 436 378 436 q 427 424 417 436 q 435 392 438 411 q 417 359 432 372 q 383 346 403 346 m 394 419 q 374 411 383 419 q 363 392 365 403 q 367 372 360 381 q 386 364 375 364 q 406 372 397 364 q 418 392 415 381 q 413 411 421 403 q 394 419 406 419 m 404 392 q 388 376 401 376 q 375 392 372 376 q 393 407 378 407 q 404 392 407 407 m 401 457 q 371 469 382 457 q 363 501 360 482 q 381 533 365 521 q 415 546 396 546 q 445 533 435 546 q 453 501 456 521 q 435 469 450 482 q 401 457 421 457 m 413 529 q 392 521 401 529 q 381 501 382 513 q 385 482 378 490 q 404 474 393 474 q 424 482 415 474 q 436 501 433 490 q 431 521 438 513 q 413 529 424 529 m 422 501 q 406 488 419 488 q 393 501 390 488 q 410 517 396 517 q 422 501 425 517 m 418 568 q 389 581 400 568 q 381 613 378 593 q 399 644 383 632 q 432 657 414 657 q 463 644 451 657 q 471 613 474 632 q 453 581 468 593 q 418 568 438 568 m 431 640 q 410 632 419 640 q 399 613 401 624 q 403 593 397 601 q 421 585 410 585 q 442 593 432 585 q 453 613 451 601 q 449 632 456 624 q 431 640 442 640 m 440 613 q 424 597 438 597 q 414 601 418 597 q 411 613 410 606 q 428 628 414 628 q 440 613 443 628 m 436 676 q 406 690 417 676 q 397 722 394 703 q 415 753 400 740 q 450 767 431 767 q 480 753 469 767 q 488 722 490 740 q 470 690 485 703 q 436 676 456 676 m 447 750 q 427 742 436 750 q 415 722 418 733 q 420 703 413 711 q 439 694 428 694 q 459 703 450 694 q 471 722 468 711 q 466 742 474 733 q 447 750 458 750 m 457 722 q 440 707 454 707 q 428 722 425 707 q 444 736 431 736 q 457 722 460 736 m 453 788 q 424 800 435 788 q 415 832 413 813 q 433 864 418 851 q 467 876 449 876 q 497 864 486 876 q 506 832 508 851 q 488 800 503 813 q 453 788 472 788 m 465 860 q 445 851 454 860 q 433 832 436 843 q 438 813 432 821 q 456 804 444 804 q 476 813 467 804 q 488 832 486 821 q 483 851 490 843 q 465 860 476 860 m 475 832 q 458 817 472 817 q 449 821 453 817 q 446 832 444 825 q 463 847 449 847 q 475 832 478 847 m 351 788 q 322 800 332 788 q 314 832 311 813 q 331 864 317 851 q 365 876 346 876 q 395 864 385 876 q 403 832 406 851 q 385 800 400 813 q 351 788 371 788 m 364 860 q 343 851 353 860 q 331 832 333 843 q 336 813 329 821 q 354 804 343 804 q 375 813 365 804 q 386 832 385 821 q 382 851 389 843 q 364 860 375 860 m 374 832 q 357 817 371 817 q 346 821 350 817 q 343 832 342 825 q 361 847 346 847 q 374 832 376 847 z "},"2":{"ha":796,"x_min":36,"x_max":883,"o":"m 392 325 q 385 310 388 317 q 379 296 382 304 l 669 296 q 722 306 699 296 q 761 329 746 315 q 799 333 781 346 q 813 286 818 321 l 776 61 l 754 61 l 685 0 l 36 0 l 71 221 q 114 344 82 286 q 196 444 146 401 l 214 460 q 269 521 238 492 q 340 571 300 550 l 126 571 q 168 693 138 638 q 247 789 199 749 l 272 811 q 387 911 321 874 q 526 949 453 949 l 635 949 q 741 927 693 949 q 822 867 789 906 q 869 778 854 829 q 874 669 883 728 q 808 522 860 588 q 685 419 756 456 l 668 406 q 571 346 624 367 q 464 325 518 325 l 406 325 l 392 325 m 279 517 q 272 511 276 514 q 264 503 268 508 l 279 517 m 343 293 q 361 344 347 319 q 395 385 375 368 q 441 413 415 403 q 494 424 467 424 l 497 424 l 551 424 q 650 443 601 424 q 738 497 699 463 q 803 575 776 531 q 838 669 829 619 q 833 764 846 719 q 792 841 819 808 q 722 893 764 874 q 629 913 679 913 l 575 913 l 521 913 q 424 893 471 913 q 338 841 376 874 q 273 764 299 808 q 239 669 247 719 l 403 669 l 424 669 q 431 672 431 669 q 429 676 432 674 q 435 717 422 699 q 461 742 449 736 q 478 748 469 747 q 494 749 486 749 l 549 749 l 603 749 q 659 725 639 749 q 674 669 679 701 q 640 610 667 633 q 576 586 613 586 l 522 586 l 519 586 q 401 563 458 586 q 297 501 343 540 q 220 408 251 461 q 179 293 189 354 l 149 97 l 392 97 l 446 97 l 500 97 l 747 97 l 772 260 l 776 286 q 773 292 778 292 q 765 289 768 292 q 664 260 736 260 l 525 260 l 471 260 l 417 260 l 338 260 l 343 293 m 469 633 l 444 633 l 406 600 q 528 622 463 622 l 557 622 q 543 642 554 633 q 515 651 532 651 l 465 651 l 469 633 m 654 149 q 638 176 639 158 q 647 210 636 194 q 678 231 660 226 q 713 226 697 236 q 729 199 728 217 q 718 165 731 181 q 688 144 707 149 q 654 149 669 139 m 701 211 q 681 215 693 218 q 661 201 668 213 q 656 181 654 192 q 665 164 657 169 q 687 160 675 157 q 706 174 699 164 q 712 195 713 185 q 701 211 711 206 m 694 181 q 685 174 692 175 q 674 175 679 172 q 672 196 664 182 q 693 200 681 207 q 694 181 704 193 m 442 149 q 426 176 428 158 q 436 210 425 194 q 466 231 447 226 q 500 226 485 236 q 517 199 515 217 q 507 165 519 181 q 476 144 496 149 q 442 149 457 139 m 490 211 q 469 215 481 218 q 449 201 457 213 q 443 181 442 192 q 454 164 444 169 q 474 160 463 157 q 493 174 486 164 q 499 195 500 185 q 490 211 499 206 m 483 181 q 461 175 474 168 q 460 196 451 182 q 481 200 469 208 q 483 181 493 193 m 543 153 q 526 181 528 163 q 536 214 525 199 q 566 235 547 231 q 600 231 585 240 q 617 203 615 221 q 607 168 618 185 q 576 148 594 153 q 543 153 557 143 m 589 215 q 568 219 579 222 q 550 206 557 215 q 542 184 542 194 q 554 167 543 174 q 574 164 563 161 q 593 178 586 167 q 599 199 600 188 q 589 215 597 210 m 582 183 q 563 179 574 171 q 556 188 556 182 q 560 199 556 193 q 581 204 569 211 q 582 183 590 196 m 335 149 q 318 176 319 158 q 328 210 317 194 q 359 231 340 226 q 392 226 378 236 q 409 199 407 217 q 399 165 411 181 q 369 144 388 149 q 335 149 350 139 m 382 211 q 361 215 374 218 q 342 201 349 213 q 336 181 335 192 q 346 164 338 169 q 367 160 356 157 q 385 174 378 164 q 392 195 393 185 q 382 211 392 206 m 375 181 q 354 175 365 168 q 353 196 344 182 q 372 200 363 207 q 375 181 385 193 m 374 781 q 403 767 393 781 q 410 735 413 754 q 392 703 407 715 q 358 690 378 690 q 328 703 339 690 q 319 735 317 715 q 338 767 322 754 q 374 781 354 781 m 361 707 q 382 715 372 707 q 393 735 392 724 q 388 754 396 746 q 369 763 381 763 q 349 754 358 763 q 338 735 340 746 q 343 715 336 724 q 361 707 350 707 m 350 735 q 368 750 353 750 q 381 735 383 750 q 364 721 378 721 q 353 724 357 721 q 350 735 349 728 m 439 860 q 468 847 458 860 q 475 814 478 833 q 458 782 472 794 q 424 769 443 769 q 393 782 404 769 q 385 814 382 794 q 403 847 388 833 q 439 860 419 860 m 426 786 q 447 794 438 786 q 458 814 457 803 q 453 833 461 825 q 435 842 446 842 q 415 833 424 842 q 403 814 406 825 q 408 794 401 803 q 426 786 415 786 m 415 814 q 433 829 418 829 q 444 814 447 829 q 429 799 442 799 q 418 803 422 799 q 415 814 414 807 m 543 879 q 572 866 561 879 q 581 833 583 853 q 562 802 578 815 q 528 789 546 789 q 498 802 508 789 q 490 833 488 815 q 508 866 493 853 q 543 879 524 879 m 531 806 q 551 814 542 806 q 563 833 560 822 q 558 853 564 844 q 540 861 551 861 q 519 853 529 861 q 508 833 510 844 q 513 814 506 822 q 531 806 519 806 m 521 833 q 526 844 521 840 q 538 849 531 849 q 550 833 550 849 q 533 819 547 819 q 521 833 518 819 m 653 879 q 683 866 672 879 q 692 833 694 853 q 673 802 689 815 q 638 789 657 789 q 608 802 618 789 q 601 833 599 815 q 619 866 604 853 q 653 879 633 879 m 640 806 q 661 814 651 806 q 674 833 671 822 q 668 853 675 844 q 650 861 661 861 q 629 853 639 861 q 618 833 619 844 q 622 814 615 822 q 640 806 629 806 m 631 833 q 635 844 631 840 q 647 849 640 849 q 661 833 661 849 q 643 819 658 819 q 631 833 628 819 m 735 826 q 765 813 754 826 q 774 781 776 800 q 755 749 771 761 q 719 736 739 736 q 690 749 700 736 q 683 781 681 761 q 701 813 686 800 q 735 826 715 826 m 722 753 q 743 761 733 753 q 756 781 753 769 q 750 800 757 792 q 732 808 743 808 q 711 800 721 808 q 700 781 701 792 q 704 761 697 769 q 722 753 711 753 m 713 781 q 717 792 713 788 q 729 796 722 796 q 743 781 743 796 q 725 767 740 767 q 713 781 710 767 m 756 728 q 786 715 775 728 q 794 682 797 701 q 776 651 792 664 q 742 638 761 638 q 712 651 722 638 q 704 682 701 664 q 722 715 707 701 q 756 728 736 728 m 744 654 q 765 663 756 654 q 776 682 775 671 q 772 701 779 693 q 753 710 764 710 q 733 701 742 710 q 721 682 724 693 q 726 663 719 671 q 744 654 733 654 m 735 682 q 751 697 738 697 q 764 682 767 697 q 747 668 761 668 q 738 672 742 668 q 735 682 733 676 m 728 624 q 758 610 747 624 q 767 579 769 597 q 748 547 764 560 q 713 533 732 533 q 683 547 693 533 q 676 579 674 560 q 694 610 679 597 q 728 624 708 624 m 715 551 q 736 560 726 551 q 749 579 746 568 q 725 606 751 606 q 704 598 714 606 q 693 579 694 590 q 697 560 690 568 q 715 551 704 551 m 706 579 q 710 589 706 585 q 722 593 715 593 q 736 579 736 593 q 718 564 732 564 q 707 568 711 564 q 706 579 703 572 m 617 558 q 647 545 636 558 q 654 513 657 532 q 637 481 651 493 q 603 468 622 468 q 572 481 583 468 q 564 513 561 493 q 582 545 567 532 q 617 558 597 558 m 606 485 q 626 493 617 485 q 638 513 635 501 q 633 532 640 524 q 614 540 625 540 q 594 532 603 540 q 582 513 585 524 q 587 493 579 501 q 606 485 594 485 m 594 513 q 613 528 597 528 q 625 513 628 528 q 607 499 622 499 q 594 513 592 499 m 510 543 q 540 531 529 543 q 549 499 551 518 q 531 466 546 479 q 496 453 515 453 q 467 466 478 453 q 458 499 456 479 q 476 531 461 518 q 510 543 492 543 m 499 471 q 519 479 510 471 q 531 499 529 488 q 526 518 533 510 q 508 526 519 526 q 488 518 497 526 q 475 499 478 510 q 481 479 474 488 q 499 471 488 471 m 489 499 q 506 513 492 513 q 518 499 521 513 q 501 483 515 483 q 492 488 496 483 q 489 499 488 492 m 399 521 q 429 508 418 521 q 438 476 440 496 q 419 444 435 457 q 385 431 404 431 q 355 444 365 431 q 347 476 344 457 q 365 508 350 496 q 399 521 379 521 m 388 449 q 408 457 399 449 q 419 476 417 465 q 415 496 422 488 q 396 504 407 504 q 376 496 385 504 q 364 476 367 488 q 369 457 361 465 q 388 449 376 449 m 378 476 q 394 492 381 492 q 407 476 410 492 q 389 461 404 461 q 378 476 375 461 m 313 449 q 343 436 332 449 q 351 404 354 424 q 333 372 349 385 q 297 358 317 358 q 268 372 278 358 q 261 404 258 385 q 278 436 264 424 q 313 449 293 449 m 300 376 q 321 385 311 376 q 333 404 331 393 q 328 424 335 415 q 310 432 321 432 q 289 424 299 432 q 278 404 279 415 q 282 385 275 393 q 300 376 289 376 m 292 404 q 307 419 294 419 q 318 415 314 419 q 321 404 322 411 q 303 389 318 389 q 292 404 289 389 m 281 336 q 310 324 299 336 q 318 292 321 311 q 300 259 315 272 q 267 246 285 246 q 236 259 247 246 q 228 292 225 272 q 246 324 231 311 q 281 336 261 336 m 269 264 q 290 272 281 264 q 301 292 299 281 q 297 311 304 303 q 278 319 289 319 q 258 311 267 319 q 246 292 249 303 q 251 272 243 281 q 269 264 258 264 m 258 292 q 276 307 261 307 q 288 292 290 307 q 271 276 285 276 q 258 292 256 276 m 264 232 q 293 219 282 232 q 301 186 304 206 q 283 154 299 167 q 250 142 268 142 q 219 154 231 142 q 211 186 208 167 q 229 219 214 206 q 264 232 244 232 m 253 158 q 273 167 264 158 q 285 186 282 175 q 279 206 286 197 q 261 214 272 214 q 240 206 250 214 q 229 186 231 197 q 234 167 226 175 q 253 158 242 158 m 242 186 q 258 201 244 201 q 271 186 274 201 q 254 171 268 171 q 242 186 239 171 z "},"3":{"ha":788,"x_min":63,"x_max":868,"o":"m 419 619 l 546 619 q 532 640 543 631 q 507 649 521 649 l 453 649 q 438 631 446 638 q 418 624 429 624 l 354 569 q 344 563 351 564 q 332 563 338 563 l 303 563 l 115 569 q 158 687 126 632 q 238 782 189 742 l 258 800 q 374 906 307 867 q 518 944 442 944 l 626 944 q 737 922 689 944 q 815 860 785 899 q 856 770 844 821 q 860 664 868 719 q 837 578 853 615 q 785 501 821 542 q 809 426 803 465 q 808 342 815 386 q 746 194 796 260 q 625 93 696 129 l 604 75 q 512 19 564 39 q 406 0 460 0 l 297 0 q 196 23 242 0 q 119 86 150 46 q 76 181 89 126 q 74 299 63 235 l 144 360 l 147 382 l 318 382 l 346 538 l 417 599 l 419 619 m 457 714 l 454 714 q 451 710 451 714 l 457 714 m 410 260 q 366 284 378 260 q 372 339 354 308 q 369 346 379 346 l 340 346 l 178 346 l 176 342 q 181 246 168 290 q 223 168 194 201 q 293 116 251 135 q 385 97 335 97 l 439 97 l 493 97 q 590 116 543 97 q 675 168 638 135 q 738 246 713 201 q 772 342 764 290 q 772 428 781 390 q 738 501 764 465 q 819 632 800 561 q 819 764 838 703 q 751 867 801 825 q 621 908 700 908 l 567 908 l 513 908 q 415 890 463 908 q 328 838 367 871 q 264 760 290 804 q 229 667 238 717 l 228 660 l 390 660 l 419 660 q 425 671 428 660 q 435 723 415 700 q 488 746 456 746 l 542 746 l 596 746 q 647 722 628 746 q 663 667 667 699 q 628 607 656 631 q 569 583 601 583 l 549 583 l 494 583 l 450 583 l 447 583 l 421 421 l 418 400 q 425 396 418 392 q 522 421 460 421 l 543 421 q 595 397 575 421 q 610 342 615 374 q 577 283 604 307 q 518 260 550 260 l 464 260 l 410 260 m 408 321 q 415 296 404 296 l 494 296 q 481 315 492 307 q 456 324 469 324 l 435 324 q 422 322 428 324 q 408 321 415 321 m 274 243 q 244 256 256 243 q 236 288 233 269 q 255 320 239 307 q 289 333 271 333 q 319 320 308 333 q 326 288 329 307 q 308 256 324 269 q 274 243 293 243 m 285 315 q 265 307 274 315 q 254 288 257 299 q 259 268 253 276 q 276 260 265 260 q 297 268 288 260 q 308 288 307 276 q 303 307 311 299 q 285 315 296 315 m 296 288 q 279 274 293 274 q 269 278 274 274 q 267 288 265 282 q 283 303 269 303 q 296 288 299 303 m 321 165 q 292 178 303 165 q 283 210 281 190 q 301 242 286 229 q 335 254 317 254 q 365 242 354 254 q 374 210 376 229 q 356 178 371 190 q 321 165 340 165 m 333 238 q 313 229 322 238 q 301 210 304 221 q 306 190 300 199 q 324 182 313 182 q 344 190 335 182 q 356 210 354 199 q 351 229 358 221 q 333 238 344 238 m 343 210 q 326 194 340 194 q 317 199 321 194 q 314 210 313 203 q 331 225 317 225 q 343 210 346 225 m 432 129 q 401 142 413 129 q 393 175 390 156 q 412 207 396 194 q 447 219 428 219 q 476 207 465 219 q 483 175 486 194 q 465 142 481 156 q 432 129 450 129 m 444 203 q 424 194 433 203 q 411 175 414 186 q 417 156 410 164 q 435 147 424 147 q 455 156 446 147 q 465 175 464 164 q 462 194 468 186 q 444 203 456 203 m 453 175 q 448 164 453 168 q 438 160 443 160 q 424 175 424 160 q 442 189 426 189 q 453 175 456 189 m 542 144 q 511 157 522 144 q 503 189 500 169 q 521 222 506 208 q 556 235 536 235 q 585 222 574 235 q 593 189 596 208 q 575 157 590 169 q 542 144 560 144 m 553 217 q 532 208 540 217 q 521 189 524 200 q 525 169 518 178 q 544 161 532 161 q 564 169 556 161 q 575 189 572 178 q 571 208 578 200 q 553 217 564 217 m 563 189 q 546 175 560 175 q 533 189 531 175 q 551 204 536 204 q 563 189 565 204 m 647 192 q 617 204 628 192 q 610 236 607 217 q 628 269 613 256 q 663 282 643 282 q 692 269 682 282 q 700 236 703 256 q 682 204 697 217 q 647 192 667 192 m 660 264 q 639 256 649 264 q 626 236 629 247 q 632 217 625 225 q 650 208 639 208 q 671 217 661 208 q 682 236 681 225 q 678 256 685 247 q 660 264 671 264 m 669 236 q 665 226 669 231 q 653 222 660 222 q 640 236 640 222 q 657 251 643 251 q 669 236 672 251 m 685 299 q 654 311 665 299 q 646 343 643 324 q 664 375 649 363 q 699 388 679 388 q 728 375 717 388 q 736 343 739 363 q 718 311 733 324 q 685 299 703 299 m 696 371 q 675 363 685 371 q 664 343 665 354 q 668 324 661 332 q 686 315 675 315 q 707 324 697 315 q 719 343 717 332 q 714 363 721 354 q 696 371 707 371 m 706 343 q 689 328 703 328 q 676 343 674 328 q 693 358 679 358 q 703 354 699 358 q 706 343 707 350 m 557 497 q 568 531 556 515 q 599 551 581 547 q 632 546 618 556 q 649 518 646 536 q 638 484 650 500 q 606 464 625 468 q 574 469 588 460 q 557 497 560 478 m 631 514 q 600 535 628 539 q 581 522 589 532 q 575 501 574 513 q 585 484 576 490 q 604 481 593 478 q 625 493 617 483 q 631 514 633 503 m 604 493 q 588 504 590 490 q 601 522 588 518 q 613 521 608 524 q 618 511 618 518 q 604 493 618 497 m 651 558 q 662 592 650 576 q 693 613 674 608 q 726 608 713 617 q 743 579 740 599 q 732 546 744 561 q 700 525 719 531 q 667 531 682 521 q 651 558 653 540 m 725 575 q 715 592 724 586 q 694 596 706 599 q 675 583 683 593 q 669 563 667 574 q 699 542 672 536 q 718 554 711 544 q 725 575 725 564 m 699 554 q 687 556 692 553 q 682 565 682 558 q 685 577 681 572 q 696 583 689 582 q 706 583 701 586 q 713 572 711 579 q 699 554 713 558 m 696 657 q 707 691 694 675 q 739 711 719 707 q 772 706 757 715 q 788 678 786 697 q 777 644 789 660 q 746 624 765 628 q 713 629 726 619 q 696 657 699 639 m 769 674 q 760 691 768 685 q 740 694 751 697 q 720 682 728 692 q 714 661 713 672 q 724 644 715 650 q 744 640 733 638 q 764 653 756 643 q 769 674 772 663 m 743 653 q 726 664 729 650 q 740 682 726 679 q 752 681 747 683 q 757 671 757 678 q 743 653 757 657 m 682 753 q 693 788 681 772 q 725 808 706 803 q 757 803 743 813 q 774 775 771 793 q 763 740 775 756 q 732 721 750 725 q 699 725 713 715 q 682 753 685 735 m 756 771 q 746 788 754 782 q 726 792 738 794 q 706 779 714 789 q 700 758 699 769 q 710 741 701 747 q 731 738 718 735 q 749 750 742 740 q 756 771 757 760 m 729 750 q 717 751 722 747 q 713 761 713 754 q 715 772 711 767 q 726 778 719 776 q 743 768 740 782 q 729 750 743 753 m 589 824 q 600 858 588 843 q 632 879 613 874 q 665 874 650 883 q 681 846 679 864 q 671 811 683 826 q 639 792 658 796 q 606 796 619 786 q 589 824 592 806 m 663 842 q 653 858 661 853 q 633 861 644 864 q 615 849 622 858 q 608 828 607 839 q 617 811 608 817 q 639 808 626 806 q 658 821 650 811 q 663 842 665 831 m 636 821 q 626 822 631 818 q 621 831 621 825 q 624 842 619 838 q 633 849 628 847 q 650 838 650 853 q 647 827 651 832 q 636 821 643 822 m 483 824 q 493 858 481 843 q 525 879 506 874 q 558 874 544 883 q 574 846 572 864 q 564 811 576 826 q 533 792 551 796 q 500 796 514 786 q 483 824 486 806 m 556 842 q 547 858 556 853 q 526 861 538 864 q 508 849 515 858 q 501 828 500 839 q 510 811 501 817 q 532 808 519 806 q 551 821 543 811 q 556 842 558 831 m 529 821 q 519 822 524 818 q 514 831 514 825 q 517 842 513 838 q 526 849 521 847 q 543 838 543 853 q 540 827 544 832 q 529 821 536 822 m 365 810 q 376 844 364 828 q 407 864 388 860 q 440 858 426 868 q 456 831 454 849 q 447 797 458 813 q 415 776 435 781 q 382 781 396 772 q 365 810 368 790 m 439 826 q 428 844 438 838 q 408 847 419 850 q 390 835 397 844 q 382 814 382 825 q 393 797 385 803 q 413 793 401 790 q 432 806 424 796 q 439 826 440 815 m 411 806 q 396 817 399 803 q 410 835 396 831 q 425 824 425 838 q 422 812 425 817 q 411 806 418 807 m 292 725 q 303 759 290 743 q 333 779 315 775 q 367 774 353 783 q 383 746 381 764 q 374 712 386 728 q 342 692 361 696 q 308 697 322 688 q 292 725 294 706 m 365 742 q 356 759 365 753 q 335 763 347 765 q 316 750 324 760 q 311 729 308 740 q 320 712 311 718 q 340 708 329 706 q 359 721 351 711 q 365 742 367 731 m 339 721 q 328 722 333 719 q 324 732 324 725 q 336 750 322 744 q 348 749 343 751 q 353 739 353 746 q 350 727 354 732 q 339 721 346 722 m 493 461 q 463 474 474 461 q 454 506 451 486 q 472 538 457 525 q 507 550 488 550 q 537 538 526 550 q 544 506 547 525 q 527 474 542 486 q 493 461 513 461 m 504 533 q 484 525 493 533 q 472 506 475 517 q 477 486 469 494 q 496 478 485 478 q 516 486 507 478 q 528 506 525 494 q 523 525 531 517 q 504 533 515 533 m 514 506 q 497 490 511 490 q 485 506 482 490 q 503 521 488 521 q 514 506 517 521 m 669 399 q 640 411 651 399 q 632 443 629 424 q 650 475 635 463 q 683 488 665 488 q 714 475 703 488 q 722 443 725 463 q 704 411 719 424 q 669 399 689 399 m 681 471 q 661 463 669 471 q 650 443 653 454 q 654 424 647 432 q 672 415 661 415 q 692 424 683 415 q 704 443 701 432 q 699 463 707 454 q 681 471 692 471 m 692 443 q 674 428 689 428 q 663 443 660 428 q 679 457 665 457 q 692 443 694 457 z "},"4":{"ha":775,"x_min":50,"x_max":907,"o":"m 50 281 l 251 635 l 247 631 q 276 710 271 671 q 275 786 282 750 l 346 847 q 347 858 347 853 q 346 868 346 863 l 540 868 l 583 904 q 597 931 583 918 q 643 944 611 944 l 853 944 q 898 924 889 944 q 888 886 907 903 q 858 851 871 872 q 842 800 846 831 l 747 206 q 747 139 742 175 q 771 63 751 103 l 744 61 l 675 0 l 354 0 q 440 133 429 67 l 463 281 l 50 281 m 175 378 l 576 378 l 549 206 q 507 104 536 132 q 510 97 500 97 l 719 97 q 722 104 729 97 q 711 206 699 132 l 721 267 l 739 378 l 764 540 l 779 638 l 797 746 l 806 800 q 849 897 817 875 q 852 904 851 900 q 847 908 853 908 l 768 908 l 638 908 q 631 904 632 908 q 633 897 631 900 q 643 800 654 876 l 601 540 l 442 540 l 457 569 l 547 728 l 599 818 l 607 832 l 390 832 q 386 830 388 832 q 388 825 385 828 q 356 696 401 789 l 175 378 m 499 576 l 510 576 l 514 601 l 499 576 m 621 131 q 591 143 601 131 q 583 175 581 156 q 601 207 586 194 q 636 219 617 219 q 665 207 656 219 q 672 175 675 194 q 655 143 669 156 q 621 131 640 131 m 633 203 q 613 194 622 203 q 600 175 603 186 q 606 156 599 164 q 624 147 613 147 q 644 156 635 147 q 656 175 654 164 q 651 194 658 186 q 633 203 644 203 m 643 175 q 638 164 643 168 q 626 160 633 160 q 614 175 614 160 q 631 190 617 190 q 643 175 646 190 m 639 243 q 609 256 619 243 q 601 288 599 269 q 619 320 604 307 q 654 333 635 333 q 683 320 674 333 q 690 288 693 307 q 673 256 688 269 q 639 243 658 243 m 650 315 q 630 307 639 315 q 618 288 621 299 q 624 269 617 276 q 642 261 631 261 q 663 269 653 261 q 674 288 672 276 q 669 307 676 299 q 650 315 661 315 m 661 288 q 644 274 658 274 q 632 288 629 274 q 649 303 635 303 q 661 288 664 303 m 657 351 q 627 365 638 351 q 619 397 617 378 q 637 429 622 417 q 671 442 651 442 q 701 429 690 442 q 708 397 711 417 q 691 365 706 378 q 657 351 676 351 m 668 424 q 648 416 657 424 q 636 397 639 408 q 641 378 633 386 q 660 369 649 369 q 680 378 671 369 q 692 397 689 386 q 687 416 694 408 q 668 424 679 424 m 679 397 q 661 382 676 382 q 650 397 647 382 q 665 411 653 411 q 676 408 672 411 q 679 397 681 404 m 558 417 q 529 430 540 417 q 521 463 518 443 q 539 494 524 481 q 572 507 554 507 q 603 494 592 507 q 611 463 614 481 q 593 430 608 443 q 558 417 578 417 m 569 489 q 539 463 543 489 q 543 443 536 451 q 561 435 550 435 q 581 443 572 435 q 593 463 590 451 q 588 481 596 474 q 569 489 581 489 m 581 463 q 563 447 578 447 q 551 463 549 447 q 568 476 554 476 q 581 463 583 476 m 443 417 q 413 430 424 417 q 406 463 403 443 q 423 494 408 481 q 457 507 438 507 q 487 494 476 507 q 494 463 497 481 q 477 430 492 443 q 443 417 463 417 m 454 489 q 434 481 443 489 q 422 463 425 474 q 427 443 419 451 q 446 435 435 435 q 466 443 457 435 q 478 463 475 451 q 473 481 481 474 q 454 489 465 489 m 465 463 q 447 447 463 447 q 436 463 433 447 q 453 476 439 476 q 465 463 468 476 m 317 421 q 288 434 297 421 q 281 465 278 447 q 298 498 283 485 q 332 511 313 511 q 362 498 351 511 q 369 465 372 485 q 351 434 367 447 q 317 421 336 421 m 329 493 q 308 485 318 493 q 297 465 299 476 q 302 447 294 454 q 321 439 310 439 q 341 447 332 439 q 353 465 350 454 q 347 485 354 476 q 329 493 340 493 m 339 465 q 322 451 336 451 q 310 465 307 451 q 326 481 313 481 q 339 465 342 481 m 367 521 q 338 533 349 521 q 329 565 326 546 q 347 598 332 585 q 381 611 363 611 q 411 598 400 611 q 419 565 422 585 q 401 533 417 546 q 367 521 386 521 m 378 593 q 358 585 367 593 q 347 565 350 576 q 351 546 344 554 q 369 538 358 538 q 390 546 381 538 q 401 565 399 554 q 397 585 404 576 q 378 593 389 593 m 389 565 q 371 551 386 551 q 360 565 357 551 q 376 581 363 581 q 389 565 392 581 m 426 615 q 397 628 407 615 q 389 661 386 642 q 406 692 392 679 q 440 706 421 706 q 471 692 460 706 q 479 661 482 679 q 461 628 476 642 q 426 615 446 615 m 438 689 q 417 681 426 689 q 406 661 408 672 q 410 642 403 650 q 429 633 418 633 q 449 642 440 633 q 461 661 458 650 q 456 681 464 672 q 438 689 449 689 m 449 661 q 431 646 446 646 q 419 661 417 646 q 435 675 422 675 q 446 671 442 675 q 449 661 450 667 m 479 718 q 451 731 461 718 q 443 764 440 744 q 461 796 446 783 q 494 808 476 808 q 525 796 514 808 q 533 764 536 783 q 515 731 531 744 q 479 718 499 718 m 492 792 q 472 783 481 792 q 461 764 463 775 q 465 744 458 753 q 482 736 471 736 q 503 744 493 736 q 515 764 513 753 q 510 783 517 775 q 492 792 503 792 m 503 764 q 485 749 500 749 q 474 764 471 749 q 489 778 476 778 q 500 774 496 778 q 503 764 504 771 m 674 463 q 644 475 654 463 q 636 507 633 488 q 653 539 639 526 q 688 551 668 551 q 717 539 707 551 q 725 507 728 526 q 708 475 722 488 q 674 463 693 463 m 685 535 q 665 526 674 535 q 653 507 656 518 q 658 488 651 496 q 676 479 665 479 q 697 488 688 479 q 708 507 707 496 q 703 526 711 518 q 685 535 696 535 m 696 507 q 679 492 693 492 q 667 507 664 492 q 683 522 669 522 q 696 507 699 522 m 693 574 q 663 586 674 574 q 654 618 651 599 q 672 650 657 638 q 707 663 688 663 q 737 650 726 663 q 744 618 747 638 q 727 586 742 599 q 693 574 713 574 m 704 646 q 684 638 693 646 q 672 618 675 629 q 677 599 669 607 q 696 590 685 590 q 716 599 707 590 q 728 618 725 607 q 723 638 731 629 q 704 646 715 646 m 714 618 q 697 603 711 603 q 685 618 682 603 q 703 632 688 632 q 714 618 717 632 m 708 682 q 678 695 689 682 q 671 728 668 708 q 689 759 674 746 q 724 772 704 772 q 753 759 743 772 q 760 728 763 746 q 742 695 757 708 q 708 682 728 682 m 721 754 q 700 747 710 754 q 688 728 690 739 q 693 708 686 717 q 711 700 700 700 q 732 708 722 700 q 743 728 742 717 q 721 754 747 754 m 731 728 q 726 717 731 721 q 714 713 721 713 q 701 728 701 713 q 718 742 704 742 q 731 728 733 742 m 728 792 q 697 805 708 792 q 689 838 686 818 q 707 869 692 857 q 742 882 722 882 q 772 869 761 882 q 779 838 782 857 q 762 805 776 818 q 728 792 747 792 m 739 865 q 719 857 728 865 q 707 838 710 849 q 712 818 704 826 q 731 810 719 810 q 751 818 742 810 q 763 838 760 826 q 758 857 765 849 q 739 865 750 865 m 749 838 q 732 822 746 822 q 719 838 717 822 q 738 851 722 851 q 749 838 751 851 z "},"5":{"ha":743,"x_min":68,"x_max":851,"o":"m 376 379 q 409 363 401 379 q 390 307 417 347 q 397 304 393 306 q 406 296 403 301 l 432 296 q 444 297 438 296 q 458 300 451 297 l 460 311 q 440 376 465 349 q 378 404 415 404 l 96 404 l 168 863 l 239 924 l 242 946 l 851 946 l 817 726 q 797 672 811 690 q 764 661 782 653 l 706 610 q 758 509 742 567 q 763 383 774 451 q 694 221 749 293 q 561 106 640 149 l 543 90 q 432 24 493 47 q 303 0 371 0 q 201 23 247 0 q 125 86 156 46 q 81 180 94 126 q 78 296 68 233 l 149 358 l 153 379 l 376 379 m 411 260 q 397 263 403 260 q 383 268 390 265 q 363 293 371 275 q 372 332 356 311 q 371 343 378 343 l 346 343 l 183 343 q 188 247 175 292 q 228 169 200 203 q 299 117 257 136 q 390 99 340 99 l 401 99 q 514 121 460 99 q 613 181 568 143 q 687 272 657 219 q 726 383 717 324 q 722 493 736 442 q 676 582 708 544 q 596 642 643 619 q 490 664 549 664 l 396 664 l 408 740 l 410 747 l 493 747 l 532 747 l 561 747 l 676 747 q 740 740 717 747 q 774 722 764 733 q 781 726 778 711 l 785 747 l 810 910 l 557 910 l 518 910 l 514 910 l 272 910 l 269 888 l 208 503 l 465 503 q 510 493 489 503 q 545 467 531 483 q 566 430 560 451 q 568 383 572 408 q 550 335 564 357 q 517 296 536 313 q 474 269 497 279 q 426 260 450 260 l 411 260 m 704 796 q 674 808 685 796 q 667 840 664 821 q 684 872 669 860 q 718 885 699 885 q 748 872 738 885 q 756 840 758 860 q 738 808 753 821 q 704 796 724 796 m 715 868 q 695 860 704 868 q 683 840 686 851 q 689 821 682 829 q 707 813 696 813 q 728 821 718 813 q 739 840 738 829 q 734 860 742 851 q 715 868 726 868 m 726 840 q 710 825 724 825 q 699 829 703 825 q 696 840 694 833 q 714 856 699 856 q 726 840 729 856 m 583 796 q 553 808 564 796 q 544 840 542 821 q 563 872 547 860 q 597 885 578 885 q 626 872 615 885 q 635 840 638 860 q 617 808 632 821 q 583 796 601 796 m 594 868 q 574 860 583 868 q 563 840 565 851 q 568 821 561 829 q 586 813 575 813 q 606 821 597 813 q 617 840 615 829 q 613 860 619 851 q 594 868 606 868 m 604 840 q 589 825 601 825 q 578 829 582 825 q 575 840 574 833 q 593 856 578 856 q 604 840 607 856 m 471 796 q 440 808 451 796 q 432 840 429 821 q 450 872 435 860 q 485 885 465 885 q 515 872 504 885 q 522 840 525 860 q 505 808 519 821 q 471 796 490 796 m 482 868 q 462 860 471 868 q 450 840 453 851 q 456 821 449 829 q 474 813 463 813 q 494 821 485 813 q 506 840 504 829 q 501 860 508 851 q 482 868 493 868 m 492 840 q 476 825 489 825 q 465 829 469 825 q 463 840 461 833 q 481 856 465 856 q 492 840 494 856 m 324 678 q 293 691 304 678 q 285 724 282 704 q 303 756 288 743 q 338 768 318 768 q 367 756 356 768 q 375 724 378 743 q 357 691 372 704 q 324 678 342 678 m 335 751 q 314 743 324 751 q 301 724 304 735 q 307 704 299 713 q 326 696 315 696 q 346 704 338 696 q 357 724 354 713 q 353 743 360 735 q 335 751 346 751 m 344 724 q 328 708 342 708 q 315 724 313 708 q 333 738 318 738 q 344 724 347 738 m 307 558 q 277 571 288 558 q 269 603 267 583 q 287 635 272 622 q 321 647 301 647 q 351 635 340 647 q 358 603 361 622 q 341 571 356 583 q 307 558 326 558 m 318 631 q 298 622 307 631 q 286 603 289 614 q 291 583 283 592 q 310 575 299 575 q 330 583 321 575 q 342 603 339 592 q 337 622 344 614 q 318 631 329 631 m 329 603 q 311 588 326 588 q 299 603 296 588 q 317 618 301 618 q 329 603 332 618 m 417 554 q 386 567 397 554 q 378 599 375 579 q 396 631 381 618 q 431 643 411 643 q 460 631 449 643 q 468 599 471 618 q 450 567 465 579 q 417 554 435 554 m 428 626 q 408 618 417 626 q 396 599 399 610 q 401 579 393 588 q 419 571 408 571 q 440 579 431 571 q 451 599 449 588 q 447 618 454 610 q 428 626 439 626 m 438 599 q 421 585 435 585 q 408 599 406 585 q 426 614 411 614 q 438 599 440 614 m 528 543 q 498 556 508 543 q 490 588 488 569 q 508 620 493 607 q 543 633 524 633 q 572 620 563 633 q 579 588 582 607 q 562 556 576 569 q 528 543 547 543 m 540 615 q 519 607 529 615 q 507 588 510 599 q 531 561 504 561 q 551 569 542 561 q 563 588 561 576 q 558 607 565 599 q 540 615 551 615 m 550 588 q 545 577 550 581 q 533 574 540 574 q 519 588 519 574 q 538 603 522 603 q 550 588 553 603 m 611 483 q 581 497 592 483 q 572 528 569 510 q 590 560 575 547 q 625 574 606 574 q 654 560 643 574 q 663 528 665 547 q 644 497 660 510 q 611 483 629 483 m 622 556 q 601 547 611 556 q 590 528 592 539 q 595 508 588 517 q 614 500 603 500 q 633 508 625 500 q 644 528 642 517 q 640 547 646 539 q 622 556 633 556 m 632 528 q 615 514 629 514 q 603 528 600 514 q 619 543 606 543 q 632 528 635 543 m 640 390 q 610 403 621 390 q 603 436 600 417 q 620 468 606 456 q 654 481 635 481 q 684 468 674 481 q 692 436 694 456 q 674 403 689 417 q 640 390 660 390 m 651 464 q 631 456 640 464 q 619 436 622 447 q 624 417 617 425 q 643 408 632 408 q 663 417 654 408 q 675 436 672 425 q 670 456 678 447 q 651 464 663 464 m 663 436 q 644 421 660 421 q 632 436 629 421 q 650 451 635 451 q 663 436 665 451 m 624 285 q 594 297 604 285 q 586 329 583 310 q 603 362 589 349 q 638 375 618 375 q 668 362 657 375 q 676 329 679 349 q 658 297 674 310 q 624 285 643 285 m 635 357 q 615 349 624 357 q 603 329 606 340 q 608 310 600 318 q 626 301 615 301 q 647 310 638 301 q 658 329 656 318 q 653 349 661 340 q 635 357 646 357 m 646 329 q 628 315 643 315 q 617 329 614 315 q 633 344 619 344 q 646 329 649 344 m 553 189 q 522 201 533 189 q 514 233 511 214 q 532 265 517 253 q 567 278 547 278 q 597 265 586 278 q 604 233 607 253 q 587 201 601 214 q 553 189 572 189 m 564 261 q 544 253 553 261 q 532 233 535 244 q 537 214 529 222 q 556 206 544 206 q 576 214 567 206 q 588 233 585 222 q 583 253 590 244 q 564 261 575 261 m 574 233 q 557 218 571 218 q 544 233 542 218 q 563 249 547 249 q 574 233 576 249 m 436 142 q 406 154 417 142 q 397 186 394 167 q 415 218 400 206 q 450 231 431 231 q 480 218 469 231 q 488 186 490 206 q 470 154 485 167 q 436 142 456 142 m 447 214 q 426 206 436 214 q 415 186 417 197 q 420 167 413 175 q 439 158 428 158 q 459 167 450 158 q 471 186 468 175 q 465 206 472 197 q 447 214 458 214 m 457 186 q 440 171 454 171 q 428 186 425 171 q 444 201 431 201 q 457 186 460 201 m 328 158 q 298 171 308 158 q 290 203 288 183 q 308 235 293 222 q 342 249 322 249 q 372 235 361 249 q 381 203 383 222 q 363 171 378 183 q 328 158 347 158 m 339 231 q 318 222 328 231 q 307 203 308 214 q 311 183 304 192 q 329 175 318 175 q 350 183 340 175 q 363 203 360 192 q 357 222 364 214 q 339 231 350 231 m 350 203 q 332 189 347 189 q 321 203 318 189 q 336 218 324 218 q 347 214 343 218 q 350 203 351 210 m 263 236 q 234 249 244 236 q 226 282 224 263 q 244 313 229 300 q 278 326 260 326 q 308 313 297 326 q 317 282 319 300 q 298 249 314 263 q 263 236 282 236 m 275 308 q 255 301 264 308 q 244 282 246 293 q 248 262 242 271 q 265 253 254 253 q 286 262 276 253 q 299 282 296 271 q 293 301 300 293 q 275 308 286 308 m 286 282 q 268 267 283 267 q 257 282 254 267 q 262 292 257 288 q 272 296 267 296 q 286 282 286 296 m 333 796 q 303 808 314 796 q 294 840 292 821 q 313 872 297 860 q 347 885 328 885 q 377 872 367 885 q 385 840 388 860 q 367 808 382 821 q 333 796 353 796 m 344 868 q 324 860 333 868 q 313 840 315 851 q 318 821 311 829 q 336 813 325 813 q 357 821 347 813 q 368 840 367 829 q 363 860 371 851 q 344 868 356 868 m 354 840 q 339 825 351 825 q 328 829 332 825 q 325 840 324 833 q 343 856 328 856 q 354 840 357 856 z "},"6":{"ha":804,"x_min":79,"x_max":881,"o":"m 783 588 l 776 588 q 828 483 815 539 q 833 369 842 428 q 767 212 819 285 q 635 99 714 139 l 618 88 q 515 25 574 50 q 392 0 457 0 l 338 0 q 226 23 276 0 q 142 86 175 46 q 94 181 108 126 q 89 297 79 235 l 132 569 q 174 682 142 629 q 253 775 206 735 l 265 783 q 392 901 314 857 q 558 946 471 946 l 617 946 q 721 924 674 946 q 803 862 768 901 q 858 767 838 822 q 881 649 878 713 l 856 649 l 783 588 m 324 833 q 319 829 321 833 l 324 833 m 633 732 q 647 710 642 721 q 649 692 653 700 q 656 685 649 685 l 676 685 l 843 685 q 825 775 843 733 q 776 847 807 817 q 703 893 746 876 q 611 910 661 910 l 553 910 q 445 889 497 910 q 351 831 393 868 q 281 746 310 794 q 243 642 251 697 l 200 369 q 203 263 190 313 q 247 177 217 214 q 324 119 278 140 q 425 99 369 99 l 479 99 q 597 122 542 99 q 694 185 651 146 q 763 273 736 224 q 797 375 789 322 q 790 479 804 428 q 735 572 775 531 q 659 625 699 608 q 565 642 619 642 l 406 642 q 448 718 413 686 q 528 750 483 750 l 586 750 q 613 745 601 750 q 633 732 624 740 m 379 479 l 539 479 q 611 447 585 479 q 631 369 638 414 q 587 292 624 324 q 504 261 550 261 l 450 261 q 381 292 406 261 q 363 369 356 324 l 379 479 m 399 369 q 410 319 393 340 q 456 297 428 297 l 510 297 l 521 297 q 507 355 526 329 q 451 381 488 381 l 400 381 l 399 369 m 331 169 q 301 182 313 169 q 293 214 290 194 q 311 247 296 233 q 344 260 326 260 q 375 247 364 260 q 383 214 386 233 q 365 182 381 194 q 331 169 350 169 m 342 242 q 322 233 331 242 q 310 214 313 225 q 315 194 307 203 q 333 186 322 186 q 353 194 344 186 q 365 214 363 203 q 360 233 368 225 q 342 242 353 242 m 353 214 q 335 200 350 200 q 324 214 321 200 q 340 229 326 229 q 353 214 356 229 m 429 128 q 399 140 410 128 q 390 172 388 153 q 408 205 393 192 q 443 218 424 218 q 472 205 461 218 q 481 172 483 192 q 463 140 478 153 q 429 128 447 128 m 440 200 q 420 192 429 200 q 408 172 411 183 q 413 153 406 161 q 432 144 421 144 q 451 153 443 144 q 463 172 460 161 q 458 192 465 183 q 440 200 451 200 m 450 172 q 435 158 447 158 q 421 172 418 158 q 439 188 424 188 q 450 172 453 188 m 550 142 q 520 155 531 142 q 513 188 510 168 q 530 219 515 207 q 564 232 544 232 q 594 219 583 232 q 603 188 606 207 q 585 155 600 168 q 550 142 569 142 m 561 215 q 541 207 550 215 q 529 188 532 199 q 534 168 526 176 q 553 160 542 160 q 573 168 564 160 q 585 188 582 176 q 580 207 588 199 q 561 215 572 215 m 572 188 q 554 172 569 172 q 542 188 539 172 q 560 203 544 203 q 572 188 575 203 m 651 218 q 622 231 632 218 q 614 263 611 243 q 632 295 617 282 q 667 308 647 308 q 697 295 686 308 q 704 263 707 282 q 686 231 701 243 q 651 218 671 218 m 664 290 q 643 282 653 290 q 631 263 633 274 q 636 243 629 251 q 654 235 643 235 q 675 243 665 235 q 686 263 685 251 q 682 282 689 274 q 664 290 675 290 m 674 263 q 657 249 671 249 q 646 252 650 249 q 643 263 642 256 q 661 278 646 278 q 674 263 676 278 m 714 321 q 683 333 694 321 q 675 365 672 346 q 693 398 678 385 q 728 411 708 411 q 758 398 747 411 q 765 365 768 385 q 748 333 763 346 q 714 321 733 321 m 725 393 q 705 385 714 393 q 693 365 696 376 q 698 346 690 354 q 717 338 706 338 q 737 346 728 338 q 749 365 746 354 q 744 385 751 376 q 725 393 736 393 m 735 365 q 718 350 732 350 q 706 365 703 350 q 724 381 708 381 q 735 365 738 381 m 700 424 q 669 436 681 424 q 661 468 658 449 q 679 501 664 488 q 714 514 694 514 q 744 501 733 514 q 751 468 754 488 q 734 436 749 449 q 700 424 719 424 m 711 496 q 691 488 700 496 q 679 468 682 479 q 684 449 676 457 q 703 440 692 440 q 723 449 714 440 q 735 468 732 457 q 730 488 738 479 q 711 496 722 496 m 722 468 q 704 454 719 454 q 692 468 689 454 q 710 483 694 483 q 722 468 725 483 m 633 500 q 603 513 614 500 q 594 546 592 526 q 613 577 597 564 q 647 590 628 590 q 676 577 665 590 q 685 546 688 564 q 667 513 682 526 q 633 500 651 500 m 644 574 q 623 565 633 574 q 611 546 613 557 q 617 526 608 535 q 636 518 625 518 q 656 526 647 518 q 668 546 665 535 q 663 565 669 557 q 644 574 656 574 m 654 546 q 638 531 651 531 q 625 546 622 531 q 642 560 628 560 q 651 556 647 560 q 654 546 656 553 m 417 518 q 386 531 397 518 q 378 564 375 544 q 396 596 381 583 q 431 608 411 608 q 460 596 449 608 q 468 564 471 583 q 450 531 465 544 q 417 518 435 518 m 428 592 q 408 583 417 592 q 396 564 399 575 q 401 544 393 553 q 419 536 408 536 q 440 544 431 536 q 451 564 449 553 q 447 583 454 575 q 428 592 439 592 m 438 564 q 421 549 435 549 q 408 564 406 549 q 425 578 411 578 q 435 574 431 578 q 438 564 439 571 m 525 518 q 495 531 506 518 q 488 564 485 544 q 505 596 490 583 q 539 608 519 608 q 569 596 558 608 q 578 564 581 583 q 560 531 575 544 q 525 518 544 518 m 536 592 q 516 583 525 592 q 504 564 507 575 q 509 544 501 553 q 528 536 517 536 q 548 544 539 536 q 560 564 557 553 q 555 583 563 575 q 536 592 547 592 m 547 564 q 529 549 544 549 q 517 564 514 549 q 533 578 519 578 q 544 574 540 578 q 547 564 549 571 m 279 254 q 249 267 260 254 q 242 299 239 279 q 260 331 244 318 q 294 344 275 344 q 324 331 313 344 q 332 299 335 318 q 313 267 329 279 q 279 254 297 254 m 292 326 q 270 318 281 326 q 258 299 260 310 q 263 279 256 288 q 282 271 271 271 q 302 279 293 271 q 314 299 311 288 q 309 318 315 310 q 292 326 303 326 m 301 299 q 285 285 299 285 q 272 299 269 285 q 289 314 275 314 q 299 310 294 314 q 301 299 303 306 m 278 363 q 249 376 260 363 q 240 408 238 389 q 258 440 243 428 q 292 453 274 453 q 322 440 311 453 q 331 408 333 428 q 313 376 328 389 q 278 363 297 363 m 289 436 q 269 428 278 436 q 258 408 261 419 q 263 389 256 397 q 281 381 269 381 q 301 389 292 381 q 313 408 310 397 q 308 428 315 419 q 289 436 300 436 m 300 408 q 282 393 297 393 q 271 408 268 393 q 288 422 274 422 q 300 408 303 422 m 300 474 q 270 486 281 474 q 263 518 260 499 q 280 551 265 538 q 314 564 294 564 q 344 551 333 564 q 351 518 354 538 q 334 486 349 499 q 300 474 319 474 m 311 546 q 290 538 300 546 q 279 518 281 529 q 283 499 276 507 q 301 490 290 490 q 322 499 313 490 q 335 518 332 507 q 329 538 336 529 q 311 546 322 546 m 322 518 q 304 504 319 504 q 292 518 289 504 q 308 533 294 533 q 319 529 315 533 q 322 518 324 525 m 322 596 q 293 608 303 596 q 286 640 283 621 q 303 673 289 660 q 338 686 318 686 q 368 673 357 686 q 376 640 379 660 q 358 608 374 621 q 322 596 342 596 m 335 668 q 314 660 324 668 q 303 640 304 651 q 307 621 300 629 q 325 613 314 613 q 346 621 336 613 q 358 640 356 629 q 353 660 360 651 q 335 668 346 668 m 346 640 q 328 626 343 626 q 315 640 313 626 q 320 651 315 647 q 332 656 325 656 q 346 640 346 656 m 371 701 q 342 715 351 701 q 335 747 332 728 q 352 779 338 767 q 386 792 367 792 q 417 779 406 792 q 425 747 428 767 q 406 715 422 728 q 371 701 390 701 m 383 775 q 363 767 372 775 q 351 747 353 758 q 356 728 349 736 q 375 719 364 719 q 395 728 386 719 q 407 747 404 736 q 401 767 408 758 q 383 775 394 775 m 394 747 q 376 732 392 732 q 364 747 361 732 q 381 761 367 761 q 392 757 388 761 q 394 747 396 753 m 458 783 q 428 797 439 783 q 419 828 417 810 q 438 860 422 847 q 472 874 453 874 q 502 860 492 874 q 510 828 513 847 q 492 797 507 810 q 458 783 478 783 m 469 856 q 449 847 458 856 q 438 828 440 839 q 442 808 435 817 q 461 800 450 800 q 481 808 472 800 q 493 828 490 817 q 488 847 496 839 q 469 856 481 856 m 481 828 q 463 814 478 814 q 450 828 447 814 q 468 843 453 843 q 481 828 483 843 m 567 799 q 536 811 547 799 q 528 843 525 824 q 546 876 531 863 q 581 889 561 889 q 610 876 600 889 q 618 843 621 863 q 601 811 615 824 q 567 799 586 799 m 578 871 q 557 863 567 871 q 546 843 547 854 q 550 824 543 832 q 568 815 557 815 q 589 824 579 815 q 601 843 599 832 q 596 863 603 854 q 578 871 589 871 m 588 843 q 571 828 585 828 q 558 843 556 828 q 575 858 561 858 q 588 843 590 858 m 667 775 q 636 788 647 775 q 628 821 625 801 q 646 853 631 840 q 681 867 661 867 q 710 853 699 867 q 718 821 721 840 q 700 788 715 801 q 667 775 685 775 m 678 849 q 658 840 667 849 q 646 821 649 832 q 651 801 643 810 q 669 793 658 793 q 689 801 681 793 q 700 821 697 810 q 696 840 703 832 q 678 849 689 849 m 688 821 q 671 806 685 806 q 658 821 656 806 q 676 836 661 836 q 688 821 690 836 m 739 701 q 710 715 719 701 q 703 747 700 728 q 720 779 706 767 q 754 792 735 792 q 785 779 774 792 q 793 747 796 767 q 774 715 790 728 q 739 701 758 701 m 751 775 q 731 767 740 775 q 719 747 721 758 q 724 728 717 736 q 743 719 732 719 q 763 728 754 719 q 775 747 772 736 q 769 767 776 758 q 751 775 763 775 m 763 747 q 744 732 760 732 q 733 747 731 732 q 749 761 736 761 q 760 757 756 761 q 763 747 764 753 z "},"7":{"ha":825,"x_min":160,"x_max":951,"o":"m 168 0 l 511 640 l 326 640 q 280 633 300 640 q 247 619 260 626 l 244 615 l 190 622 l 160 850 l 233 910 l 231 931 l 951 931 l 565 221 q 539 125 521 144 q 534 77 547 93 q 500 61 521 61 l 439 7 q 426 1 432 1 q 414 0 421 0 l 168 0 m 632 736 l 289 96 l 499 96 q 504 99 501 96 q 504 107 507 101 q 535 235 478 133 l 893 896 l 274 896 l 300 700 q 305 696 303 697 q 310 700 307 694 q 411 736 346 736 l 632 736 m 351 769 q 323 783 333 769 q 315 814 313 796 q 333 845 318 832 q 365 858 347 858 q 395 845 385 858 q 403 814 406 832 q 385 783 400 796 q 351 769 371 769 m 363 840 q 343 833 351 840 q 332 814 335 825 q 337 794 331 803 q 354 786 343 786 q 375 794 365 786 q 386 814 385 803 q 381 833 389 825 q 363 840 374 840 m 374 814 q 357 800 371 800 q 344 814 342 800 q 361 828 347 828 q 374 814 376 828 m 451 769 q 423 783 433 769 q 415 814 413 796 q 433 845 418 832 q 465 858 447 858 q 496 845 485 858 q 504 814 507 832 q 486 783 501 796 q 451 769 471 769 m 463 840 q 443 833 451 840 q 432 814 435 825 q 437 794 431 803 q 454 786 443 786 q 475 794 465 786 q 486 814 485 803 q 481 833 489 825 q 463 840 474 840 m 474 814 q 457 800 471 800 q 447 803 451 800 q 444 814 443 807 q 461 828 447 828 q 474 814 476 828 m 556 769 q 526 783 538 769 q 518 814 515 796 q 536 845 521 832 q 569 858 551 858 q 599 845 589 858 q 607 814 610 832 q 590 783 604 796 q 556 769 575 769 m 567 840 q 536 814 540 840 q 541 794 535 803 q 558 786 547 786 q 579 794 569 786 q 590 814 589 803 q 585 833 593 825 q 567 840 578 840 m 578 814 q 561 800 575 800 q 549 814 546 800 q 565 828 551 828 q 578 814 581 828 m 658 769 q 629 783 640 769 q 621 814 618 796 q 639 845 624 832 q 672 858 654 858 q 701 845 690 858 q 710 814 713 832 q 692 783 707 796 q 658 769 676 769 m 669 840 q 639 814 643 840 q 644 794 638 803 q 661 786 650 786 q 681 794 672 786 q 692 814 690 803 q 669 840 696 840 m 679 814 q 664 800 676 800 q 651 814 649 800 q 668 828 654 828 q 679 814 682 828 m 763 769 q 733 783 744 769 q 725 814 722 796 q 743 845 728 832 q 776 858 758 858 q 806 845 796 858 q 814 814 817 832 q 797 783 811 796 q 763 769 782 769 m 774 840 q 743 814 747 840 q 748 794 742 803 q 765 786 754 786 q 786 794 776 786 q 797 814 796 803 q 792 833 800 825 q 774 840 785 840 m 785 814 q 768 800 782 800 q 758 803 763 800 q 756 814 754 807 q 772 828 758 828 q 785 814 788 828 m 696 660 q 667 673 678 660 q 660 704 657 686 q 677 736 663 724 q 710 749 692 749 q 740 736 729 749 q 749 704 751 724 q 731 673 746 686 q 696 660 715 660 m 707 732 q 688 724 696 732 q 676 704 679 715 q 681 685 674 693 q 699 678 688 678 q 719 685 710 678 q 731 704 728 693 q 726 724 733 715 q 707 732 718 732 m 718 704 q 700 690 715 690 q 689 704 686 690 q 706 719 692 719 q 718 704 721 719 m 635 551 q 606 565 615 551 q 599 597 596 578 q 616 628 601 615 q 650 640 631 640 q 678 628 668 640 q 686 597 689 615 q 668 565 683 578 q 635 551 653 551 m 647 624 q 626 616 636 624 q 615 597 617 608 q 619 578 613 586 q 638 569 626 569 q 658 578 649 569 q 669 597 667 586 q 665 616 671 608 q 647 624 658 624 m 657 597 q 640 582 654 582 q 628 597 625 582 q 633 607 628 603 q 644 611 638 611 q 657 597 657 611 m 574 439 q 543 451 554 439 q 535 482 532 464 q 553 514 538 501 q 588 526 568 526 q 617 514 607 526 q 624 482 626 501 q 607 451 621 464 q 574 439 593 439 m 585 510 q 564 501 574 510 q 551 482 554 493 q 557 463 550 471 q 575 456 564 456 q 596 463 586 456 q 607 482 606 471 q 603 501 610 493 q 585 510 596 510 m 593 482 q 588 472 593 476 q 578 468 583 468 q 564 482 564 468 q 582 497 567 497 q 593 482 596 497 m 513 339 q 483 351 493 339 q 475 383 472 364 q 492 414 478 401 q 526 426 507 426 q 556 414 544 426 q 564 383 567 401 q 546 351 561 364 q 513 339 531 339 m 524 410 q 503 402 513 410 q 492 383 494 394 q 497 364 489 372 q 515 356 504 356 q 535 364 526 356 q 546 383 543 372 q 542 402 549 394 q 524 410 535 410 m 533 383 q 517 368 531 368 q 506 383 503 368 q 522 397 508 397 q 533 383 536 397 m 465 226 q 436 240 447 226 q 428 271 425 253 q 446 303 431 290 q 479 315 461 315 q 509 303 499 315 q 517 271 519 290 q 499 240 514 253 q 465 226 485 226 m 478 299 q 458 290 467 299 q 446 271 449 282 q 451 252 444 260 q 468 244 457 244 q 489 252 479 244 q 500 271 499 260 q 496 290 503 282 q 478 299 489 299 m 488 271 q 483 261 488 265 q 471 257 478 257 q 458 271 458 257 q 475 286 461 286 q 488 271 490 286 m 413 125 q 384 138 394 125 q 376 171 374 151 q 394 201 379 189 q 426 214 408 214 q 457 201 446 214 q 465 171 468 189 q 447 138 463 151 q 413 125 432 125 m 424 197 q 404 190 413 197 q 393 171 396 182 q 397 151 390 160 q 415 143 404 143 q 435 151 426 143 q 447 171 444 160 q 442 190 450 182 q 424 197 435 197 m 435 171 q 417 156 432 156 q 406 171 403 156 q 422 185 408 185 q 435 171 438 185 z "},"8":{"ha":779,"x_min":54,"x_max":825,"o":"m 419 256 q 349 286 376 256 q 329 363 322 317 q 344 403 332 383 q 373 437 356 422 q 411 460 390 451 q 453 469 432 469 l 531 469 q 601 438 575 469 q 621 363 628 406 q 578 286 614 317 q 497 256 542 256 l 419 256 m 365 363 q 378 313 360 333 q 425 292 397 292 l 503 292 l 514 292 q 499 349 519 324 q 444 374 479 374 l 367 374 l 365 363 m 308 0 q 193 24 243 0 q 111 90 143 49 q 67 183 79 131 q 63 292 54 235 q 101 397 71 343 q 175 494 131 451 q 164 551 167 518 q 165 611 161 583 q 199 705 172 660 q 264 782 226 750 l 285 800 q 387 893 322 856 q 526 931 451 931 l 604 931 q 701 910 658 931 q 771 854 743 889 q 810 774 799 819 q 813 679 821 728 q 796 623 808 651 q 767 565 783 594 q 814 467 803 517 q 817 367 825 417 q 792 285 810 325 q 749 209 775 244 q 690 144 724 174 q 617 96 656 115 l 601 82 q 503 22 557 44 q 386 0 450 0 l 308 0 m 292 561 q 209 470 239 521 q 170 367 179 419 q 172 267 161 315 q 211 180 182 218 q 286 119 240 142 q 393 96 332 96 l 471 96 q 585 119 532 96 q 681 180 639 142 q 749 267 722 218 q 783 367 775 315 q 776 469 790 419 q 722 561 763 519 q 777 673 767 614 q 769 781 788 732 q 707 863 751 831 q 599 896 663 896 l 521 896 q 403 863 457 896 q 315 781 349 831 q 272 673 281 732 q 292 561 264 614 m 478 629 q 442 645 456 629 q 432 682 429 661 q 454 720 436 704 q 494 736 472 736 l 572 736 q 607 720 593 736 q 617 682 621 704 q 595 645 614 661 q 556 629 576 629 l 478 629 m 651 306 q 681 293 671 306 q 689 261 692 281 q 672 231 686 243 q 638 218 657 218 q 608 231 618 218 q 600 261 597 243 q 617 293 603 281 q 651 306 632 306 m 640 235 q 661 242 651 235 q 672 261 671 250 q 667 281 675 272 q 649 289 660 289 q 628 281 638 289 q 617 261 619 272 q 640 235 614 235 m 629 261 q 647 276 632 276 q 660 261 663 276 q 643 247 657 247 q 632 251 636 247 q 629 261 628 256 m 713 406 q 742 393 731 406 q 750 361 753 381 q 732 329 747 342 q 699 317 717 317 q 669 329 681 317 q 661 361 658 342 q 679 393 664 381 q 713 406 694 406 m 701 335 q 722 342 713 335 q 733 361 731 350 q 728 381 735 372 q 710 389 721 389 q 690 381 699 389 q 679 361 681 372 q 683 342 676 350 q 701 335 690 335 m 692 361 q 707 376 694 376 q 719 361 722 376 q 703 347 717 347 q 692 361 689 347 m 701 508 q 731 495 721 508 q 739 464 742 482 q 722 432 736 444 q 688 419 707 419 q 658 432 668 419 q 650 464 647 444 q 667 495 653 482 q 701 508 682 508 m 690 436 q 711 444 701 436 q 722 464 721 453 q 717 483 725 475 q 699 490 710 490 q 678 483 688 490 q 667 464 669 475 q 672 444 665 453 q 690 436 679 436 m 679 464 q 697 478 682 478 q 710 464 713 478 q 693 450 707 450 q 682 453 686 450 q 679 464 678 457 m 626 585 q 656 572 644 585 q 664 540 667 560 q 646 508 661 521 q 613 496 631 496 q 583 508 593 496 q 575 540 572 521 q 592 572 578 560 q 626 585 607 585 m 615 513 q 635 521 626 513 q 647 540 644 529 q 642 560 650 551 q 624 568 635 568 q 603 560 613 568 q 592 540 594 551 q 597 521 589 529 q 615 513 604 513 m 604 540 q 622 556 607 556 q 633 540 636 556 q 617 525 631 525 q 604 540 601 525 m 682 683 q 713 671 701 683 q 721 640 724 658 q 703 608 718 621 q 668 594 688 594 q 640 608 650 594 q 632 640 629 621 q 649 671 635 658 q 682 683 664 683 m 671 613 q 691 621 682 613 q 703 640 700 629 q 698 659 704 651 q 681 667 692 667 q 660 659 669 667 q 649 640 650 651 q 653 621 646 629 q 671 613 660 613 m 663 640 q 678 654 663 654 q 690 640 690 654 q 674 625 688 625 q 663 640 660 625 m 700 794 q 730 782 719 794 q 738 750 740 769 q 720 718 735 731 q 686 706 706 706 q 657 718 668 706 q 649 750 646 731 q 667 782 651 769 q 700 794 682 794 m 689 724 q 719 750 715 724 q 715 769 722 761 q 697 778 708 778 q 677 769 686 778 q 665 750 668 761 q 670 731 663 739 q 689 724 678 724 m 679 750 q 696 765 682 765 q 707 750 710 765 q 690 736 704 736 q 679 750 676 736 m 615 858 q 644 846 633 858 q 653 814 656 833 q 635 782 650 794 q 601 769 619 769 q 572 782 582 769 q 564 814 561 794 q 581 846 567 833 q 615 858 596 858 m 604 786 q 624 794 615 786 q 635 814 633 803 q 631 833 638 825 q 613 842 624 842 q 592 833 601 842 q 581 814 583 825 q 586 794 579 803 q 604 786 593 786 m 594 814 q 611 828 597 828 q 622 814 625 828 q 607 799 619 799 q 594 814 592 799 m 503 857 q 533 844 522 857 q 540 814 543 832 q 523 782 538 794 q 489 769 508 769 q 459 782 469 769 q 451 814 449 794 q 469 844 454 832 q 503 857 483 857 m 492 786 q 513 794 503 786 q 524 814 522 803 q 519 833 526 825 q 500 840 511 840 q 481 833 489 840 q 469 814 472 825 q 474 794 468 803 q 492 786 481 786 m 482 814 q 499 828 485 828 q 511 814 514 828 q 494 799 508 799 q 482 814 479 799 m 400 808 q 430 796 419 808 q 438 765 440 783 q 420 733 435 746 q 386 721 406 721 q 357 733 368 721 q 349 765 346 746 q 367 796 351 783 q 400 808 382 808 m 389 738 q 409 746 400 738 q 421 765 418 754 q 415 784 422 776 q 397 792 408 792 q 377 784 386 792 q 367 765 368 776 q 371 746 364 754 q 389 738 378 738 m 379 765 q 394 779 382 779 q 406 775 401 779 q 408 765 410 771 q 390 750 406 750 q 379 765 376 750 m 371 696 q 401 683 390 696 q 408 650 411 669 q 391 619 406 632 q 357 607 376 607 q 327 619 338 607 q 319 650 317 632 q 337 683 322 669 q 371 696 351 696 m 360 624 q 380 631 371 624 q 392 650 389 639 q 386 669 393 661 q 368 678 379 678 q 347 669 357 678 q 336 650 338 661 q 341 631 333 639 q 360 624 349 624 m 349 650 q 365 665 351 665 q 376 661 372 665 q 379 650 381 657 q 361 636 376 636 q 349 650 346 636 m 515 592 q 544 579 533 592 q 553 547 556 567 q 535 515 550 528 q 501 503 519 503 q 472 515 482 503 q 464 547 461 528 q 481 579 467 567 q 515 592 496 592 m 504 519 q 524 528 515 519 q 535 547 532 536 q 531 567 538 558 q 513 575 524 575 q 492 567 501 575 q 481 547 483 558 q 485 528 478 536 q 504 519 493 519 m 493 547 q 511 563 496 563 q 522 547 525 563 q 506 533 519 533 q 493 547 490 533 m 403 594 q 432 582 421 594 q 440 551 443 569 q 422 519 438 532 q 389 507 407 507 q 359 519 369 507 q 351 551 349 532 q 369 582 354 569 q 403 594 383 594 m 392 524 q 412 532 403 524 q 422 551 421 540 q 418 570 425 563 q 400 578 411 578 q 380 570 389 578 q 368 551 371 563 q 374 532 367 540 q 392 524 381 524 m 381 551 q 399 565 383 565 q 410 551 413 565 q 394 536 407 536 q 383 540 388 536 q 381 551 379 544 m 308 515 q 338 502 328 515 q 346 471 349 489 q 328 439 343 451 q 294 426 314 426 q 266 439 276 426 q 258 471 256 451 q 276 502 261 489 q 308 515 290 515 m 297 443 q 317 451 308 443 q 329 471 326 460 q 324 490 332 482 q 306 497 317 497 q 286 490 294 497 q 275 471 278 482 q 279 451 272 460 q 297 443 286 443 m 288 471 q 304 485 290 485 q 317 471 319 485 q 299 456 314 456 q 288 471 285 456 m 260 410 q 288 397 278 410 q 296 364 299 383 q 278 333 293 346 q 246 321 264 321 q 216 333 226 321 q 208 364 206 346 q 226 397 211 383 q 260 410 240 410 m 249 338 q 268 345 260 338 q 279 364 276 353 q 275 383 282 375 q 257 392 268 392 q 237 383 246 392 q 225 364 228 375 q 230 345 222 353 q 249 338 238 338 m 238 364 q 256 379 240 379 q 267 364 269 379 q 250 350 264 350 q 238 364 235 350 m 561 229 q 591 217 581 229 q 599 185 601 204 q 581 153 596 167 q 546 140 565 140 q 518 153 528 140 q 511 185 508 167 q 528 217 514 204 q 561 229 543 229 m 550 158 q 570 166 561 158 q 582 185 579 174 q 576 204 583 196 q 558 213 569 213 q 538 204 547 213 q 528 185 529 196 q 532 166 525 174 q 550 158 539 158 m 540 185 q 556 200 543 200 q 567 196 563 200 q 569 185 571 192 q 551 171 567 171 q 540 185 538 171 m 456 215 q 485 202 474 215 q 493 171 496 189 q 475 139 490 151 q 442 126 460 126 q 412 139 422 126 q 404 171 401 151 q 422 202 407 189 q 456 215 436 215 m 444 143 q 464 151 456 143 q 475 171 472 160 q 471 190 478 182 q 453 199 464 199 q 433 190 442 199 q 421 171 424 182 q 426 151 418 160 q 444 143 433 143 m 433 171 q 451 185 436 185 q 463 171 465 185 q 446 156 460 156 q 433 171 431 156 m 356 236 q 386 224 375 236 q 394 193 397 211 q 376 161 392 174 q 342 149 361 149 q 314 161 324 149 q 307 193 304 174 q 324 224 310 211 q 356 236 338 236 m 344 165 q 365 174 356 165 q 378 193 375 182 q 354 219 381 219 q 334 212 343 219 q 324 193 325 204 q 327 174 321 182 q 344 165 333 165 m 336 193 q 351 207 336 207 q 365 193 365 207 q 347 178 363 178 q 336 193 333 178 m 285 310 q 315 297 304 310 q 322 265 325 283 q 305 234 319 247 q 271 221 290 221 q 241 234 251 221 q 233 265 231 247 q 251 297 236 283 q 285 310 265 310 m 274 239 q 293 247 285 239 q 304 265 301 254 q 299 284 306 276 q 282 292 293 292 q 261 284 271 292 q 250 265 251 276 q 255 247 247 254 q 274 239 263 239 m 263 265 q 279 279 265 279 q 292 265 294 279 q 275 251 289 251 q 263 265 260 251 z "},"9":{"ha":789,"x_min":68,"x_max":871,"o":"m 571 750 q 642 719 615 750 q 663 642 669 688 l 644 533 l 482 533 q 409 565 435 533 q 390 642 383 597 q 433 719 397 688 q 517 750 469 750 l 571 750 m 553 569 q 538 629 560 606 q 483 653 515 653 l 429 653 l 428 642 q 440 592 424 614 q 488 569 457 569 l 553 569 m 603 950 q 719 926 667 950 q 806 860 771 901 q 856 762 840 818 q 861 642 871 706 l 818 369 q 749 211 803 282 q 619 101 694 140 l 603 88 q 498 24 556 47 q 381 0 440 0 l 322 0 q 222 21 268 0 q 141 79 175 42 q 88 168 107 117 q 68 279 68 219 l 144 344 q 144 363 142 349 l 169 363 q 120 456 132 407 q 118 565 108 506 q 160 682 128 625 q 243 782 192 739 l 258 797 q 381 906 307 863 q 549 950 456 950 l 603 950 m 825 642 q 820 747 833 697 q 776 833 807 796 q 699 891 744 869 q 597 913 653 913 l 543 913 q 426 889 481 913 q 331 826 372 865 q 262 738 289 788 q 227 636 235 689 q 233 532 219 583 q 288 439 247 481 q 363 386 322 403 q 457 369 403 369 l 619 369 q 603 328 615 349 q 574 294 592 308 q 536 270 557 279 q 493 261 515 261 l 435 261 q 408 266 419 261 q 388 279 397 271 q 372 298 378 288 q 372 319 367 308 q 369 326 379 326 l 344 326 l 178 326 q 196 236 178 278 q 244 164 214 194 q 317 116 275 133 q 410 99 360 99 l 468 99 q 576 120 524 99 q 672 178 629 142 q 744 265 714 215 q 782 369 774 314 l 825 642 m 699 843 q 729 831 718 843 q 738 799 740 818 q 719 766 735 779 q 683 753 703 753 q 654 766 664 753 q 647 799 644 779 q 665 831 650 818 q 699 843 679 843 m 686 771 q 707 779 697 771 q 719 799 717 788 q 714 818 721 810 q 696 826 707 826 q 675 818 685 826 q 664 799 665 810 q 668 779 661 788 q 686 771 675 771 m 676 799 q 693 814 679 814 q 704 810 700 814 q 707 799 708 806 q 689 783 704 783 q 676 799 674 783 m 601 886 q 631 873 621 886 q 638 840 640 860 q 620 808 635 821 q 586 796 606 796 q 556 808 567 796 q 549 840 546 821 q 567 873 551 860 q 601 886 582 886 m 589 813 q 610 821 600 813 q 621 840 619 829 q 616 860 624 851 q 597 868 608 868 q 577 860 586 868 q 565 840 568 851 q 571 821 564 829 q 589 813 578 813 m 578 840 q 596 856 581 856 q 608 840 611 856 q 592 825 606 825 q 581 829 585 825 q 578 840 576 833 m 479 871 q 510 858 499 871 q 518 825 521 844 q 500 794 515 807 q 465 781 485 781 q 435 794 446 781 q 428 825 425 807 q 445 858 431 844 q 479 871 460 871 m 467 797 q 488 806 478 797 q 500 825 497 814 q 494 844 501 836 q 476 853 488 853 q 456 844 465 853 q 444 825 446 836 q 449 806 442 814 q 467 797 456 797 m 458 825 q 474 840 461 840 q 485 836 481 840 q 488 825 489 832 q 469 811 485 811 q 458 825 456 811 m 376 796 q 407 783 396 796 q 415 750 418 769 q 397 718 413 731 q 363 706 382 706 q 333 718 343 706 q 325 750 322 731 q 342 783 328 769 q 376 796 357 796 m 365 722 q 385 731 376 722 q 397 750 394 739 q 392 769 400 761 q 374 778 385 778 q 353 769 363 778 q 342 750 344 761 q 347 731 339 739 q 365 722 354 722 m 356 750 q 372 765 358 765 q 385 750 388 765 q 367 736 382 736 q 356 750 353 736 m 317 693 q 346 680 336 693 q 353 647 356 667 q 335 616 350 629 q 301 603 321 603 q 271 616 282 603 q 263 647 260 629 q 281 680 265 667 q 317 693 297 693 m 304 621 q 325 628 315 621 q 336 647 335 636 q 331 667 339 658 q 313 675 324 675 q 292 667 301 675 q 281 647 283 658 q 304 621 278 621 m 293 647 q 311 663 296 663 q 322 647 325 663 q 307 633 319 633 q 296 637 300 633 q 293 647 292 640 m 331 590 q 360 577 349 590 q 368 544 371 564 q 350 513 365 525 q 317 500 335 500 q 286 513 297 500 q 278 544 275 525 q 296 577 281 564 q 331 590 311 590 m 318 517 q 338 525 329 517 q 350 544 347 533 q 345 564 351 556 q 328 572 339 572 q 307 564 317 572 q 296 544 297 556 q 300 525 293 533 q 318 517 307 517 m 308 544 q 325 560 311 560 q 338 544 340 560 q 321 529 335 529 q 308 544 306 529 m 397 513 q 427 500 417 513 q 435 468 438 488 q 417 435 432 449 q 383 422 403 422 q 353 435 364 422 q 346 468 343 449 q 363 500 349 488 q 397 513 378 513 m 386 440 q 406 449 397 440 q 418 468 415 457 q 413 488 421 479 q 394 496 406 496 q 374 488 383 496 q 363 468 365 479 q 367 449 360 457 q 386 440 375 440 m 375 468 q 392 482 378 482 q 403 478 399 482 q 406 468 407 475 q 388 453 403 453 q 375 468 372 453 m 614 494 q 644 482 633 494 q 651 450 654 469 q 634 417 649 431 q 600 404 619 404 q 569 417 581 404 q 561 450 558 431 q 579 482 564 469 q 614 494 594 494 m 603 422 q 623 431 614 422 q 635 450 632 439 q 630 469 638 461 q 611 478 622 478 q 591 469 600 478 q 579 450 582 461 q 584 431 576 439 q 603 422 592 422 m 592 450 q 608 464 594 464 q 619 460 615 464 q 622 450 624 457 q 604 435 619 435 q 592 450 589 435 m 504 494 q 535 482 524 494 q 543 450 546 469 q 525 417 540 431 q 490 404 510 404 q 461 417 472 404 q 453 450 450 431 q 471 482 456 469 q 504 494 486 494 m 493 422 q 513 431 504 422 q 525 450 522 439 q 520 469 528 461 q 501 478 513 478 q 482 469 490 478 q 471 450 474 461 q 475 431 468 439 q 493 422 482 422 m 483 450 q 499 464 486 464 q 510 460 506 464 q 513 450 514 457 q 494 435 510 435 q 483 450 481 435 m 750 760 q 780 747 769 760 q 788 714 790 733 q 770 682 785 694 q 736 669 756 669 q 706 682 717 669 q 699 714 696 694 q 716 747 701 733 q 750 760 731 760 m 739 686 q 759 694 750 686 q 771 714 768 703 q 766 733 774 725 q 747 742 758 742 q 727 733 736 742 q 715 714 718 725 q 720 694 713 703 q 739 686 728 686 m 728 714 q 746 729 731 729 q 758 714 761 729 q 740 699 756 699 q 728 714 725 699 m 751 650 q 781 638 771 650 q 789 606 792 625 q 771 573 786 586 q 736 560 756 560 q 706 573 717 560 q 699 606 696 586 q 717 638 701 625 q 751 650 732 650 m 739 578 q 760 586 750 578 q 772 606 769 594 q 767 625 774 617 q 749 633 760 633 q 728 625 738 633 q 717 606 718 617 q 721 586 714 594 q 739 578 728 578 m 729 606 q 746 619 732 619 q 757 616 753 619 q 760 606 761 613 q 742 590 757 590 q 729 606 726 590 m 731 540 q 760 527 749 540 q 768 494 771 514 q 750 463 765 475 q 717 450 735 450 q 686 463 697 450 q 678 494 675 475 q 696 527 681 514 q 731 540 711 540 m 719 467 q 739 475 731 467 q 750 494 747 483 q 746 514 753 506 q 728 522 739 522 q 707 514 717 522 q 694 494 697 506 q 700 475 692 483 q 719 467 708 467 m 708 494 q 726 510 711 510 q 738 494 740 510 q 721 481 735 481 q 708 494 706 481 m 706 418 q 736 405 725 418 q 744 372 747 392 q 726 340 742 353 q 692 328 711 328 q 662 340 672 328 q 654 372 651 353 q 672 405 657 392 q 706 418 686 418 m 694 344 q 715 353 706 344 q 726 372 724 361 q 722 392 729 383 q 703 400 714 400 q 683 392 692 400 q 671 372 674 383 q 676 353 668 361 q 694 344 683 344 m 685 372 q 701 388 688 388 q 714 372 717 388 q 696 357 711 357 q 685 372 682 357 m 657 311 q 688 299 676 311 q 696 267 699 286 q 678 234 693 247 q 643 221 663 221 q 614 234 625 221 q 606 267 603 247 q 624 299 608 286 q 657 311 639 311 m 646 239 q 666 247 657 239 q 678 267 675 256 q 673 286 681 278 q 654 294 665 294 q 634 286 643 294 q 622 267 625 278 q 627 247 619 256 q 646 239 635 239 m 636 267 q 651 281 639 281 q 663 277 658 281 q 665 267 667 274 q 647 251 663 251 q 636 267 633 251 m 572 229 q 601 217 590 229 q 610 185 613 204 q 591 152 607 165 q 557 139 575 139 q 527 152 538 139 q 519 185 517 165 q 538 217 522 204 q 572 229 553 229 m 560 157 q 580 165 571 157 q 592 185 589 174 q 587 204 593 196 q 569 213 581 213 q 549 204 558 213 q 538 185 539 196 q 542 165 535 174 q 560 157 549 157 m 550 185 q 567 200 553 200 q 579 185 582 200 q 563 169 576 169 q 550 185 547 169 m 464 215 q 494 202 483 215 q 501 169 504 189 q 484 138 499 150 q 450 125 469 125 q 419 138 431 125 q 411 169 408 150 q 429 202 414 189 q 464 215 444 215 m 453 142 q 473 150 464 142 q 485 169 482 158 q 480 189 488 181 q 461 197 472 197 q 441 189 450 197 q 429 169 432 181 q 434 150 426 158 q 453 142 442 142 m 442 169 q 460 185 444 185 q 472 169 475 185 q 454 156 469 156 q 442 169 439 156 m 364 238 q 394 224 383 238 q 401 193 404 211 q 383 160 399 174 q 349 147 368 147 q 319 160 329 147 q 311 193 308 174 q 329 224 314 211 q 364 238 344 238 m 351 165 q 372 174 363 165 q 385 193 382 182 q 361 219 388 219 q 340 212 350 219 q 329 193 331 204 q 333 174 326 182 q 351 165 340 165 m 342 193 q 347 203 342 199 q 358 207 351 207 q 372 193 372 207 q 354 178 368 178 q 343 182 347 178 q 342 193 339 186 m 289 311 q 319 299 308 311 q 328 267 331 286 q 310 234 325 247 q 275 221 294 221 q 245 234 256 221 q 238 267 235 247 q 255 299 240 286 q 289 311 269 311 m 278 239 q 298 247 289 239 q 310 267 307 256 q 305 286 313 278 q 286 294 297 294 q 266 286 275 294 q 254 267 257 278 q 259 247 251 256 q 278 239 267 239 m 268 267 q 283 281 271 281 q 294 277 290 281 q 297 267 299 274 q 279 251 294 251 q 268 267 265 251 z "},"\u0000":{"ha":0,"x_min":0,"x_max":0,"o":""},"\r":{"ha":374,"x_min":0,"x_max":0,"o":""}," ":{"ha":374,"x_min":0,"x_max":0,"o":""},"!":{"ha":411,"x_min":44,"x_max":531,"o":"m 407 285 l 365 242 q 374 213 372 228 q 374 178 376 197 q 340 105 367 135 q 278 64 314 75 l 236 32 q 200 10 221 19 q 157 0 179 0 q 89 31 114 0 q 71 107 64 61 q 84 147 74 129 q 110 178 94 165 l 156 214 q 158 221 156 217 q 160 228 160 225 l 44 231 q 65 251 58 242 q 78 273 72 260 q 90 306 83 286 q 110 356 97 325 l 169 736 q 172 786 175 765 q 158 818 168 807 q 165 861 153 849 l 225 910 q 275 949 228 949 l 482 949 q 518 945 507 949 q 530 934 529 942 q 524 914 531 926 q 506 885 517 901 q 486 857 494 878 q 474 807 478 836 l 413 426 q 440 285 403 364 l 407 285 m 242 96 q 305 119 278 96 q 338 178 332 143 q 324 233 343 210 q 268 256 304 256 q 210 233 236 256 q 178 178 183 210 q 191 119 172 143 q 242 96 210 96 m 386 328 q 376 426 364 354 l 386 488 l 411 647 l 419 700 l 429 754 l 438 807 q 476 903 447 881 q 476 914 485 914 l 454 914 l 401 914 l 269 914 q 264 903 260 914 q 278 807 289 882 l 217 426 q 174 328 204 353 q 175 321 164 321 l 382 321 q 386 328 390 321 m 257 133 q 227 146 238 133 q 219 178 217 158 q 237 210 222 197 q 271 222 251 222 q 300 210 289 222 q 308 178 311 197 q 290 146 306 158 q 257 133 275 133 m 268 206 q 248 197 257 206 q 236 178 239 189 q 241 158 233 167 q 260 150 249 150 q 279 158 271 150 q 290 178 288 167 q 286 197 293 189 q 268 206 279 206 m 278 178 q 261 163 275 163 q 249 178 246 163 q 267 193 251 193 q 278 178 281 193 m 293 363 q 263 375 274 363 q 256 407 253 388 q 273 439 258 426 q 307 451 288 451 q 336 439 325 451 q 344 407 347 426 q 326 375 342 388 q 293 363 311 363 m 304 435 q 284 426 293 435 q 272 407 275 418 q 277 388 269 396 q 296 379 285 379 q 315 388 307 379 q 326 407 324 396 q 322 426 329 418 q 304 435 315 435 m 314 407 q 297 392 311 392 q 285 407 282 392 q 303 422 288 422 q 314 407 317 422 m 310 471 q 280 483 290 471 q 272 515 269 496 q 290 547 275 533 q 324 560 304 560 q 353 547 342 560 q 361 515 364 533 q 343 483 358 496 q 310 471 328 471 m 321 542 q 301 534 310 542 q 289 515 292 526 q 294 496 288 504 q 313 488 301 488 q 333 496 324 488 q 343 515 342 504 q 339 534 346 526 q 321 542 332 542 m 331 515 q 315 500 328 500 q 304 504 308 500 q 301 515 300 508 q 319 529 304 529 q 331 515 333 529 m 328 581 q 299 593 310 581 q 290 625 288 606 q 308 656 293 643 q 342 669 324 669 q 372 656 361 669 q 379 625 382 643 q 362 593 376 606 q 328 581 347 581 m 339 651 q 319 644 328 651 q 308 625 311 636 q 313 606 306 614 q 331 597 319 597 q 351 606 342 597 q 363 625 360 614 q 358 644 365 636 q 339 651 350 651 m 350 625 q 332 610 347 610 q 321 625 318 610 q 336 639 324 639 q 347 635 343 639 q 350 625 351 631 m 344 688 q 315 701 325 688 q 307 732 304 714 q 324 764 310 751 q 358 776 339 776 q 388 764 376 776 q 396 732 399 751 q 378 701 393 714 q 344 688 363 688 m 356 760 q 335 751 344 760 q 324 732 326 743 q 328 713 321 721 q 347 706 336 706 q 367 713 358 706 q 378 732 375 721 q 374 751 381 743 q 356 760 367 760 m 365 732 q 349 718 363 718 q 336 732 333 718 q 354 747 339 747 q 365 732 368 747 m 361 796 q 332 809 343 796 q 324 840 321 822 q 342 872 326 860 q 375 885 357 885 q 405 872 394 885 q 413 840 415 860 q 395 809 410 822 q 361 796 381 796 m 372 868 q 353 860 361 868 q 342 840 344 851 q 347 822 340 829 q 364 814 353 814 q 385 822 375 814 q 396 840 394 829 q 391 860 399 851 q 372 868 383 868 m 383 840 q 378 831 383 835 q 367 826 374 826 q 354 840 354 826 q 371 856 357 856 q 383 840 386 856 z "},"?":{"ha":781,"x_min":100,"x_max":881,"o":"m 638 946 q 743 924 696 946 q 822 866 790 903 q 867 779 853 829 q 871 672 881 729 q 811 533 858 594 q 696 435 764 471 l 675 419 q 569 356 629 375 l 572 351 q 569 300 585 315 q 533 285 554 285 l 504 260 q 526 178 533 226 q 494 108 519 138 q 435 68 469 79 l 390 29 q 315 0 357 0 q 244 31 269 0 q 225 107 218 61 q 264 178 231 150 l 310 214 q 312 221 310 217 q 314 228 314 225 l 181 231 l 213 256 q 232 275 224 267 q 247 292 240 283 l 236 292 q 248 302 243 297 q 260 310 253 307 q 265 320 264 315 q 267 331 265 325 q 304 416 279 374 q 363 488 329 458 l 388 504 q 465 586 418 553 q 569 625 511 619 q 553 645 567 636 q 521 654 540 654 l 435 654 q 435 645 433 649 q 436 636 438 642 l 411 636 l 342 576 l 100 576 q 142 694 111 640 q 218 789 172 749 l 247 811 q 358 909 294 872 q 492 946 422 946 l 638 946 m 400 96 q 459 119 432 96 q 492 178 486 143 q 478 233 497 210 q 426 256 458 256 q 364 233 390 256 q 332 178 338 210 q 345 119 326 143 q 400 96 364 96 m 585 435 q 673 460 631 440 q 749 512 715 481 q 806 584 783 543 q 836 672 829 625 q 832 764 844 721 q 792 840 819 807 q 724 891 765 872 q 632 910 682 910 l 579 910 l 561 910 l 507 910 l 486 910 q 390 891 436 910 q 307 840 344 872 q 244 764 269 807 q 211 672 219 721 l 371 672 l 392 672 q 397 679 400 672 q 403 719 390 701 q 428 743 417 738 q 445 749 438 749 q 461 750 453 750 l 493 750 l 536 750 l 554 750 l 607 750 q 662 727 642 750 q 676 672 682 704 q 644 613 671 636 q 582 590 617 590 q 510 574 543 590 q 449 530 476 557 q 403 469 422 503 q 374 399 383 435 q 357 360 368 376 q 328 328 346 343 q 325 322 324 325 q 329 319 326 319 l 535 319 q 540 331 543 319 q 532 388 521 347 q 538 399 532 394 q 555 423 544 414 q 585 435 565 432 m 322 704 q 292 717 303 704 q 285 747 282 729 q 302 779 288 767 q 336 792 317 792 q 365 779 354 792 q 372 747 375 767 q 355 717 369 729 q 322 704 340 704 m 333 775 q 313 767 322 775 q 301 747 303 758 q 306 728 299 736 q 325 721 314 721 q 344 728 336 721 q 356 747 353 736 q 351 767 357 758 q 333 775 344 775 m 343 747 q 326 733 340 733 q 314 747 311 733 q 331 763 317 763 q 340 758 336 763 q 343 747 344 754 m 401 776 q 372 789 383 776 q 364 821 361 801 q 382 851 367 839 q 415 864 397 864 q 445 851 435 864 q 453 821 456 839 q 435 789 450 801 q 401 776 421 776 m 413 847 q 392 840 401 847 q 381 821 383 832 q 385 801 378 810 q 404 793 393 793 q 424 801 415 793 q 435 821 432 810 q 413 847 439 847 m 422 821 q 406 806 419 806 q 394 821 392 806 q 411 835 397 835 q 422 821 425 835 m 506 785 q 475 798 486 785 q 467 829 464 811 q 485 860 469 847 q 519 874 500 874 q 548 860 538 874 q 556 829 558 847 q 538 798 553 811 q 506 785 524 785 m 517 857 q 497 849 506 857 q 485 829 488 840 q 490 810 482 818 q 508 803 497 803 q 528 810 519 803 q 539 829 536 818 q 535 849 542 840 q 517 857 528 857 m 526 829 q 510 815 524 815 q 497 829 494 815 q 515 843 500 843 q 526 829 529 843 m 625 785 q 596 798 607 785 q 588 829 585 811 q 606 860 590 847 q 639 874 621 874 q 669 860 658 874 q 676 829 679 847 q 659 798 674 811 q 625 785 644 785 m 636 857 q 617 849 625 857 q 606 829 608 840 q 628 803 601 803 q 648 810 639 803 q 660 829 657 818 q 655 849 663 840 q 636 857 647 857 m 647 829 q 629 815 644 815 q 618 829 615 815 q 635 843 621 843 q 647 829 650 843 m 717 732 q 688 744 699 732 q 679 776 676 757 q 697 808 682 794 q 731 821 713 821 q 760 808 750 821 q 768 776 771 794 q 751 744 765 757 q 717 732 736 732 m 728 803 q 708 795 717 803 q 697 776 700 788 q 701 757 694 765 q 719 749 708 749 q 740 757 731 749 q 751 776 749 765 q 747 795 754 788 q 728 803 739 803 m 738 776 q 721 761 735 761 q 710 776 707 761 q 726 790 713 790 q 738 776 740 790 m 760 638 q 731 651 742 638 q 722 682 719 664 q 740 714 725 701 q 774 726 756 726 q 803 714 793 726 q 811 682 814 701 q 794 651 808 664 q 760 638 779 638 m 771 710 q 751 701 760 710 q 740 682 743 693 q 745 663 739 671 q 763 656 751 656 q 783 663 774 656 q 794 682 793 671 q 790 701 797 693 q 771 710 782 710 m 782 682 q 765 668 779 668 q 756 672 760 668 q 753 682 751 676 q 769 697 756 697 q 782 682 785 697 m 715 539 q 687 552 697 539 q 679 585 676 565 q 697 615 682 603 q 729 628 711 628 q 759 615 749 628 q 767 585 769 603 q 749 552 764 565 q 715 539 735 539 m 726 611 q 707 603 715 611 q 696 585 699 596 q 700 565 693 574 q 718 557 707 557 q 738 565 729 557 q 750 585 747 574 q 745 603 753 596 q 726 611 738 611 m 738 585 q 719 569 735 569 q 708 585 706 569 q 725 599 711 599 q 738 585 740 599 m 621 481 q 592 494 603 481 q 583 525 581 507 q 601 557 586 544 q 635 569 617 569 q 665 557 654 569 q 672 525 675 544 q 655 494 669 507 q 621 481 640 481 m 632 551 q 613 544 621 551 q 601 525 604 536 q 606 506 600 514 q 624 499 613 499 q 644 506 635 499 q 656 525 654 514 q 651 544 658 536 q 632 551 643 551 m 643 525 q 626 511 640 511 q 614 525 611 511 q 631 539 617 539 q 643 525 646 539 m 511 451 q 481 464 492 451 q 474 496 471 476 q 491 526 476 514 q 525 539 506 539 q 554 526 543 539 q 563 496 565 514 q 544 464 560 476 q 511 451 529 451 m 522 522 q 502 515 511 522 q 490 496 493 507 q 495 476 488 485 q 514 468 503 468 q 533 476 525 468 q 544 496 542 485 q 540 515 547 507 q 522 522 533 522 m 532 496 q 515 481 529 481 q 503 496 500 481 q 521 510 506 510 q 532 496 535 510 m 451 351 q 422 364 432 351 q 414 396 411 376 q 431 428 417 415 q 465 440 446 440 q 494 428 483 440 q 503 396 506 415 q 485 364 500 376 q 451 351 469 351 m 463 424 q 442 415 451 424 q 431 396 432 407 q 435 377 428 385 q 454 369 443 369 q 485 396 481 369 q 480 415 486 407 q 463 424 474 424 m 472 396 q 456 382 469 382 q 444 396 442 382 q 460 411 447 411 q 472 396 475 411 m 415 131 q 385 143 396 131 q 378 175 375 156 q 396 207 381 194 q 431 219 411 219 q 459 207 449 219 q 467 175 469 194 q 449 143 464 156 q 415 131 433 131 m 428 203 q 407 194 417 203 q 394 175 397 186 q 400 156 393 164 q 418 149 407 149 q 438 156 429 149 q 449 175 447 164 q 445 194 451 186 q 428 203 439 203 m 436 175 q 421 161 436 161 q 408 175 408 161 q 425 190 411 190 q 436 175 439 190 z "},".":{"ha":360,"x_min":39,"x_max":357,"o":"m 349 175 q 317 108 343 136 q 257 68 292 81 l 217 32 q 180 9 201 18 q 133 0 158 0 q 65 30 92 0 q 46 103 39 60 q 63 147 50 126 q 90 182 75 168 l 132 217 q 183 272 151 251 q 251 292 214 292 q 329 258 301 292 q 349 175 357 225 m 219 96 q 282 119 254 96 q 314 175 310 143 q 301 233 321 210 q 246 256 281 256 q 187 233 214 256 q 153 175 160 210 q 168 119 149 143 q 219 96 188 96 m 225 138 q 195 151 206 138 q 188 182 185 164 q 205 214 190 201 q 239 226 219 226 q 267 214 257 226 q 275 182 278 201 q 258 151 272 164 q 225 138 243 138 m 236 210 q 216 201 225 210 q 204 182 207 193 q 228 156 201 156 q 248 163 239 156 q 258 182 257 171 q 254 201 261 193 q 236 210 247 210 m 246 182 q 231 168 243 168 q 219 172 224 168 q 217 182 215 176 q 235 197 219 197 q 246 182 249 197 z "},",":{"ha":350,"x_min":49,"x_max":357,"o":"m 64 -12 q 76 13 75 -1 q 63 51 76 28 q 50 88 51 68 q 53 127 49 107 q 70 165 58 147 q 97 197 82 183 l 139 233 q 172 278 150 260 q 224 304 193 297 q 283 301 256 311 q 327 271 310 292 q 351 222 344 250 q 347 165 357 194 q 298 65 331 108 q 199 -17 265 21 l 169 -40 q 136 -65 154 -54 q 96 -87 118 -76 q 51 -65 75 -82 l 56 -19 l 64 -12 m 229 268 q 190 247 207 263 q 165 213 174 232 q 157 173 157 193 q 169 136 157 153 q 181 76 189 100 q 153 33 172 53 q 153 26 149 31 q 182 13 164 17 q 265 80 236 40 q 313 172 293 119 q 317 213 321 193 q 301 247 313 233 q 270 267 289 261 q 229 268 251 274 m 226 140 q 197 153 207 140 q 190 185 188 167 q 208 217 193 204 q 242 229 222 229 q 272 217 261 229 q 279 185 282 204 q 261 153 276 167 q 226 140 246 140 m 239 213 q 219 204 228 213 q 208 185 210 196 q 213 166 206 174 q 231 158 219 158 q 251 166 242 158 q 263 185 260 174 q 257 204 264 196 q 239 213 250 213 m 250 185 q 232 171 247 171 q 221 185 218 171 q 236 200 224 200 q 247 196 243 200 q 250 185 251 192 z "},":":{"ha":349,"x_min":39,"x_max":456,"o":"m 349 175 q 317 108 343 136 q 257 68 292 81 l 217 32 q 180 9 201 18 q 133 0 158 0 q 65 30 92 0 q 46 103 39 60 q 63 147 50 126 q 90 182 75 168 l 132 217 q 183 272 151 251 q 251 292 214 292 q 329 258 301 292 q 349 175 357 225 m 219 96 q 282 119 254 96 q 314 175 310 143 q 301 233 321 210 q 246 256 281 256 q 187 233 214 256 q 153 175 160 210 q 168 119 149 143 q 219 96 188 96 m 225 138 q 195 151 206 138 q 188 182 185 164 q 205 214 190 201 q 239 226 219 226 q 267 214 257 226 q 275 182 278 201 q 258 151 272 164 q 225 138 243 138 m 236 210 q 216 201 225 210 q 204 182 207 193 q 228 156 201 156 q 248 163 239 156 q 258 182 257 171 q 254 201 261 193 q 236 210 247 210 m 246 182 q 231 168 243 168 q 219 172 224 168 q 217 182 215 176 q 235 197 219 197 q 246 182 249 197 m 447 815 q 416 749 442 776 q 356 708 390 721 l 315 672 q 278 649 300 658 q 232 640 257 640 q 164 670 190 640 q 144 743 138 700 q 161 788 149 767 q 189 822 174 808 l 231 857 q 281 912 250 892 q 350 932 313 932 q 428 899 400 932 q 447 815 456 865 m 318 736 q 381 760 353 736 q 413 815 408 783 q 399 873 419 850 q 344 896 379 896 q 285 873 313 896 q 251 815 258 850 q 267 760 247 783 q 318 736 286 736 m 324 778 q 294 791 304 778 q 286 822 283 804 q 303 854 289 842 q 338 867 318 867 q 366 854 356 867 q 374 822 376 842 q 356 791 371 804 q 324 778 342 778 m 335 850 q 315 842 324 850 q 303 822 306 833 q 326 796 300 796 q 347 803 338 796 q 357 822 356 811 q 353 842 360 833 q 335 850 346 850 m 344 822 q 329 808 342 808 q 318 813 322 808 q 315 822 314 817 q 333 838 318 838 q 344 822 347 838 z "},"A":{"ha":768,"x_min":15,"x_max":804,"o":"m 738 949 q 785 933 786 949 q 760 879 785 918 q 748 854 749 871 q 750 818 747 838 q 770 745 758 785 q 788 674 782 706 q 801 574 797 626 q 796 467 804 521 l 754 206 q 747 158 749 175 q 750 138 744 140 l 750 140 q 767 117 764 131 q 763 92 769 104 q 744 70 757 79 q 715 61 732 61 l 658 10 q 635 0 650 0 l 429 0 q 401 20 407 0 q 415 54 396 40 l 428 64 q 437 93 432 75 q 446 133 442 111 l 458 217 l 375 217 l 374 206 q 374 138 365 149 q 387 94 397 118 q 346 61 376 69 l 289 10 q 254 0 278 0 l 49 0 q 21 20 26 0 q 35 54 15 40 l 47 64 q 57 93 53 75 q 65 133 61 111 l 106 394 q 134 498 114 446 q 179 597 154 550 q 223 669 199 629 q 263 742 247 710 l 268 746 q 277 786 276 769 q 274 811 278 803 q 278 858 263 840 l 342 913 q 356 938 344 928 q 390 949 368 949 l 738 949 m 733 901 q 732 913 742 913 l 385 913 q 378 901 375 913 q 371 803 397 879 l 286 658 q 241 563 258 610 q 217 467 224 515 l 201 369 l 175 206 q 133 108 163 129 q 128 101 126 106 q 136 97 131 97 l 343 97 q 350 101 349 97 q 347 108 351 106 q 334 144 338 119 q 338 206 331 168 l 354 314 l 571 314 l 554 206 q 514 108 542 128 q 508 101 507 106 q 517 97 510 97 l 722 97 q 731 101 729 97 q 728 108 732 106 q 718 206 706 128 l 744 369 l 760 467 q 764 563 767 515 q 750 658 761 610 l 711 803 q 733 901 707 878 m 590 593 q 599 536 597 565 q 597 478 600 507 l 381 478 q 398 536 388 507 q 424 593 408 565 l 538 785 l 590 593 m 481 514 q 470 553 475 536 q 458 586 465 569 l 456 579 q 438 547 446 565 q 426 514 431 529 l 481 514 m 618 138 q 588 151 599 138 q 581 182 578 164 q 598 215 583 201 q 632 228 613 228 q 663 215 651 228 q 671 182 674 201 q 653 151 668 164 q 618 138 638 138 m 629 210 q 609 201 618 210 q 597 182 600 193 q 603 163 596 171 q 621 154 610 154 q 642 163 632 154 q 653 182 651 171 q 648 201 656 193 q 629 210 640 210 m 640 182 q 624 168 638 168 q 611 182 608 168 q 628 197 614 197 q 640 182 643 197 m 636 254 q 607 267 617 254 q 600 300 597 281 q 617 332 603 319 q 651 344 632 344 q 682 332 671 344 q 690 300 693 319 q 672 267 688 281 q 636 254 656 254 m 649 328 q 628 319 638 328 q 617 300 618 311 q 622 281 614 289 q 640 272 629 272 q 660 281 651 272 q 672 300 669 289 q 667 319 674 311 q 649 328 660 328 m 660 300 q 642 285 657 285 q 631 300 628 285 q 646 314 633 314 q 657 310 653 314 q 660 300 661 307 m 647 364 q 617 376 628 364 q 610 408 607 389 q 627 441 613 428 q 661 454 642 454 q 691 441 681 454 q 699 408 701 428 q 681 376 696 389 q 647 364 667 364 m 658 436 q 638 428 647 436 q 626 408 629 419 q 631 389 624 397 q 650 381 639 381 q 670 389 661 381 q 682 408 679 397 q 677 428 685 419 q 658 436 669 436 m 669 408 q 651 393 667 393 q 640 408 638 393 q 657 424 643 424 q 669 408 672 424 m 665 478 q 635 490 646 478 q 628 522 625 503 q 645 555 631 542 q 679 568 660 568 q 709 555 699 568 q 717 522 719 542 q 699 490 714 503 q 665 478 685 478 m 676 550 q 656 542 665 550 q 644 522 647 533 q 649 503 642 511 q 668 494 657 494 q 688 503 679 494 q 700 522 697 511 q 695 542 703 533 q 676 550 688 550 m 688 522 q 669 508 685 508 q 658 522 656 508 q 675 538 661 538 q 688 522 690 538 m 658 589 q 629 602 640 589 q 621 633 618 615 q 639 666 624 653 q 672 679 654 679 q 703 666 692 679 q 711 633 714 653 q 693 602 708 615 q 658 589 678 589 m 669 661 q 649 653 658 661 q 638 633 639 644 q 642 615 635 622 q 661 607 650 607 q 681 615 672 607 q 693 633 690 622 q 688 653 694 644 q 669 661 681 661 m 681 633 q 663 619 678 619 q 651 633 649 619 q 667 649 654 649 q 678 644 674 649 q 681 633 682 640 m 635 699 q 605 712 615 699 q 597 744 594 725 q 615 776 600 763 q 649 789 629 789 q 679 776 668 789 q 688 744 690 763 q 669 712 685 725 q 635 699 654 699 m 647 772 q 626 764 636 772 q 614 744 617 756 q 619 725 613 733 q 638 717 626 717 q 658 725 649 717 q 669 744 668 733 q 665 764 672 756 q 647 772 658 772 m 657 744 q 640 729 654 729 q 629 733 633 729 q 626 744 625 738 q 644 758 629 758 q 657 744 660 758 m 617 803 q 586 815 597 803 q 578 847 575 828 q 596 879 581 867 q 631 892 611 892 q 660 879 650 892 q 668 847 671 867 q 651 815 665 828 q 617 803 636 803 m 628 875 q 608 867 617 875 q 596 847 599 858 q 601 828 593 836 q 619 819 608 819 q 640 828 631 819 q 651 847 649 836 q 647 867 654 858 q 628 875 639 875 m 638 847 q 621 832 635 832 q 608 847 606 832 q 626 861 611 861 q 638 847 640 861 m 246 133 q 215 147 226 133 q 206 179 203 160 q 224 211 208 199 q 260 224 240 224 q 290 211 279 224 q 299 179 301 199 q 281 147 296 160 q 246 133 265 133 m 257 207 q 235 199 244 207 q 224 179 226 190 q 228 160 221 168 q 249 151 236 151 q 269 160 260 151 q 281 179 278 168 q 276 199 283 190 q 257 207 268 207 m 238 179 q 256 194 240 194 q 267 179 269 194 q 250 164 264 164 q 238 179 235 164 m 267 247 q 236 260 247 247 q 228 293 225 274 q 246 324 231 311 q 281 338 261 338 q 312 324 300 338 q 321 293 324 311 q 302 260 318 274 q 267 247 286 247 m 278 321 q 258 313 267 321 q 246 293 249 304 q 251 274 243 282 q 269 265 258 265 q 290 274 281 265 q 303 293 300 282 q 297 313 306 304 q 278 321 289 321 m 258 293 q 276 307 261 307 q 289 293 292 307 q 271 278 286 278 q 258 293 256 278 m 285 360 q 254 373 265 360 q 246 406 243 386 q 264 438 249 425 q 299 450 279 450 q 330 438 318 450 q 339 406 342 425 q 320 373 336 386 q 285 360 304 360 m 296 433 q 275 425 285 433 q 264 406 265 417 q 269 386 261 394 q 288 378 276 378 q 308 386 299 378 q 321 406 318 394 q 315 425 322 417 q 296 433 307 433 m 276 406 q 293 419 279 419 q 304 416 300 419 q 307 406 308 413 q 289 390 304 390 q 276 406 274 390 m 406 360 q 375 373 386 360 q 367 406 364 386 q 385 438 369 425 q 419 450 400 450 q 451 438 439 450 q 460 406 463 425 q 441 373 457 386 q 406 360 425 360 m 417 433 q 396 425 406 433 q 385 406 386 417 q 390 386 382 394 q 408 378 397 378 q 430 386 421 378 q 442 406 439 394 q 436 425 443 417 q 417 433 429 433 m 397 406 q 414 419 400 419 q 428 406 431 419 q 410 390 425 390 q 397 406 394 390 m 528 360 q 497 372 508 360 q 489 404 486 385 q 507 437 492 424 q 542 450 522 450 q 573 437 561 450 q 582 404 585 424 q 563 372 579 385 q 528 360 547 360 m 539 432 q 518 424 528 432 q 507 404 508 415 q 511 385 504 393 q 529 376 518 376 q 551 385 542 376 q 564 404 561 393 q 558 424 565 415 q 539 432 551 432 m 519 404 q 536 419 522 419 q 547 415 543 419 q 550 404 551 411 q 532 389 547 389 q 519 404 517 389 m 308 471 q 278 483 289 471 q 269 515 267 496 q 288 548 272 535 q 322 561 303 561 q 353 548 342 561 q 363 515 365 535 q 344 483 360 496 q 308 471 328 471 m 319 543 q 299 535 308 543 q 288 515 290 526 q 293 496 286 504 q 311 488 300 488 q 333 496 324 488 q 344 515 343 504 q 340 535 347 526 q 319 543 332 543 m 300 515 q 318 531 303 531 q 331 515 333 531 q 314 501 328 501 q 303 505 307 501 q 300 515 299 508 m 339 578 q 309 591 319 578 q 301 624 299 604 q 319 656 304 643 q 354 668 335 668 q 385 656 374 668 q 394 624 397 643 q 375 591 392 604 q 339 578 358 578 m 351 651 q 331 643 340 651 q 319 624 321 635 q 324 604 317 613 q 342 596 331 596 q 364 604 354 596 q 376 624 374 613 q 371 643 378 635 q 351 651 364 651 m 333 624 q 349 639 336 639 q 363 624 365 639 q 344 608 360 608 q 333 624 331 608 m 407 688 q 376 701 388 688 q 368 733 365 714 q 386 765 371 753 q 421 778 401 778 q 451 765 440 778 q 460 733 463 753 q 442 701 457 714 q 407 688 426 688 m 418 761 q 398 753 407 761 q 386 733 389 744 q 391 714 383 722 q 410 706 399 706 q 430 714 421 706 q 442 733 439 722 q 437 753 444 744 q 418 761 429 761 m 399 733 q 417 747 401 747 q 429 733 432 747 q 411 718 426 718 q 399 733 396 718 m 464 792 q 433 804 444 792 q 424 836 421 817 q 442 869 426 856 q 478 882 458 882 q 508 869 497 882 q 517 836 519 856 q 499 804 514 817 q 464 792 483 792 m 475 864 q 453 856 463 864 q 442 836 444 847 q 447 817 439 825 q 467 808 454 808 q 487 817 478 808 q 499 836 496 825 q 494 856 501 847 q 475 864 486 864 m 456 836 q 474 851 458 851 q 486 836 489 851 q 468 822 483 822 q 456 836 453 822 z "},"B":{"ha":749,"x_min":14,"x_max":797,"o":"m 588 693 q 565 654 583 669 q 524 639 546 639 l 415 639 l 433 747 l 542 747 q 577 731 564 747 q 588 693 590 715 m 589 368 q 545 291 582 322 q 464 260 508 260 l 356 260 l 390 476 l 499 476 q 569 444 543 476 q 589 368 596 413 m 397 296 l 469 296 l 481 296 q 465 353 486 328 q 411 379 443 379 l 397 296 m 69 93 l 171 729 q 170 785 176 761 q 149 824 164 810 q 146 838 144 829 q 154 851 147 846 l 217 906 q 230 933 215 919 q 276 946 244 946 l 572 946 q 671 925 628 946 q 742 869 714 904 q 783 789 771 835 q 786 693 794 743 q 769 632 781 665 q 742 574 757 599 q 785 475 774 528 q 788 368 797 422 q 721 211 775 285 q 586 97 667 138 l 574 88 q 473 24 529 49 q 351 0 417 0 l 81 0 l 14 0 l 69 93 m 265 899 q 281 863 276 888 q 279 801 286 839 l 185 206 q 140 106 172 128 q 143 97 132 97 l 168 97 l 439 97 q 555 121 501 97 q 650 183 608 144 q 718 272 692 222 q 752 374 744 321 q 745 478 760 426 q 690 571 731 529 q 746 685 735 625 q 739 794 757 744 q 676 877 721 844 q 567 910 632 910 l 458 910 l 296 910 l 271 910 q 264 906 265 910 q 265 899 263 901 m 254 126 q 224 139 235 126 q 215 171 213 151 q 233 203 218 190 q 268 215 249 215 q 297 203 286 215 q 306 171 308 190 q 288 139 303 151 q 254 126 272 126 m 265 199 q 245 190 254 199 q 233 171 236 182 q 238 151 231 160 q 257 143 246 143 q 276 151 268 143 q 288 171 285 160 q 283 190 290 182 q 265 199 276 199 m 275 171 q 258 156 272 156 q 246 171 243 156 q 264 186 249 186 q 275 171 278 186 m 272 239 q 242 252 253 239 q 233 283 231 265 q 251 316 236 303 q 286 329 267 329 q 315 316 304 329 q 324 283 326 303 q 306 252 321 265 q 272 239 290 239 m 283 311 q 263 303 272 311 q 251 283 254 294 q 256 265 249 272 q 275 257 264 257 q 294 265 286 257 q 306 283 303 272 q 301 303 308 294 q 283 311 294 311 m 293 283 q 276 269 290 269 q 264 283 261 269 q 282 299 267 299 q 293 283 296 299 m 289 347 q 258 360 269 347 q 250 393 247 374 q 268 424 253 411 q 303 438 283 438 q 332 424 321 438 q 340 393 343 411 q 322 360 338 374 q 289 347 307 347 m 300 419 q 280 412 289 419 q 268 393 271 404 q 274 374 267 382 q 292 365 281 365 q 312 374 303 365 q 322 393 321 382 q 300 419 326 419 m 310 393 q 294 378 307 378 q 283 382 288 378 q 281 393 279 386 q 299 407 283 407 q 310 393 313 407 m 307 457 q 276 470 288 457 q 268 503 265 483 q 286 535 271 522 q 321 547 301 547 q 350 535 339 547 q 358 503 361 522 q 340 470 356 483 q 307 457 325 457 m 318 531 q 298 522 307 531 q 286 503 289 514 q 291 483 283 492 q 310 475 299 475 q 329 483 321 475 q 340 503 338 492 q 336 522 343 514 q 318 531 329 531 m 328 503 q 311 488 325 488 q 299 503 296 488 q 315 517 301 517 q 328 503 331 517 m 324 568 q 294 581 304 568 q 288 614 285 594 q 305 646 290 633 q 339 658 319 658 q 369 646 358 658 q 378 614 381 633 q 359 581 375 594 q 324 568 343 568 m 336 642 q 315 633 325 642 q 304 614 306 625 q 308 594 301 603 q 326 586 315 586 q 347 594 338 586 q 360 614 357 603 q 354 633 361 625 q 336 642 347 642 m 347 614 q 329 599 344 599 q 317 614 314 599 q 322 624 317 621 q 333 628 326 628 q 347 614 347 628 m 342 678 q 311 691 322 678 q 303 722 300 704 q 321 755 306 742 q 356 768 336 768 q 385 755 374 768 q 393 722 396 742 q 375 691 390 704 q 342 678 360 678 m 353 750 q 333 742 342 750 q 321 722 324 733 q 326 703 318 711 q 344 696 333 696 q 375 722 371 696 q 371 742 378 733 q 353 750 364 750 m 363 722 q 346 708 360 708 q 333 722 331 708 q 351 738 336 738 q 363 722 365 738 m 358 788 q 329 801 339 788 q 322 833 319 814 q 340 865 325 853 q 374 878 354 878 q 404 865 393 878 q 413 833 415 853 q 394 801 410 814 q 358 788 378 788 m 371 861 q 350 853 360 861 q 339 833 340 844 q 343 814 336 822 q 361 806 350 806 q 382 814 372 806 q 394 833 392 822 q 389 853 396 844 q 371 861 382 861 m 382 833 q 364 818 379 818 q 351 833 349 818 q 356 844 351 840 q 368 847 361 847 q 382 833 382 847 m 460 788 q 431 801 440 788 q 424 833 421 814 q 441 865 426 853 q 475 878 456 878 q 505 865 494 878 q 513 833 515 853 q 494 801 510 814 q 460 788 479 788 m 472 861 q 451 853 461 861 q 440 833 442 844 q 444 814 438 822 q 463 806 451 806 q 483 814 474 806 q 496 833 493 822 q 490 853 497 844 q 472 861 483 861 m 482 833 q 465 818 479 818 q 453 833 450 818 q 458 844 453 840 q 469 847 463 847 q 482 833 482 847 m 564 788 q 534 801 544 788 q 526 832 524 814 q 544 865 529 851 q 579 878 560 878 q 608 865 599 878 q 615 832 618 851 q 598 801 613 814 q 564 788 583 788 m 576 860 q 556 851 565 860 q 543 832 546 843 q 567 806 540 806 q 588 813 578 806 q 599 832 597 821 q 594 851 601 843 q 576 860 588 860 m 586 832 q 581 822 586 826 q 569 818 576 818 q 556 832 556 818 q 574 847 558 847 q 586 832 589 847 m 676 650 q 647 663 657 650 q 639 694 636 675 q 656 726 642 714 q 690 739 671 739 q 720 726 710 739 q 728 694 731 714 q 710 663 725 675 q 676 650 696 650 m 688 722 q 667 714 676 722 q 656 694 657 706 q 660 675 653 683 q 679 667 668 667 q 699 675 690 667 q 711 694 708 683 q 706 714 713 706 q 688 722 699 722 m 699 694 q 681 679 696 679 q 668 694 665 679 q 685 708 671 708 q 696 705 692 708 q 699 694 700 701 m 647 743 q 617 756 628 743 q 608 788 606 768 q 626 819 611 807 q 661 832 642 832 q 691 819 681 832 q 699 788 701 807 q 681 756 696 768 q 647 743 667 743 m 658 815 q 638 807 647 815 q 626 788 629 799 q 632 768 625 776 q 650 760 639 760 q 671 768 661 760 q 682 788 681 776 q 677 807 685 799 q 658 815 669 815 m 669 788 q 653 774 667 774 q 642 777 646 774 q 639 788 638 781 q 657 803 642 803 q 669 788 672 803 m 621 554 q 592 567 603 554 q 583 599 581 581 q 601 631 586 618 q 635 644 617 644 q 665 631 654 644 q 674 599 676 618 q 656 567 671 581 q 621 554 640 554 m 632 626 q 613 618 621 626 q 601 599 604 610 q 606 579 599 588 q 624 571 613 571 q 644 579 635 571 q 656 599 653 588 q 651 618 658 610 q 632 626 643 626 m 643 599 q 625 585 640 585 q 614 599 611 585 q 631 614 617 614 q 643 599 646 614 m 525 499 q 496 512 506 499 q 489 544 486 525 q 506 576 492 563 q 540 589 521 589 q 571 576 560 589 q 579 544 582 563 q 560 512 576 525 q 525 499 544 499 m 538 571 q 517 563 526 571 q 506 544 507 556 q 510 525 503 533 q 528 517 517 517 q 549 525 539 517 q 561 544 558 533 q 538 571 564 571 m 549 544 q 531 529 546 529 q 519 544 517 529 q 535 558 522 558 q 546 555 542 558 q 549 544 550 551 m 618 443 q 588 456 599 443 q 581 488 578 468 q 598 519 583 507 q 632 532 613 532 q 662 519 651 532 q 669 488 672 507 q 652 456 667 468 q 618 443 638 443 m 629 515 q 609 507 618 515 q 597 488 600 499 q 602 468 594 476 q 621 460 610 460 q 641 468 632 460 q 653 488 650 476 q 648 507 656 499 q 629 515 640 515 m 640 488 q 622 472 638 472 q 610 488 607 472 q 628 503 613 503 q 640 488 643 503 m 665 347 q 635 360 646 347 q 628 392 625 372 q 645 424 631 411 q 679 438 660 438 q 710 424 699 438 q 718 392 721 411 q 700 360 715 372 q 665 347 685 347 m 676 419 q 657 411 665 419 q 646 392 649 403 q 668 365 642 365 q 688 373 679 365 q 700 392 697 381 q 695 411 703 403 q 676 419 688 419 m 688 392 q 671 378 685 378 q 661 381 665 378 q 658 392 657 385 q 675 407 661 407 q 688 392 690 407 m 642 239 q 612 251 622 239 q 604 283 601 264 q 622 316 607 303 q 656 329 636 329 q 685 316 675 329 q 693 283 696 303 q 676 251 690 264 q 642 239 661 239 m 653 311 q 633 303 642 311 q 621 283 624 294 q 626 264 618 272 q 644 256 633 256 q 665 264 656 256 q 676 283 674 272 q 672 303 679 294 q 653 311 664 311 m 664 283 q 646 269 661 269 q 633 283 631 269 q 651 299 636 299 q 664 283 667 299 m 557 160 q 527 173 538 160 q 519 206 517 186 q 537 237 522 224 q 571 250 551 250 q 601 237 590 250 q 610 206 613 224 q 592 173 607 186 q 557 160 576 160 m 568 232 q 548 224 557 232 q 536 206 539 217 q 541 186 533 194 q 560 178 549 178 q 580 186 571 178 q 592 206 589 194 q 587 224 594 217 q 568 232 579 232 m 579 206 q 561 190 576 190 q 549 206 546 190 q 567 219 551 219 q 579 206 582 219 m 458 126 q 428 139 439 126 q 419 171 417 151 q 438 203 422 190 q 472 215 453 215 q 502 203 492 215 q 510 171 513 190 q 492 139 507 151 q 458 126 478 126 m 469 199 q 449 190 458 199 q 438 171 440 182 q 442 151 435 160 q 461 143 450 143 q 481 151 472 143 q 492 171 489 160 q 488 190 494 182 q 469 199 481 199 m 479 171 q 463 156 476 156 q 450 171 447 156 q 468 186 453 186 q 479 171 482 186 m 351 126 q 322 139 332 126 q 314 171 311 151 q 331 203 317 190 q 365 215 346 215 q 395 203 385 215 q 403 171 406 190 q 385 139 400 151 q 351 126 371 126 m 363 199 q 342 190 351 199 q 331 171 333 182 q 335 151 328 160 q 354 143 343 143 q 374 151 365 143 q 386 171 383 160 q 381 190 389 182 q 363 199 374 199 m 374 171 q 356 156 371 156 q 343 171 340 156 q 361 186 346 186 q 374 171 376 186 m 408 503 q 378 515 389 503 q 369 547 367 528 q 388 580 372 567 q 422 593 403 593 q 451 580 440 593 q 460 547 463 567 q 442 515 457 528 q 408 503 426 503 m 419 575 q 399 567 408 575 q 388 547 390 558 q 392 528 385 536 q 411 519 400 519 q 431 528 422 519 q 442 547 439 536 q 438 567 444 558 q 419 575 431 575 m 429 547 q 413 532 426 532 q 400 547 397 532 q 418 563 403 563 q 429 547 432 563 z "},"C":{"ha":761,"x_min":63,"x_max":844,"o":"m 529 533 q 508 548 515 533 q 515 586 500 563 q 521 615 526 596 l 510 632 q 468 639 493 639 l 414 639 l 413 629 l 371 363 q 385 314 367 336 q 432 292 404 292 l 467 292 q 464 305 464 299 q 460 317 464 311 l 533 381 l 526 397 l 803 397 q 735 227 788 304 q 608 106 682 150 l 579 82 q 480 22 533 44 q 368 0 426 0 l 314 0 q 206 23 254 0 q 124 85 157 46 q 77 178 92 125 q 72 292 63 232 l 114 558 q 155 674 124 619 q 232 768 186 728 l 253 785 q 376 891 301 851 q 533 931 450 931 l 586 931 q 701 904 650 931 q 785 833 751 878 q 831 726 818 788 q 833 593 844 664 l 813 593 l 743 533 l 529 533 m 554 736 q 581 733 569 736 q 606 725 593 731 l 625 704 q 614 639 640 663 q 615 629 608 629 l 644 629 l 804 629 q 800 733 813 685 q 757 818 788 782 q 681 875 726 854 q 581 896 636 896 l 528 896 q 422 875 474 896 q 328 818 369 854 q 258 733 286 782 q 221 629 229 685 l 179 363 q 183 260 171 308 q 226 174 196 211 q 301 117 256 138 q 400 96 346 96 l 453 96 q 560 117 508 96 q 654 174 613 138 q 725 260 696 211 q 763 363 754 308 l 603 363 l 574 363 q 569 360 571 363 q 569 356 567 358 q 560 292 586 328 q 546 278 551 283 q 533 269 540 272 q 506 259 518 263 q 479 256 494 256 l 426 256 q 356 288 382 256 q 336 363 329 319 l 353 469 l 361 522 l 378 629 q 393 671 382 651 q 421 705 404 690 q 458 728 438 719 q 501 736 479 736 l 554 736 m 704 657 q 674 669 685 657 q 667 701 664 682 q 685 733 669 721 q 719 746 700 746 q 747 733 738 746 q 754 701 757 721 q 737 669 751 682 q 704 657 722 657 m 717 729 q 696 721 706 729 q 683 701 686 713 q 689 682 682 690 q 707 674 696 674 q 727 682 718 674 q 738 701 736 690 q 734 721 740 713 q 717 729 728 729 m 725 701 q 720 690 725 694 q 710 686 715 686 q 696 701 696 686 q 714 717 699 717 q 725 701 728 717 m 647 747 q 617 760 628 747 q 610 792 607 772 q 627 823 613 810 q 661 836 642 836 q 690 823 679 836 q 699 792 701 810 q 681 760 696 772 q 647 747 665 747 m 658 818 q 638 810 647 818 q 626 792 629 803 q 631 772 624 781 q 650 764 639 764 q 669 772 661 764 q 681 792 678 781 q 658 818 685 818 m 668 792 q 651 776 665 776 q 639 792 636 776 q 656 806 642 806 q 665 801 661 806 q 668 792 669 797 m 547 776 q 518 789 529 776 q 510 819 507 801 q 528 851 513 839 q 561 864 543 864 q 591 851 581 864 q 599 819 601 839 q 581 789 596 801 q 547 776 567 776 m 558 847 q 539 839 547 847 q 528 819 531 831 q 532 801 525 808 q 550 793 539 793 q 570 801 561 793 q 582 819 579 808 q 577 839 585 831 q 558 847 569 847 m 569 819 q 551 806 567 806 q 540 819 538 806 q 557 835 543 835 q 569 819 572 835 m 439 757 q 410 770 421 757 q 401 801 399 783 q 419 833 404 821 q 453 846 435 846 q 483 833 472 846 q 490 801 493 821 q 473 770 488 783 q 439 757 458 757 m 450 829 q 431 821 439 829 q 419 801 422 813 q 442 775 415 775 q 462 783 453 775 q 474 801 471 790 q 469 821 476 813 q 450 829 461 829 m 460 801 q 443 788 457 788 q 432 801 429 788 q 449 817 435 817 q 460 801 463 817 m 339 686 q 310 699 321 686 q 303 731 300 711 q 320 761 306 749 q 353 774 335 774 q 383 761 372 774 q 390 731 393 749 q 373 699 388 711 q 339 686 358 686 m 350 757 q 330 749 339 757 q 319 731 321 742 q 324 711 317 719 q 342 703 331 703 q 362 711 353 703 q 374 731 371 719 q 368 749 375 742 q 350 757 361 757 m 361 731 q 343 715 358 715 q 332 731 329 715 q 347 744 335 744 q 358 741 354 744 q 361 731 363 738 m 300 583 q 271 596 282 583 q 263 628 260 608 q 281 660 265 647 q 314 672 296 672 q 343 660 332 672 q 351 628 354 647 q 333 596 349 608 q 300 583 318 583 m 311 656 q 291 647 300 656 q 279 628 282 639 q 284 608 276 617 q 303 600 292 600 q 322 608 314 600 q 333 628 331 617 q 329 647 336 639 q 311 656 322 656 m 321 628 q 304 613 318 613 q 293 628 290 613 q 310 643 296 643 q 321 628 324 643 m 283 476 q 254 490 265 476 q 246 521 243 503 q 264 553 249 540 q 297 565 279 565 q 326 553 315 565 q 335 521 338 540 q 317 490 332 503 q 283 476 301 476 m 294 549 q 274 540 283 549 q 263 521 265 532 q 267 502 260 510 q 286 494 275 494 q 317 521 313 494 q 313 540 319 532 q 294 549 306 549 m 304 521 q 288 507 301 507 q 276 521 274 507 q 292 535 279 535 q 304 521 307 535 m 267 369 q 238 382 249 369 q 229 414 226 394 q 247 444 232 432 q 281 457 263 457 q 310 444 299 457 q 318 414 321 432 q 300 382 315 394 q 267 369 285 369 m 278 440 q 257 433 267 440 q 246 414 247 425 q 251 394 243 403 q 269 386 258 386 q 289 394 281 386 q 300 414 297 403 q 295 433 301 425 q 278 440 289 440 m 288 414 q 271 399 285 399 q 260 414 257 399 q 275 428 263 428 q 288 414 290 428 m 260 257 q 230 269 240 257 q 222 300 219 282 q 240 332 225 319 q 274 344 254 344 q 302 332 292 344 q 310 300 313 319 q 292 269 307 282 q 260 257 278 257 m 271 328 q 250 319 260 328 q 239 300 240 311 q 244 281 236 289 q 263 274 251 274 q 282 281 274 274 q 293 300 290 289 q 288 319 294 311 q 271 328 282 328 m 281 300 q 264 286 278 286 q 251 300 249 286 q 268 315 254 315 q 281 300 283 315 m 301 167 q 271 179 282 167 q 263 210 260 192 q 280 242 265 229 q 314 254 294 254 q 344 242 333 254 q 351 210 354 229 q 335 179 349 192 q 301 167 321 167 m 313 238 q 292 229 301 238 q 279 210 282 221 q 285 191 278 199 q 303 183 292 183 q 324 191 314 183 q 335 210 333 199 q 331 229 338 221 q 313 238 324 238 m 322 210 q 306 196 319 196 q 296 199 300 196 q 293 210 292 203 q 310 225 296 225 q 322 210 325 225 m 401 132 q 372 144 383 132 q 364 176 361 157 q 382 208 367 196 q 415 221 397 221 q 445 208 435 221 q 453 176 456 196 q 435 144 450 157 q 401 132 421 132 m 413 204 q 392 196 401 204 q 382 176 383 188 q 385 157 379 165 q 403 149 392 149 q 424 157 414 149 q 436 176 433 165 q 431 196 438 188 q 413 204 424 204 m 424 176 q 406 163 421 163 q 394 176 392 163 q 410 192 397 192 q 421 188 417 192 q 424 176 425 183 m 525 146 q 495 159 506 146 q 488 190 485 172 q 505 222 490 210 q 539 235 519 235 q 567 222 557 235 q 575 190 578 210 q 558 159 572 172 q 525 146 543 146 m 536 218 q 516 210 525 218 q 504 190 507 201 q 510 172 503 179 q 528 164 517 164 q 548 172 539 164 q 558 190 557 179 q 554 210 561 201 q 536 218 547 218 m 546 190 q 531 176 543 176 q 519 181 524 176 q 517 190 515 185 q 535 206 519 206 q 546 190 549 206 m 631 213 q 601 225 611 213 q 593 257 590 238 q 610 288 596 275 q 644 300 625 300 q 674 288 663 300 q 682 257 685 275 q 664 225 679 238 q 631 213 649 213 m 642 283 q 622 276 631 283 q 610 257 613 268 q 615 238 607 246 q 633 229 622 229 q 653 238 644 229 q 664 257 661 246 q 660 276 667 268 q 642 283 653 283 m 651 257 q 635 242 649 242 q 622 257 619 242 q 639 271 625 271 q 649 267 644 271 q 651 257 653 263 z "},"D":{"ha":761,"x_min":21,"x_max":843,"o":"m 592 368 q 548 292 585 324 q 467 260 511 260 l 358 260 l 375 368 l 401 531 l 436 747 l 544 747 q 615 716 589 747 q 635 639 642 685 l 592 368 m 400 296 l 472 296 l 483 296 l 526 567 q 510 625 532 601 q 456 649 489 649 l 400 296 m 576 86 q 472 23 529 46 q 354 0 415 0 l 58 0 q 44 4 51 0 q 31 15 36 8 q 23 27 25 21 q 28 39 21 33 l 46 54 q 79 133 71 82 l 174 729 q 172 795 179 761 q 151 863 165 829 l 222 924 l 215 944 l 575 944 q 691 921 639 944 q 778 856 743 897 q 828 759 814 815 q 833 639 843 703 l 790 368 q 722 210 776 281 q 593 100 668 139 l 576 86 m 225 97 l 388 97 l 442 97 q 550 119 497 97 q 645 177 603 140 q 717 263 688 214 q 754 368 746 313 l 797 639 q 793 745 807 696 q 748 831 779 794 q 671 888 717 867 q 569 908 625 908 l 299 908 l 274 908 q 269 906 271 908 q 269 901 267 904 q 285 863 281 888 q 282 800 289 839 l 188 206 q 144 108 175 131 q 142 101 140 106 q 146 97 143 97 l 225 97 m 257 129 q 226 142 238 129 q 218 175 215 156 q 237 207 221 194 q 272 219 253 219 q 301 207 290 219 q 308 175 311 194 q 290 142 306 156 q 257 129 275 129 m 268 201 q 248 194 257 201 q 236 175 239 186 q 242 156 235 164 q 260 147 249 147 q 280 156 271 147 q 290 175 289 164 q 268 201 294 201 m 278 175 q 263 160 278 160 q 249 175 249 160 q 267 189 251 189 q 278 175 281 189 m 275 243 q 244 256 256 243 q 236 288 233 268 q 255 320 239 307 q 290 333 271 333 q 319 320 308 333 q 326 288 329 307 q 308 256 324 268 q 275 243 293 243 m 286 315 q 266 307 275 315 q 254 288 257 299 q 260 268 253 276 q 278 260 267 260 q 298 268 289 260 q 308 288 307 276 q 304 307 311 299 q 286 315 297 315 m 296 288 q 281 274 293 274 q 269 277 274 274 q 267 288 265 281 q 285 303 269 303 q 296 288 299 303 m 293 351 q 263 364 274 351 q 254 396 251 376 q 272 428 257 415 q 307 440 288 440 q 336 428 325 440 q 344 396 347 415 q 326 364 342 376 q 293 351 311 351 m 304 424 q 283 415 293 424 q 272 396 274 407 q 276 376 269 385 q 294 368 283 368 q 315 376 306 368 q 326 396 324 385 q 322 415 328 407 q 304 424 315 424 m 314 396 q 297 382 311 382 q 285 396 282 382 q 301 411 288 411 q 314 396 317 411 m 310 461 q 279 474 290 461 q 271 506 268 488 q 289 538 274 525 q 324 551 304 551 q 353 538 342 551 q 361 506 364 525 q 343 474 358 488 q 310 461 328 461 m 321 533 q 301 525 310 533 q 289 506 292 517 q 294 487 288 494 q 313 479 301 479 q 333 487 324 479 q 343 506 342 494 q 339 525 346 517 q 321 533 332 533 m 331 506 q 315 492 328 492 q 304 496 308 492 q 301 506 300 500 q 319 521 304 521 q 331 506 333 521 m 328 572 q 298 585 308 572 q 290 617 288 599 q 308 649 293 636 q 342 663 322 663 q 372 649 361 663 q 381 617 383 636 q 363 585 378 599 q 328 572 347 572 m 339 644 q 319 636 328 644 q 307 617 310 628 q 312 598 304 606 q 331 590 319 590 q 351 598 342 590 q 363 617 360 606 q 358 636 365 628 q 339 644 350 644 m 350 617 q 332 603 347 603 q 321 617 318 603 q 338 632 324 632 q 350 617 353 632 m 344 682 q 314 694 325 682 q 306 726 303 707 q 324 759 308 746 q 360 772 340 772 q 388 759 378 772 q 396 726 399 746 q 378 694 393 707 q 344 682 363 682 m 357 754 q 336 746 346 754 q 324 726 326 738 q 329 707 322 715 q 347 699 336 699 q 367 707 358 699 q 378 726 376 715 q 374 746 381 738 q 357 754 368 754 m 365 726 q 350 711 363 711 q 339 715 343 711 q 336 726 335 719 q 354 742 339 742 q 365 726 368 742 m 363 792 q 333 805 343 792 q 325 836 322 818 q 342 869 328 856 q 376 882 357 882 q 407 869 396 882 q 415 836 418 856 q 397 805 413 818 q 363 792 382 792 m 374 864 q 353 856 363 864 q 342 836 344 847 q 347 817 339 825 q 365 810 354 810 q 385 817 376 810 q 397 836 394 825 q 392 856 400 847 q 374 864 385 864 m 385 836 q 367 822 382 822 q 356 836 353 822 q 372 851 358 851 q 385 836 388 851 m 471 788 q 442 801 451 788 q 435 833 432 814 q 452 865 438 853 q 486 878 467 878 q 516 865 506 878 q 524 833 526 853 q 506 801 521 814 q 471 788 490 788 m 483 861 q 463 853 472 861 q 451 833 453 844 q 456 814 449 822 q 474 806 463 806 q 494 814 485 806 q 507 833 504 822 q 501 853 508 844 q 483 861 494 861 m 494 833 q 476 818 492 818 q 465 833 463 818 q 481 847 465 847 q 494 833 494 847 m 589 778 q 559 790 569 778 q 551 822 549 803 q 569 854 554 842 q 603 867 583 867 q 633 854 622 867 q 640 822 643 842 q 623 790 638 803 q 589 778 608 778 m 600 850 q 580 842 589 850 q 568 822 571 833 q 574 803 567 811 q 592 794 581 794 q 613 803 603 794 q 624 822 622 811 q 619 842 626 833 q 600 850 611 850 m 611 822 q 594 807 608 807 q 583 811 588 807 q 581 822 579 815 q 599 838 583 838 q 611 822 614 838 m 681 742 q 650 754 661 742 q 642 786 639 767 q 660 818 644 806 q 694 831 675 831 q 724 818 714 831 q 732 786 735 806 q 715 754 729 767 q 681 742 700 742 m 692 814 q 672 806 681 814 q 660 786 663 797 q 665 767 657 775 q 683 758 672 758 q 703 767 694 758 q 715 786 713 775 q 710 806 718 797 q 692 814 703 814 m 701 786 q 685 771 699 771 q 672 786 669 771 q 690 800 675 800 q 701 786 704 800 m 710 649 q 681 661 692 649 q 674 693 671 674 q 692 726 676 713 q 725 739 707 739 q 756 726 744 739 q 764 693 767 713 q 745 661 761 674 q 710 649 729 649 m 722 721 q 702 713 711 721 q 692 693 693 704 q 695 674 689 682 q 713 665 701 665 q 733 674 724 665 q 746 693 743 682 q 740 713 747 704 q 722 721 733 721 m 733 693 q 715 679 731 679 q 704 693 701 679 q 719 708 704 708 q 733 693 733 708 m 708 539 q 678 552 689 539 q 669 585 667 565 q 688 616 672 603 q 722 629 703 629 q 752 616 742 629 q 760 585 763 603 q 742 552 757 565 q 708 539 728 539 m 719 611 q 699 603 708 611 q 688 585 690 596 q 692 565 685 574 q 711 557 700 557 q 731 565 722 557 q 743 585 740 574 q 738 603 746 596 q 719 611 731 611 m 731 585 q 713 569 728 569 q 700 585 697 569 q 718 599 703 599 q 731 585 733 599 m 693 439 q 663 452 674 439 q 654 485 651 465 q 672 516 657 503 q 707 529 688 529 q 736 516 725 529 q 744 485 747 503 q 726 452 742 465 q 693 439 711 439 m 704 511 q 684 503 693 511 q 672 485 675 496 q 677 465 669 474 q 696 457 685 457 q 715 465 707 457 q 726 485 724 474 q 704 511 731 511 m 714 485 q 697 469 711 469 q 685 485 682 469 q 701 499 688 499 q 711 494 707 499 q 714 485 715 490 m 679 340 q 649 353 660 340 q 642 385 639 365 q 659 417 644 404 q 693 429 674 429 q 724 417 713 429 q 732 385 735 404 q 714 353 729 365 q 679 340 699 340 m 692 413 q 671 404 681 413 q 658 385 661 396 q 664 365 657 374 q 682 357 671 357 q 703 365 693 357 q 714 385 713 374 q 710 404 717 396 q 692 413 703 413 m 701 385 q 685 369 699 369 q 672 385 669 369 q 689 400 675 400 q 701 385 704 400 m 639 247 q 609 260 619 247 q 601 292 599 272 q 619 324 604 311 q 653 336 633 336 q 683 324 672 336 q 690 292 693 311 q 673 260 688 272 q 639 247 658 247 m 650 319 q 630 311 639 319 q 618 292 621 303 q 623 272 615 281 q 642 264 631 264 q 662 272 653 264 q 674 292 671 281 q 669 311 676 303 q 650 319 661 319 m 661 292 q 643 276 658 276 q 631 292 628 276 q 649 307 633 307 q 661 292 664 307 m 558 158 q 528 172 539 158 q 521 204 518 185 q 538 236 524 224 q 572 249 553 249 q 602 236 592 249 q 610 204 613 224 q 592 172 607 185 q 558 158 578 158 m 569 232 q 549 224 558 232 q 538 204 540 215 q 542 185 535 193 q 561 176 550 176 q 581 185 572 176 q 593 204 590 193 q 588 224 596 215 q 569 232 581 232 m 581 204 q 563 189 578 189 q 550 204 547 189 q 567 218 553 218 q 578 215 574 218 q 581 204 582 211 m 457 133 q 427 146 438 133 q 419 178 417 158 q 437 210 422 197 q 471 224 451 224 q 501 210 490 224 q 508 178 511 197 q 491 146 506 158 q 457 133 476 133 m 468 206 q 448 197 457 206 q 436 178 439 189 q 441 158 433 167 q 460 150 449 150 q 480 158 471 150 q 492 178 489 167 q 487 197 494 189 q 468 206 479 206 m 479 178 q 461 164 476 164 q 449 178 446 164 q 467 193 451 193 q 479 178 482 193 m 353 126 q 322 139 333 126 q 314 171 311 151 q 332 203 317 190 q 367 215 347 215 q 397 203 386 215 q 404 171 407 190 q 387 139 401 151 q 353 126 372 126 m 364 199 q 344 190 353 199 q 332 171 335 182 q 337 151 329 160 q 356 143 344 143 q 376 151 367 143 q 388 171 385 160 q 383 190 390 182 q 364 199 375 199 m 375 171 q 357 156 372 156 q 344 171 342 156 q 363 186 347 186 q 375 171 378 186 z "},"E":{"ha":769,"x_min":15,"x_max":900,"o":"m 632 314 l 599 285 l 617 285 q 667 290 646 285 q 699 307 689 296 q 730 319 717 315 q 751 322 743 324 q 760 308 758 319 q 757 271 761 296 l 746 196 q 746 125 740 161 q 771 54 751 89 l 749 54 l 679 0 l 15 0 l 61 76 l 163 711 q 146 789 174 789 l 154 839 l 224 900 l 228 921 l 900 914 q 860 853 875 892 q 839 782 844 814 l 826 704 q 779 661 818 657 l 722 608 q 712 606 715 608 q 703 604 708 604 l 672 410 l 647 296 l 632 314 m 688 729 q 778 700 760 729 q 790 704 789 696 l 794 729 l 803 782 q 819 843 808 819 q 846 878 831 867 q 847 883 849 881 q 843 885 846 885 l 232 885 q 269 782 285 885 l 185 249 l 176 196 q 160 133 169 158 q 135 96 150 107 q 131 91 129 93 q 139 89 133 89 l 718 89 q 722 91 721 89 q 721 96 724 93 q 706 133 710 107 q 710 196 703 158 l 718 249 l 721 271 q 711 274 722 281 q 611 249 688 249 l 344 249 l 361 356 l 369 410 l 531 410 q 625 381 600 410 q 632 385 631 374 l 636 410 l 653 515 l 661 569 l 665 590 q 658 594 667 599 q 556 569 629 569 l 394 569 l 411 675 l 421 729 l 688 729 m 653 626 q 630 633 643 632 q 601 633 617 633 l 442 633 l 436 604 l 561 604 q 653 626 603 604 m 521 285 q 443 314 481 314 l 390 314 l 386 285 l 521 285 m 239 115 q 210 128 221 115 q 203 160 200 142 q 220 192 206 179 q 253 204 235 204 q 283 192 272 204 q 290 160 293 179 q 273 128 288 142 q 239 115 258 115 m 250 188 q 230 179 239 188 q 219 160 221 171 q 224 141 217 149 q 242 133 231 133 q 262 141 253 133 q 274 160 271 149 q 268 179 275 171 q 250 188 261 188 m 261 160 q 243 146 258 146 q 232 160 229 146 q 247 175 235 175 q 258 171 254 175 q 261 160 263 167 m 256 226 q 227 240 238 226 q 219 271 217 253 q 237 303 222 290 q 269 315 251 315 q 299 303 289 315 q 307 271 310 290 q 290 240 304 253 q 256 226 275 226 m 268 299 q 248 290 257 299 q 236 271 239 282 q 241 252 235 260 q 258 244 247 244 q 279 252 269 244 q 290 271 289 260 q 286 290 293 282 q 268 299 279 299 m 278 271 q 273 261 278 265 q 261 257 268 257 q 249 271 249 257 q 265 286 251 286 q 278 271 281 286 m 274 333 q 245 347 256 333 q 238 378 235 360 q 255 410 240 397 q 288 422 269 422 q 317 410 307 422 q 325 378 328 397 q 308 347 322 360 q 274 333 293 333 m 285 406 q 265 397 274 406 q 254 378 256 389 q 258 359 251 367 q 276 351 265 351 q 297 359 288 351 q 308 378 306 367 q 303 397 310 389 q 285 406 296 406 m 296 378 q 278 364 293 364 q 267 378 264 364 q 282 393 269 393 q 293 389 289 393 q 296 378 297 385 m 290 442 q 262 455 272 442 q 254 486 251 468 q 272 518 257 506 q 304 531 286 531 q 334 518 324 531 q 342 486 344 506 q 324 455 339 468 q 290 442 310 442 m 301 514 q 282 506 290 514 q 271 486 274 497 q 275 467 268 475 q 293 460 282 460 q 313 467 304 460 q 325 486 322 475 q 320 506 328 497 q 301 514 313 514 m 313 486 q 294 472 310 472 q 283 486 281 472 q 300 501 286 501 q 313 486 315 501 m 308 551 q 279 565 290 551 q 271 596 268 578 q 290 627 274 614 q 324 640 306 640 q 353 627 343 640 q 360 596 363 614 q 342 565 357 578 q 308 551 328 551 m 319 622 q 289 596 293 622 q 311 569 286 569 q 332 577 322 569 q 343 596 342 585 q 338 615 346 607 q 319 622 331 622 m 331 596 q 314 582 328 582 q 301 596 299 582 q 318 610 304 610 q 331 596 333 610 m 325 660 q 297 672 307 660 q 289 703 286 685 q 306 735 292 722 q 339 749 321 749 q 369 735 358 749 q 376 703 379 722 q 359 672 374 685 q 325 660 344 660 m 336 731 q 316 722 325 731 q 306 703 307 714 q 310 684 303 692 q 328 676 317 676 q 348 684 339 676 q 360 703 357 692 q 354 722 361 714 q 336 731 347 731 m 347 703 q 329 689 344 689 q 318 703 315 689 q 333 718 321 718 q 344 714 340 718 q 347 703 349 710 m 343 768 q 314 781 325 768 q 306 813 303 793 q 324 843 308 831 q 357 856 339 856 q 387 843 376 856 q 394 813 397 831 q 377 781 392 793 q 343 768 363 768 m 354 839 q 335 831 343 839 q 324 813 326 824 q 328 793 321 801 q 346 785 335 785 q 366 793 357 785 q 378 813 375 801 q 373 831 381 824 q 354 839 365 839 m 365 813 q 347 797 363 797 q 336 813 333 797 q 353 826 339 826 q 365 813 368 826 m 444 768 q 414 781 425 768 q 406 813 403 793 q 424 843 408 831 q 458 856 439 856 q 487 843 476 856 q 494 813 497 831 q 477 781 492 793 q 444 768 463 768 m 456 839 q 435 831 444 839 q 424 813 426 824 q 428 793 421 801 q 447 785 436 785 q 467 793 458 785 q 478 813 475 801 q 474 831 481 824 q 456 839 467 839 m 465 813 q 449 797 463 797 q 436 813 433 797 q 454 826 439 826 q 465 813 468 826 m 544 768 q 515 781 525 768 q 507 813 504 793 q 524 843 510 831 q 558 856 539 856 q 587 843 576 856 q 594 813 597 831 q 577 781 592 793 q 544 768 563 768 m 556 839 q 535 831 544 839 q 524 813 526 824 q 528 793 521 801 q 547 785 536 785 q 567 793 558 785 q 578 813 575 801 q 574 831 581 824 q 556 839 567 839 m 565 813 q 549 797 563 797 q 536 813 533 797 q 554 826 539 826 q 565 813 568 826 m 643 768 q 613 781 624 768 q 604 813 601 793 q 622 843 607 831 q 657 856 638 856 q 685 843 675 856 q 693 813 696 831 q 676 781 690 793 q 643 768 661 768 m 654 839 q 634 831 643 839 q 622 813 625 824 q 627 793 619 801 q 646 785 635 785 q 665 793 657 785 q 676 813 674 801 q 672 831 679 824 q 654 839 665 839 m 664 813 q 647 797 661 797 q 635 813 632 797 q 653 826 638 826 q 664 813 667 826 m 738 768 q 708 781 719 768 q 700 813 697 793 q 718 843 703 831 q 751 856 733 856 q 781 843 771 856 q 789 813 792 831 q 772 781 786 793 q 738 768 757 768 m 749 839 q 728 831 738 839 q 717 813 719 824 q 722 793 714 801 q 740 785 729 785 q 760 793 751 785 q 772 813 769 801 q 767 831 775 824 q 749 839 760 839 m 760 813 q 742 797 757 797 q 731 813 728 797 q 747 826 733 826 q 760 813 763 826 m 338 115 q 308 128 319 115 q 300 160 297 142 q 318 192 303 179 q 351 204 333 204 q 381 192 371 204 q 389 160 392 179 q 372 128 386 142 q 338 115 357 115 m 349 188 q 328 179 338 188 q 318 160 319 171 q 340 133 314 133 q 360 141 351 133 q 372 160 369 149 q 367 179 374 171 q 349 188 360 188 m 358 160 q 342 146 356 146 q 331 160 328 146 q 346 175 333 175 q 358 160 361 175 m 435 115 q 405 128 415 115 q 397 160 394 142 q 415 192 400 179 q 449 204 429 204 q 478 192 467 204 q 486 160 489 179 q 468 128 483 142 q 435 115 453 115 m 446 188 q 425 179 435 188 q 414 160 415 171 q 419 141 411 149 q 438 133 426 133 q 468 160 464 133 q 463 179 469 171 q 446 188 457 188 m 456 160 q 439 146 453 146 q 426 160 424 146 q 443 175 429 175 q 453 171 449 175 q 456 160 457 167 m 532 115 q 503 128 514 115 q 496 160 493 142 q 513 192 499 179 q 546 204 528 204 q 576 192 565 204 q 583 160 586 179 q 566 128 581 142 q 532 115 551 115 m 543 188 q 523 179 532 188 q 513 160 514 171 q 535 133 508 133 q 555 141 546 133 q 567 160 564 149 q 561 179 568 171 q 543 188 554 188 m 554 160 q 536 146 551 146 q 525 160 522 146 q 540 175 528 175 q 551 171 547 175 q 554 160 556 167 m 390 442 q 360 455 371 442 q 353 486 350 468 q 370 518 356 506 q 404 531 385 531 q 433 518 422 531 q 440 486 443 506 q 423 455 438 468 q 390 442 408 442 m 401 514 q 381 506 390 514 q 369 486 372 497 q 374 467 367 475 q 393 460 382 460 q 413 467 404 460 q 424 486 421 475 q 419 506 426 497 q 401 514 413 514 m 411 486 q 394 472 408 472 q 382 486 379 472 q 400 501 385 501 q 411 486 414 501 m 486 442 q 457 455 468 442 q 449 486 446 468 q 467 518 451 506 q 500 531 482 531 q 530 518 519 531 q 538 486 540 506 q 520 455 535 468 q 486 442 506 442 m 497 514 q 477 506 486 514 q 465 486 468 497 q 470 467 463 475 q 489 460 478 460 q 509 467 500 460 q 521 486 518 475 q 516 506 524 497 q 497 514 508 514 m 508 486 q 490 472 506 472 q 479 486 476 472 q 496 501 482 501 q 508 486 511 501 m 585 442 q 555 455 565 442 q 547 486 544 468 q 565 518 550 506 q 599 531 579 531 q 628 518 617 531 q 636 486 639 506 q 618 455 633 468 q 585 442 603 442 m 596 514 q 576 506 585 514 q 564 486 567 497 q 569 467 561 475 q 588 460 576 460 q 607 467 599 460 q 618 486 615 475 q 614 506 621 497 q 596 514 607 514 m 606 486 q 589 472 603 472 q 576 486 574 472 q 594 501 579 501 q 606 486 608 501 m 635 115 q 606 128 617 115 q 597 160 594 142 q 615 192 600 179 q 649 204 631 204 q 678 192 668 204 q 686 160 689 179 q 669 128 683 142 q 635 115 654 115 m 646 188 q 626 179 635 188 q 615 160 617 171 q 638 133 611 133 q 658 141 649 133 q 669 160 667 149 q 664 179 671 171 q 646 188 657 188 m 657 160 q 639 146 654 146 q 628 160 625 146 q 643 175 631 175 q 654 171 650 175 q 657 160 658 167 z "},"F":{"ha":761,"x_min":31,"x_max":900,"o":"m 217 896 q 229 922 211 911 q 279 932 247 932 l 900 921 q 877 882 885 901 q 865 845 869 863 q 858 813 861 828 q 847 789 854 799 l 835 714 q 817 666 829 682 q 790 657 806 650 l 724 601 q 710 597 721 597 l 676 394 q 660 347 672 363 q 633 338 649 331 l 567 281 q 553 278 561 275 q 539 288 546 281 q 453 319 519 319 l 399 319 l 381 203 q 381 151 375 174 q 399 117 388 128 q 403 101 406 110 q 392 83 400 92 q 372 69 383 75 q 350 61 360 63 l 297 14 q 282 4 290 8 q 268 0 274 0 l 61 0 q 35 20 40 0 q 49 54 31 40 l 60 64 q 70 92 67 75 q 78 132 74 110 l 169 718 q 154 810 182 785 q 151 839 136 826 l 217 896 m 851 885 q 858 893 858 890 q 854 896 857 896 l 274 896 q 268 885 260 896 q 278 789 290 865 l 194 256 l 186 203 q 146 107 174 126 q 140 100 139 104 q 146 96 140 96 l 353 96 q 358 100 356 96 q 358 107 361 104 q 346 203 333 128 l 354 256 l 371 363 l 379 415 l 539 415 q 631 390 615 415 q 638 387 635 385 q 642 394 642 389 l 646 415 l 663 522 l 671 576 l 675 601 q 673 606 675 604 q 664 604 671 607 q 564 576 639 576 l 404 576 l 413 629 l 429 736 l 696 736 q 756 731 732 736 q 789 711 781 725 q 800 714 797 700 l 803 736 l 811 789 q 828 850 818 826 q 851 885 839 874 m 651 636 q 634 640 644 639 q 610 640 624 640 l 450 640 l 444 611 l 569 611 q 617 618 596 611 q 651 636 639 625 m 251 126 q 222 139 232 126 q 214 169 211 151 q 231 202 217 189 q 265 215 246 215 q 294 202 283 215 q 301 169 304 189 q 284 139 299 151 q 251 126 269 126 m 263 197 q 242 189 251 197 q 231 169 233 181 q 235 151 228 158 q 254 143 243 143 q 274 151 265 143 q 285 169 282 158 q 281 189 288 181 q 263 197 274 197 m 272 169 q 256 156 269 156 q 243 169 240 156 q 261 185 246 185 q 272 169 275 185 m 269 238 q 240 250 250 238 q 232 282 229 263 q 249 313 235 300 q 283 325 264 325 q 312 313 301 325 q 319 282 322 300 q 302 250 317 263 q 269 238 288 238 m 281 308 q 260 301 269 308 q 249 282 250 293 q 253 263 246 271 q 271 254 260 254 q 291 263 282 254 q 303 282 300 271 q 298 301 304 293 q 281 308 292 308 m 290 282 q 274 267 288 267 q 261 282 258 267 q 278 296 264 296 q 290 282 293 296 m 286 344 q 256 357 267 344 q 249 388 246 369 q 266 420 251 407 q 300 433 281 433 q 328 420 318 433 q 336 388 339 407 q 319 357 333 369 q 286 344 304 344 m 297 415 q 276 407 286 415 q 265 388 267 399 q 270 369 263 376 q 289 361 278 361 q 308 369 300 361 q 319 388 317 376 q 315 407 321 399 q 297 415 308 415 m 307 388 q 290 374 304 374 q 278 388 275 374 q 294 403 281 403 q 307 388 310 403 m 303 453 q 273 465 283 453 q 265 497 263 478 q 283 528 268 515 q 317 540 297 540 q 345 528 335 540 q 353 497 356 515 q 335 465 350 478 q 303 453 321 453 m 314 524 q 294 516 303 524 q 282 497 285 508 q 287 478 279 486 q 306 469 294 469 q 325 478 317 469 q 336 497 333 486 q 332 516 339 508 q 314 524 325 524 m 324 497 q 307 482 321 482 q 294 497 292 482 q 313 511 297 511 q 324 497 326 511 m 319 561 q 291 574 301 561 q 283 606 281 588 q 301 638 286 625 q 335 650 317 650 q 365 638 354 650 q 372 606 375 625 q 354 574 369 588 q 319 561 339 561 m 332 633 q 312 625 321 633 q 301 606 303 617 q 306 587 299 594 q 324 579 313 579 q 344 587 335 579 q 356 606 353 594 q 350 625 357 617 q 332 633 343 633 m 343 606 q 325 592 340 592 q 314 606 311 592 q 329 621 317 621 q 340 617 336 621 q 343 606 344 613 m 338 669 q 308 682 318 669 q 300 714 297 694 q 317 746 303 733 q 351 758 332 758 q 380 746 369 758 q 388 714 390 733 q 370 682 385 694 q 338 669 356 669 m 349 742 q 328 733 338 742 q 317 714 319 725 q 322 694 314 703 q 340 686 329 686 q 360 694 351 686 q 371 714 368 703 q 367 733 374 725 q 349 742 360 742 m 358 714 q 342 699 356 699 q 329 714 326 699 q 347 729 332 729 q 358 714 361 729 m 354 778 q 325 790 336 778 q 317 822 314 803 q 335 854 319 842 q 368 867 350 867 q 398 854 388 867 q 406 822 408 842 q 388 790 403 803 q 354 778 374 778 m 365 850 q 346 842 354 850 q 335 822 338 833 q 340 803 333 811 q 357 794 346 794 q 378 803 368 794 q 389 822 388 811 q 384 842 392 833 q 365 850 376 850 m 376 822 q 360 807 374 807 q 350 811 354 807 q 347 822 346 815 q 364 838 350 838 q 376 822 379 838 m 447 778 q 419 790 429 778 q 411 822 408 803 q 428 854 414 842 q 461 867 443 867 q 492 854 481 867 q 500 822 503 842 q 482 790 497 803 q 447 778 467 778 m 458 850 q 439 842 447 850 q 428 822 431 833 q 433 803 426 811 q 450 794 439 794 q 471 803 461 794 q 482 822 481 811 q 477 842 485 833 q 458 850 469 850 m 469 822 q 453 807 467 807 q 443 811 447 807 q 440 822 439 815 q 457 838 443 838 q 469 822 472 838 m 544 778 q 515 790 526 778 q 507 822 504 803 q 525 854 510 842 q 558 867 540 867 q 588 854 578 867 q 596 822 599 842 q 578 790 593 803 q 544 778 564 778 m 556 850 q 536 842 544 850 q 525 822 528 833 q 530 803 524 811 q 547 794 536 794 q 568 803 558 794 q 579 822 578 811 q 574 842 582 833 q 556 850 567 850 m 567 822 q 550 807 564 807 q 538 822 535 807 q 554 838 540 838 q 567 822 569 838 m 643 778 q 613 790 624 778 q 606 822 603 803 q 623 854 608 842 q 657 867 638 867 q 686 854 675 867 q 694 822 697 842 q 676 790 692 803 q 643 778 661 778 m 654 850 q 634 842 643 850 q 622 822 625 833 q 628 803 621 811 q 646 794 635 794 q 667 803 657 794 q 678 822 676 811 q 673 842 681 833 q 654 850 665 850 m 664 822 q 649 807 661 807 q 636 822 633 807 q 653 838 639 838 q 664 822 667 838 m 742 778 q 713 790 724 778 q 706 822 703 803 q 723 854 708 842 q 756 867 738 867 q 785 854 775 867 q 793 822 796 842 q 776 790 790 803 q 742 778 761 778 m 753 850 q 733 842 742 850 q 722 822 725 833 q 727 803 721 811 q 744 794 733 794 q 765 803 756 794 q 776 822 775 811 q 772 842 779 833 q 753 850 764 850 m 764 822 q 747 807 761 807 q 735 822 732 807 q 751 838 738 838 q 764 822 767 838 m 397 456 q 369 468 379 456 q 363 500 360 481 q 380 532 365 519 q 413 544 394 544 q 442 532 432 544 q 450 500 453 519 q 432 468 447 481 q 397 456 417 456 m 410 528 q 390 519 399 528 q 379 500 381 511 q 383 481 376 489 q 401 474 390 474 q 422 481 413 474 q 433 500 431 489 q 428 519 435 511 q 410 528 421 528 m 421 500 q 403 486 418 486 q 392 500 389 486 q 407 515 392 515 q 421 500 421 515 m 494 453 q 465 465 475 453 q 457 497 454 478 q 474 528 460 515 q 508 540 489 540 q 538 528 526 540 q 546 497 549 515 q 528 465 543 478 q 494 453 513 453 m 506 524 q 485 516 494 524 q 474 497 476 508 q 478 478 471 486 q 497 469 486 469 q 517 478 508 469 q 528 497 525 486 q 524 516 531 508 q 506 524 517 524 m 515 497 q 499 482 513 482 q 486 497 483 482 q 504 511 489 511 q 515 497 518 511 m 592 453 q 563 465 574 453 q 556 497 553 478 q 573 528 558 515 q 606 540 588 540 q 636 528 625 540 q 644 497 647 515 q 626 465 642 478 q 592 453 611 453 m 603 524 q 583 516 592 524 q 572 497 575 508 q 576 478 569 486 q 594 469 583 469 q 615 478 606 469 q 626 497 624 486 q 622 516 629 508 q 603 524 614 524 m 614 497 q 596 482 611 482 q 585 497 582 482 q 601 511 588 511 q 614 497 617 511 z "},"G":{"ha":774,"x_min":60,"x_max":846,"o":"m 315 0 q 206 23 256 0 q 124 85 157 46 q 75 178 90 125 q 69 292 60 232 l 111 557 q 231 764 132 681 l 246 778 q 371 890 294 849 q 533 931 447 931 l 586 931 q 701 904 650 931 q 786 833 753 878 q 833 726 819 788 q 835 593 846 664 l 814 593 l 772 557 l 829 557 l 799 363 q 774 280 792 319 q 732 206 757 240 q 674 145 707 172 q 604 100 642 118 l 588 85 q 485 22 540 44 q 368 0 431 0 l 315 0 m 176 363 q 181 260 168 308 q 225 174 194 211 q 301 117 256 138 q 400 96 346 96 l 453 96 q 561 117 508 96 q 656 174 614 138 q 726 260 697 211 q 763 363 754 308 l 788 522 l 760 522 l 440 522 l 415 522 q 410 515 406 522 q 426 477 421 501 q 424 415 431 453 l 415 363 l 521 363 l 564 363 l 603 363 q 579 308 597 333 q 535 269 561 283 q 508 259 519 263 q 479 256 496 256 l 426 256 q 356 288 383 256 q 336 363 329 319 l 353 469 l 361 522 l 378 629 q 394 671 382 651 q 422 704 406 690 q 460 726 439 718 q 501 735 481 735 l 554 735 q 583 733 571 735 q 607 725 594 731 l 625 703 q 615 640 642 667 q 617 629 610 629 l 644 629 l 804 629 q 800 733 813 685 q 758 818 788 782 q 682 875 728 854 q 581 896 636 896 l 528 896 q 422 875 474 896 q 327 818 369 854 q 256 733 285 782 q 218 629 226 685 l 176 363 m 517 582 q 523 599 521 589 q 522 615 525 608 l 511 632 q 493 638 503 635 q 469 640 483 640 l 417 640 l 414 629 l 403 557 l 506 557 q 508 569 507 564 q 514 579 510 574 l 517 582 m 708 665 q 679 678 690 665 q 671 710 668 690 q 689 740 674 728 q 722 753 704 753 q 752 740 742 753 q 760 710 763 728 q 742 678 757 690 q 708 665 728 665 m 719 736 q 700 728 708 736 q 689 710 692 721 q 694 690 688 699 q 711 682 700 682 q 732 690 722 682 q 743 710 742 699 q 738 728 746 721 q 719 736 731 736 m 731 710 q 714 694 728 694 q 701 710 699 694 q 718 724 704 724 q 731 710 733 724 m 649 744 q 620 757 631 744 q 613 789 610 769 q 631 820 615 807 q 664 833 646 833 q 693 820 683 833 q 700 789 703 807 q 683 757 697 769 q 649 744 668 744 m 660 815 q 640 808 649 815 q 629 789 632 800 q 634 769 628 778 q 651 761 640 761 q 672 769 663 761 q 683 789 682 778 q 678 808 686 800 q 660 815 671 815 m 671 789 q 666 778 671 782 q 654 774 661 774 q 642 789 642 774 q 658 803 644 803 q 671 789 674 803 m 551 774 q 522 786 532 774 q 514 818 511 799 q 531 849 517 836 q 565 861 546 861 q 594 849 583 861 q 603 818 606 836 q 585 786 600 799 q 551 774 569 774 m 563 844 q 542 837 551 844 q 531 818 532 829 q 535 799 528 807 q 554 790 543 790 q 574 799 565 790 q 585 818 582 807 q 580 837 586 829 q 563 844 574 844 m 572 818 q 556 803 569 803 q 543 818 540 803 q 560 832 546 832 q 569 828 565 832 q 572 818 574 824 m 442 756 q 413 768 424 756 q 406 799 403 781 q 423 831 408 818 q 456 843 438 843 q 486 831 475 843 q 494 799 497 818 q 476 768 492 781 q 442 756 461 756 m 453 826 q 433 818 442 826 q 422 799 424 810 q 426 780 419 788 q 444 772 433 772 q 465 780 456 772 q 476 799 474 788 q 471 818 478 810 q 453 826 464 826 m 464 799 q 446 785 461 785 q 435 799 432 785 q 450 814 438 814 q 461 810 457 814 q 464 799 465 806 m 343 686 q 313 699 324 686 q 306 731 303 713 q 323 763 308 750 q 357 775 338 775 q 386 763 375 775 q 394 731 397 750 q 376 699 392 713 q 343 686 361 686 m 354 758 q 334 750 343 758 q 322 731 325 742 q 327 712 319 719 q 346 704 335 704 q 366 712 357 704 q 378 731 375 719 q 373 750 381 742 q 354 758 365 758 m 364 731 q 347 717 361 717 q 335 731 332 717 q 353 746 338 746 q 364 731 367 746 m 304 581 q 274 594 285 581 q 267 625 264 607 q 284 657 269 644 q 318 669 299 669 q 347 657 336 669 q 354 625 357 644 q 337 594 351 607 q 304 581 322 581 m 315 653 q 295 644 304 653 q 283 625 286 636 q 288 606 281 614 q 307 599 296 599 q 338 625 333 599 q 333 644 340 636 q 315 653 326 653 m 325 625 q 308 611 322 611 q 296 625 293 611 q 314 640 299 640 q 325 625 328 640 m 288 475 q 258 488 268 475 q 250 518 247 500 q 267 550 253 538 q 301 563 282 563 q 330 550 319 563 q 338 518 340 538 q 320 488 335 500 q 288 475 306 475 m 299 546 q 278 538 288 546 q 267 518 268 529 q 272 499 264 507 q 290 492 279 492 q 310 499 301 492 q 321 518 318 507 q 316 538 322 529 q 299 546 310 546 m 308 518 q 292 504 306 504 q 279 518 276 504 q 296 533 282 533 q 306 529 301 533 q 308 518 310 525 m 269 367 q 240 379 250 367 q 232 411 229 392 q 249 442 235 429 q 283 456 264 456 q 312 442 301 456 q 319 411 322 429 q 302 379 317 392 q 269 367 288 367 m 281 438 q 260 430 269 438 q 249 411 251 422 q 254 392 247 400 q 272 383 261 383 q 292 392 283 383 q 303 411 301 400 q 281 438 307 438 m 290 411 q 275 396 288 396 q 264 400 268 396 q 261 411 260 404 q 279 425 264 425 q 290 411 293 425 m 253 257 q 223 269 233 257 q 215 301 213 282 q 233 333 218 321 q 267 346 247 346 q 295 333 285 346 q 303 301 306 321 q 285 269 300 282 q 253 257 271 257 m 264 329 q 244 321 253 329 q 232 301 235 313 q 237 282 229 290 q 256 274 244 274 q 275 282 267 274 q 286 301 283 290 q 282 321 289 313 q 264 329 275 329 m 274 301 q 257 286 271 286 q 244 301 242 286 q 263 317 247 317 q 274 301 276 317 m 304 164 q 274 176 285 164 q 267 208 264 189 q 284 239 269 226 q 318 251 299 251 q 347 239 336 251 q 354 208 357 226 q 337 176 351 189 q 304 164 322 164 m 315 235 q 295 227 304 235 q 283 208 286 219 q 289 189 282 197 q 307 181 296 181 q 327 189 318 181 q 338 208 336 197 q 333 227 340 219 q 315 235 326 235 m 325 208 q 310 193 322 193 q 299 197 303 193 q 296 208 294 201 q 314 222 299 222 q 325 208 328 222 m 404 129 q 374 142 385 129 q 367 174 364 156 q 384 206 369 193 q 418 218 399 218 q 447 206 436 218 q 456 174 458 193 q 438 142 453 156 q 404 129 422 129 m 415 201 q 395 193 404 201 q 383 174 386 185 q 407 147 381 147 q 427 155 418 147 q 438 174 436 163 q 433 193 440 185 q 415 201 426 201 m 425 174 q 410 160 422 160 q 399 163 403 160 q 396 174 394 167 q 414 189 399 189 q 425 174 428 189 m 508 129 q 478 142 489 129 q 469 174 467 156 q 488 206 472 193 q 522 218 503 218 q 551 206 540 218 q 558 174 561 193 q 541 142 556 156 q 508 129 526 129 m 519 201 q 499 193 508 201 q 488 174 490 185 q 511 147 485 147 q 531 155 522 147 q 542 174 540 163 q 538 193 544 185 q 519 201 531 201 m 529 174 q 514 160 526 160 q 503 163 507 160 q 500 174 499 167 q 518 189 503 189 q 529 174 532 189 m 613 189 q 583 201 593 189 q 575 232 572 214 q 592 264 578 251 q 626 276 607 276 q 655 264 644 276 q 663 232 665 251 q 645 201 660 214 q 613 189 631 189 m 624 260 q 603 251 613 260 q 592 232 594 243 q 597 213 589 221 q 615 206 604 206 q 635 213 626 206 q 646 232 643 221 q 642 251 649 243 q 624 260 635 260 m 633 232 q 617 218 631 218 q 604 232 601 218 q 622 247 607 247 q 633 232 636 247 m 661 289 q 632 301 642 289 q 625 333 622 314 q 642 365 628 353 q 676 378 657 378 q 706 365 694 378 q 714 333 717 353 q 695 301 711 314 q 661 289 679 289 m 674 361 q 653 353 663 361 q 642 333 643 344 q 647 315 639 322 q 665 307 654 307 q 685 315 676 307 q 696 333 693 322 q 691 353 697 344 q 674 361 685 361 m 683 333 q 667 319 681 319 q 654 333 651 319 q 659 344 654 340 q 671 349 664 349 q 683 333 683 349 m 694 400 q 665 413 675 400 q 657 444 654 425 q 674 476 660 464 q 708 489 689 489 q 738 476 726 489 q 746 444 749 464 q 728 413 743 425 q 694 400 713 400 m 706 472 q 685 464 694 472 q 674 444 676 456 q 678 425 671 433 q 697 417 686 417 q 717 425 708 417 q 729 444 726 433 q 724 464 732 456 q 706 472 717 472 m 715 444 q 699 429 713 429 q 686 444 683 429 q 704 460 689 460 q 715 444 718 460 m 594 400 q 566 413 576 400 q 558 444 556 425 q 576 476 561 464 q 608 489 590 489 q 638 476 628 489 q 646 444 649 464 q 628 413 643 425 q 594 400 614 400 m 606 472 q 586 464 594 472 q 575 444 578 456 q 579 425 572 433 q 597 417 586 417 q 617 425 608 417 q 629 444 626 433 q 624 464 632 456 q 606 472 617 472 m 617 444 q 599 429 614 429 q 588 444 585 429 q 604 460 590 460 q 617 444 619 460 m 490 400 q 462 413 472 400 q 454 444 451 425 q 472 476 457 464 q 504 489 486 489 q 534 476 524 489 q 542 444 544 464 q 524 413 539 425 q 490 400 510 400 m 501 472 q 482 464 490 472 q 471 444 474 456 q 475 425 468 433 q 493 417 482 417 q 513 425 504 417 q 525 444 522 433 q 520 464 528 456 q 501 472 513 472 m 513 444 q 494 429 510 429 q 483 444 481 429 q 500 460 486 460 q 513 444 515 460 z "},"H":{"ha":776,"x_min":13,"x_max":918,"o":"m 306 0 l 13 0 q 42 37 32 19 q 58 71 53 54 q 65 103 64 88 q 69 135 67 119 l 164 732 q 147 826 174 800 q 144 841 143 832 q 151 856 144 850 l 214 910 q 228 936 213 924 q 275 949 243 949 l 485 949 q 530 928 521 949 q 519 892 539 908 q 491 856 504 878 q 472 804 478 835 l 444 624 l 528 624 l 544 732 q 528 826 554 800 q 524 841 522 832 q 532 856 525 850 l 594 910 q 608 936 593 924 q 656 949 624 949 l 865 949 q 910 928 901 949 q 899 892 918 908 q 871 856 883 878 q 853 804 858 835 l 758 207 q 758 140 754 176 q 781 63 761 103 l 757 63 l 688 0 l 429 0 q 395 16 393 0 q 418 51 397 32 q 438 82 431 63 q 450 135 444 101 l 481 326 l 397 326 l 378 207 q 383 140 374 176 q 410 63 392 103 l 378 63 l 306 0 m 138 106 q 140 99 131 99 l 350 99 q 356 106 358 99 q 340 144 344 119 q 342 207 335 168 l 368 369 l 376 424 l 593 424 l 585 369 l 558 207 q 542 144 551 168 q 518 106 533 119 q 521 99 511 99 l 731 99 q 736 106 739 99 q 722 207 710 133 l 817 804 q 861 903 829 879 q 865 910 864 906 q 860 914 865 914 l 650 914 q 643 910 644 914 q 643 903 642 906 q 653 804 665 882 l 636 696 l 618 588 l 401 588 l 419 696 l 436 804 q 481 903 449 878 q 484 910 483 906 q 479 914 485 914 l 269 914 q 263 910 264 914 q 263 903 261 906 q 278 867 276 892 q 274 804 281 843 l 188 261 l 179 207 q 163 144 172 168 q 138 106 154 119 m 247 124 q 217 137 228 124 q 208 169 206 150 q 226 201 211 189 q 261 214 242 214 q 291 201 281 214 q 299 169 301 189 q 281 137 296 150 q 247 124 267 124 m 258 197 q 238 189 247 197 q 226 169 229 181 q 231 150 224 158 q 250 142 239 142 q 270 150 261 142 q 282 169 279 158 q 277 189 285 181 q 258 197 269 197 m 268 169 q 251 154 265 154 q 239 169 236 154 q 256 183 242 183 q 268 169 271 183 m 265 238 q 235 251 246 238 q 226 283 224 264 q 244 315 229 303 q 279 328 260 328 q 309 315 299 328 q 317 283 319 303 q 299 251 314 264 q 265 238 285 238 m 276 311 q 256 303 265 311 q 244 283 247 294 q 249 264 242 272 q 268 256 257 256 q 288 264 279 256 q 300 283 297 272 q 295 303 303 294 q 276 311 288 311 m 286 283 q 269 268 283 268 q 257 283 254 268 q 274 297 260 297 q 286 283 289 297 m 282 346 q 251 359 263 346 q 243 392 240 372 q 261 424 246 411 q 296 436 276 436 q 326 424 315 436 q 333 392 336 411 q 316 359 331 372 q 282 346 301 346 m 293 419 q 273 411 282 419 q 261 392 264 403 q 266 372 258 381 q 285 364 274 364 q 305 372 296 364 q 317 392 314 381 q 312 411 319 403 q 293 419 304 419 m 303 392 q 286 376 300 376 q 274 392 271 376 q 292 407 276 407 q 303 392 306 407 m 300 457 q 269 469 281 457 q 261 501 258 482 q 279 534 264 521 q 314 547 294 547 q 344 534 333 547 q 351 501 354 521 q 334 469 349 482 q 300 457 319 457 m 311 529 q 290 521 300 529 q 279 501 281 513 q 284 482 276 490 q 303 474 292 474 q 323 482 314 474 q 335 501 332 490 q 329 521 336 513 q 311 529 322 529 m 321 501 q 304 488 318 488 q 292 501 289 488 q 308 517 294 517 q 321 501 324 517 m 425 460 q 395 473 406 460 q 388 506 385 486 q 405 537 390 524 q 439 550 419 550 q 469 537 458 550 q 478 506 481 524 q 460 473 475 486 q 425 460 444 460 m 436 533 q 416 525 425 533 q 404 506 407 517 q 409 486 401 494 q 428 478 417 478 q 448 486 439 478 q 460 506 457 494 q 455 525 463 517 q 436 533 447 533 m 447 506 q 429 490 444 490 q 417 506 414 490 q 435 519 419 519 q 447 506 450 519 m 549 460 q 518 473 529 460 q 510 506 507 486 q 528 537 513 524 q 563 550 543 550 q 592 537 582 550 q 600 506 603 524 q 583 473 597 486 q 549 460 568 460 m 560 533 q 540 525 549 533 q 528 506 531 517 q 533 486 525 494 q 551 478 540 478 q 572 486 563 478 q 583 506 581 494 q 578 525 586 517 q 560 533 571 533 m 569 506 q 553 490 567 490 q 540 506 538 490 q 558 519 543 519 q 569 506 572 519 m 317 568 q 288 581 297 568 q 281 614 278 594 q 298 646 283 633 q 332 658 313 658 q 363 646 351 658 q 371 614 374 633 q 352 581 368 594 q 317 568 336 568 m 329 642 q 309 633 318 642 q 299 614 300 625 q 302 594 296 603 q 319 586 308 586 q 340 594 331 586 q 353 614 350 603 q 347 633 354 625 q 329 642 340 642 m 340 614 q 322 599 338 599 q 311 614 308 599 q 326 628 311 628 q 340 614 340 628 m 335 678 q 304 691 315 678 q 296 724 293 704 q 314 755 299 742 q 349 768 329 768 q 378 755 368 768 q 386 724 389 742 q 369 691 383 704 q 335 678 354 678 m 346 751 q 326 743 335 751 q 314 724 317 735 q 319 704 311 713 q 338 696 326 696 q 358 704 349 696 q 369 724 367 713 q 365 743 372 735 q 346 751 357 751 m 356 724 q 339 708 353 708 q 326 724 324 708 q 344 738 329 738 q 356 724 358 738 m 351 789 q 322 801 332 789 q 315 833 313 814 q 333 866 318 853 q 367 879 347 879 q 397 866 386 879 q 406 833 408 853 q 387 801 403 814 q 351 789 371 789 m 364 861 q 344 853 353 861 q 333 833 335 844 q 337 814 331 822 q 354 806 343 806 q 375 814 365 806 q 388 833 385 822 q 382 853 389 844 q 364 861 375 861 m 375 833 q 357 819 372 819 q 346 833 343 819 q 361 849 346 849 q 375 833 375 849 m 631 139 q 601 152 611 139 q 593 183 590 165 q 611 216 596 203 q 646 229 626 229 q 676 216 665 229 q 683 183 686 203 q 665 152 681 165 q 631 139 650 139 m 643 211 q 622 203 632 211 q 610 183 613 194 q 615 164 608 172 q 633 156 622 156 q 654 164 644 156 q 665 183 664 172 q 661 203 668 194 q 643 211 654 211 m 653 183 q 636 169 650 169 q 625 173 629 169 q 622 183 621 176 q 640 199 625 199 q 653 183 656 199 m 649 253 q 619 265 629 253 q 611 297 608 278 q 629 330 614 317 q 664 343 644 343 q 694 330 683 343 q 701 297 704 317 q 683 265 699 278 q 649 253 668 253 m 661 325 q 640 317 650 325 q 628 297 631 308 q 633 278 626 286 q 651 269 640 269 q 672 278 663 269 q 683 297 682 286 q 679 317 686 308 q 661 325 672 325 m 671 297 q 654 283 668 283 q 643 287 647 283 q 640 297 639 290 q 658 313 643 313 q 671 297 674 313 m 667 361 q 637 374 647 361 q 629 407 626 388 q 647 439 632 426 q 681 451 661 451 q 711 439 700 451 q 719 407 722 426 q 701 374 717 388 q 667 361 686 361 m 678 435 q 657 426 667 435 q 646 407 647 418 q 651 388 643 396 q 669 379 658 379 q 690 388 681 379 q 701 407 699 396 q 696 426 703 418 q 678 435 689 435 m 689 407 q 671 392 686 392 q 658 407 656 392 q 675 421 661 421 q 686 417 682 421 q 689 407 690 413 m 685 464 q 656 477 667 464 q 649 510 646 490 q 667 542 651 529 q 700 554 682 554 q 731 542 719 554 q 739 510 742 529 q 720 477 736 490 q 685 464 704 464 m 697 538 q 677 529 686 538 q 667 510 668 521 q 670 490 664 499 q 688 482 676 482 q 708 490 699 482 q 721 510 718 499 q 715 529 722 521 q 697 538 708 538 m 708 510 q 690 494 706 494 q 679 510 676 494 q 694 525 682 525 q 706 521 701 525 q 708 510 710 517 m 701 583 q 672 597 683 583 q 664 628 661 610 q 682 660 667 647 q 715 674 697 674 q 746 660 735 674 q 754 628 757 647 q 736 597 751 610 q 701 583 721 583 m 713 656 q 692 647 701 656 q 681 628 683 639 q 685 608 678 617 q 704 600 693 600 q 724 608 715 600 q 736 628 733 617 q 731 647 739 639 q 713 656 724 656 m 724 628 q 707 614 721 614 q 697 617 701 614 q 694 628 693 621 q 711 643 697 643 q 724 628 726 643 m 719 693 q 690 706 700 693 q 682 738 679 718 q 699 770 685 757 q 733 783 714 783 q 764 770 753 783 q 772 738 775 757 q 754 706 769 718 q 719 693 739 693 m 731 765 q 710 757 719 765 q 699 738 700 749 q 703 718 696 726 q 721 710 710 710 q 742 718 732 710 q 754 738 751 726 q 749 757 756 749 q 731 765 742 765 m 742 738 q 724 724 739 724 q 711 738 708 724 q 728 753 714 753 q 739 749 735 753 q 742 738 743 744 m 736 803 q 707 816 718 803 q 699 849 696 829 q 717 881 701 868 q 750 893 732 893 q 781 881 769 893 q 789 849 792 868 q 771 816 786 829 q 736 803 756 803 m 747 876 q 727 868 736 876 q 715 849 718 860 q 721 829 714 838 q 739 821 728 821 q 760 829 750 821 q 771 849 769 838 q 766 868 774 860 q 747 876 758 876 m 758 849 q 742 833 756 833 q 732 838 736 833 q 729 849 728 842 q 746 864 732 864 q 758 849 761 864 z "},"I":{"ha":419,"x_min":17,"x_max":576,"o":"m 74 89 l 174 725 q 174 794 181 763 q 150 858 167 826 l 226 924 l 218 942 l 468 942 l 576 942 q 507 869 528 910 q 481 797 486 829 l 388 206 q 390 133 382 169 q 418 61 399 97 l 389 61 l 319 0 l 17 0 l 74 89 m 274 899 q 282 797 296 876 l 189 206 q 172 142 182 168 q 147 104 163 115 q 144 99 144 101 q 150 97 144 97 l 360 97 q 364 99 363 97 q 363 104 365 101 q 351 206 339 128 l 360 260 l 394 476 l 421 646 l 438 747 l 444 797 q 489 899 458 876 q 491 903 492 901 q 488 906 490 906 l 463 906 l 408 906 l 278 906 q 272 903 272 906 q 274 899 271 901 m 260 132 q 230 145 240 132 q 222 178 219 158 q 240 209 225 196 q 274 222 254 222 q 303 209 293 222 q 311 178 314 196 q 294 145 308 158 q 260 132 279 132 m 271 204 q 251 197 260 204 q 239 178 242 189 q 244 158 236 167 q 263 150 251 150 q 283 158 274 150 q 294 178 292 167 q 290 197 297 189 q 271 204 282 204 m 282 178 q 264 163 279 163 q 251 178 249 163 q 268 192 254 192 q 279 188 275 192 q 282 178 283 185 m 278 246 q 248 258 258 246 q 240 290 238 271 q 258 322 243 310 q 292 335 272 335 q 322 322 311 335 q 329 290 332 310 q 312 258 326 271 q 278 246 297 246 m 289 318 q 268 310 278 318 q 257 290 258 301 q 261 271 254 279 q 279 263 268 263 q 300 271 290 263 q 313 290 310 279 q 307 310 314 301 q 289 318 300 318 m 300 290 q 282 276 297 276 q 269 290 267 276 q 286 306 272 306 q 297 301 293 306 q 300 290 301 297 m 294 354 q 265 367 275 354 q 257 399 254 379 q 274 431 260 418 q 308 443 289 443 q 338 431 328 443 q 346 399 349 418 q 328 367 343 379 q 294 354 314 354 m 306 426 q 285 418 294 426 q 274 399 276 410 q 278 379 271 388 q 297 371 286 371 q 317 379 308 371 q 329 399 326 388 q 324 418 332 410 q 306 426 317 426 m 317 399 q 299 383 314 383 q 286 399 283 383 q 304 414 289 414 q 317 399 319 414 m 311 464 q 281 477 292 464 q 274 508 271 490 q 292 541 276 528 q 326 554 307 554 q 356 541 346 554 q 363 508 365 528 q 345 477 360 490 q 311 464 331 464 m 324 536 q 303 528 313 536 q 290 508 293 519 q 296 490 289 497 q 314 482 303 482 q 335 490 325 482 q 346 508 344 497 q 342 528 349 519 q 324 536 335 536 m 333 508 q 328 499 333 503 q 317 494 324 494 q 303 508 303 494 q 321 524 306 524 q 333 508 336 524 m 331 575 q 300 588 311 575 q 292 619 289 600 q 310 652 294 639 q 344 665 325 665 q 374 652 364 665 q 382 619 385 639 q 365 588 379 600 q 331 575 350 575 m 342 647 q 322 639 331 647 q 310 619 313 631 q 315 600 307 608 q 333 592 322 592 q 353 600 344 592 q 365 619 363 608 q 360 639 368 631 q 342 647 353 647 m 351 619 q 336 606 349 606 q 325 610 329 606 q 322 619 321 614 q 340 635 325 635 q 351 619 354 635 m 347 685 q 317 697 328 685 q 310 729 307 710 q 327 762 313 749 q 361 775 342 775 q 391 762 381 775 q 399 729 401 749 q 381 697 396 710 q 347 685 367 685 m 358 757 q 338 749 347 757 q 326 729 328 740 q 331 710 324 718 q 349 701 338 701 q 369 710 360 701 q 382 729 379 718 q 376 749 383 740 q 358 757 369 757 m 369 729 q 351 714 367 714 q 339 729 336 714 q 356 744 342 744 q 367 740 363 744 q 369 729 371 736 m 365 794 q 335 808 346 794 q 326 839 324 821 q 344 872 329 858 q 379 885 360 885 q 409 872 399 885 q 417 839 419 858 q 399 808 414 821 q 365 794 385 794 m 376 867 q 356 858 365 867 q 344 839 347 850 q 349 820 342 828 q 368 813 357 813 q 388 820 379 813 q 400 839 397 828 q 395 858 403 850 q 376 867 388 867 m 386 839 q 371 825 383 825 q 360 828 364 825 q 357 839 356 832 q 375 854 360 854 q 386 839 389 854 z "},"J":{"ha":764,"x_min":78,"x_max":901,"o":"m 297 931 l 901 924 q 872 876 882 897 q 856 838 861 854 q 848 808 850 821 q 842 789 846 796 l 775 363 q 706 206 761 276 q 572 96 651 136 l 564 85 q 462 22 517 44 q 344 0 407 0 q 235 23 285 0 q 151 85 185 46 q 103 178 118 125 q 99 290 89 231 q 78 422 108 360 l 151 486 l 143 504 l 421 504 l 432 440 q 401 363 410 422 q 416 313 397 335 q 463 290 435 290 l 472 290 l 526 639 l 285 639 q 240 636 258 639 q 206 625 221 633 l 189 607 q 162 604 175 596 q 154 643 149 613 l 165 717 q 147 849 178 785 l 219 913 l 211 931 l 297 931 m 279 686 q 273 682 275 683 q 271 678 271 681 l 279 686 m 578 99 l 581 103 q 578 99 581 99 m 851 888 q 852 892 854 890 q 847 894 850 894 l 290 894 l 268 894 q 265 888 258 894 q 274 789 286 863 l 265 735 l 263 714 q 265 708 261 708 q 271 710 268 707 q 371 735 294 735 l 638 735 l 621 628 l 596 468 l 579 363 q 537 287 572 318 q 457 256 501 256 q 386 287 413 256 q 367 363 360 318 q 383 424 372 399 q 410 461 394 450 q 412 466 414 464 q 407 468 410 468 l 383 468 l 224 468 l 201 468 q 197 461 193 468 q 210 424 208 450 q 207 363 213 399 q 212 260 199 308 q 256 174 225 211 q 331 117 286 138 q 431 96 376 96 q 538 117 486 96 q 632 174 590 138 q 702 260 674 211 q 739 363 731 308 l 806 789 q 851 888 818 858 m 703 779 q 687 806 689 789 q 696 839 685 824 q 726 860 708 854 q 760 856 744 865 q 776 828 775 846 q 765 794 778 811 q 736 774 754 779 q 703 779 718 769 m 749 840 q 728 844 739 847 q 710 831 717 840 q 704 810 703 821 q 714 793 706 800 q 734 790 722 788 q 753 804 746 793 q 759 824 760 814 q 749 840 758 835 m 743 810 q 721 804 733 797 q 719 824 713 813 q 740 829 729 838 q 743 810 753 822 m 604 779 q 589 806 590 789 q 599 839 588 824 q 628 860 611 854 q 661 856 646 865 q 678 828 676 846 q 668 794 681 811 q 638 774 657 779 q 604 779 619 769 m 650 840 q 631 844 642 847 q 611 831 619 840 q 606 810 604 821 q 617 793 607 800 q 636 790 625 788 q 654 804 647 793 q 662 824 663 814 q 650 840 661 835 m 644 810 q 635 803 642 804 q 624 804 629 801 q 621 824 614 811 q 642 829 631 838 q 644 810 654 822 m 407 779 q 391 806 393 789 q 400 839 389 824 q 431 860 413 854 q 464 856 449 865 q 481 828 479 846 q 471 794 483 811 q 441 774 460 779 q 407 779 422 769 m 453 840 q 433 844 444 847 q 414 831 421 840 q 408 810 407 821 q 418 793 410 800 q 439 790 428 788 q 457 804 450 793 q 464 824 465 814 q 453 840 463 835 m 447 810 q 426 804 438 797 q 424 824 417 811 q 444 829 433 838 q 447 810 457 822 m 506 782 q 489 810 490 792 q 500 843 488 828 q 529 863 511 858 q 563 860 547 868 q 578 832 576 850 q 569 799 581 814 q 538 778 557 783 q 506 782 519 772 m 551 844 q 531 847 542 850 q 513 835 519 844 q 506 813 506 824 q 515 797 507 803 q 537 794 525 790 q 556 807 549 797 q 561 827 563 817 q 551 844 560 838 m 544 814 q 535 807 542 808 q 525 808 529 806 q 519 817 519 811 q 522 828 518 822 q 543 833 532 840 q 544 814 554 825 m 313 779 q 297 806 299 789 q 306 839 294 824 q 336 860 318 854 q 369 856 354 865 q 386 828 385 846 q 375 794 388 811 q 346 774 364 779 q 313 779 328 769 m 357 840 q 338 844 349 847 q 319 831 326 840 q 314 810 313 821 q 324 793 315 800 q 344 790 332 788 q 363 804 356 793 q 369 824 369 814 q 357 840 368 835 m 353 810 q 332 804 343 797 q 329 824 322 811 q 350 829 339 838 q 353 810 363 822 m 624 231 q 594 243 606 231 q 586 275 583 256 q 604 306 589 293 q 638 319 619 319 q 667 306 657 319 q 675 275 678 293 q 658 243 672 256 q 624 231 643 231 m 635 301 q 604 275 608 301 q 608 256 601 264 q 626 247 615 247 q 647 256 638 247 q 658 275 656 264 q 653 294 661 286 q 635 301 646 301 m 646 275 q 628 260 643 260 q 617 275 614 260 q 632 289 619 289 q 643 285 639 289 q 646 275 647 281 m 539 153 q 509 165 519 153 q 501 197 499 178 q 519 228 504 215 q 553 242 533 242 q 582 228 571 242 q 590 197 593 215 q 572 165 588 178 q 539 153 557 153 m 550 224 q 530 216 539 224 q 518 197 521 208 q 523 178 515 186 q 542 169 531 169 q 561 178 553 169 q 572 197 569 186 q 568 216 575 208 q 550 224 561 224 m 560 197 q 543 182 557 182 q 531 197 528 182 q 549 211 533 211 q 560 197 563 211 m 439 132 q 408 144 419 132 q 400 175 397 157 q 418 207 403 194 q 453 219 433 219 q 482 207 472 219 q 489 175 492 194 q 472 144 486 157 q 439 132 458 132 m 450 203 q 430 194 439 203 q 418 175 421 186 q 423 156 417 164 q 440 149 429 149 q 461 156 451 149 q 472 175 471 164 q 468 194 475 186 q 450 203 461 203 m 460 175 q 455 165 460 168 q 443 161 450 161 q 431 175 431 161 q 447 190 433 190 q 460 175 463 190 m 342 169 q 313 182 324 169 q 306 213 303 194 q 323 244 308 232 q 356 257 338 257 q 386 244 375 257 q 394 213 397 232 q 376 182 392 194 q 342 169 361 169 m 353 240 q 333 232 342 240 q 322 213 324 224 q 326 194 319 201 q 344 186 333 186 q 365 194 356 186 q 376 213 374 201 q 371 232 378 224 q 353 240 364 240 m 364 213 q 346 199 361 199 q 335 213 332 199 q 350 228 338 228 q 361 224 357 228 q 364 213 365 219 m 282 258 q 252 272 263 258 q 244 303 242 285 q 262 335 247 322 q 296 347 276 347 q 325 335 314 347 q 333 303 336 322 q 315 272 331 285 q 282 258 300 258 m 293 331 q 273 322 282 331 q 261 303 264 314 q 266 284 258 292 q 285 276 274 276 q 304 284 296 276 q 315 303 313 292 q 311 322 318 314 q 293 331 304 331 m 303 303 q 286 289 300 289 q 274 303 271 289 q 292 317 276 317 q 303 303 306 317 m 290 360 q 262 372 272 360 q 254 404 251 385 q 271 435 257 422 q 303 447 285 447 q 333 435 322 447 q 342 404 344 422 q 324 372 339 385 q 290 360 310 360 m 301 431 q 281 423 290 431 q 271 404 272 415 q 274 385 268 393 q 292 376 281 376 q 313 385 303 376 q 325 404 322 393 q 319 423 326 415 q 301 431 313 431 m 313 404 q 294 389 310 389 q 283 404 281 389 q 299 418 286 418 q 310 415 306 418 q 313 404 314 411 m 654 339 q 626 351 636 339 q 618 383 615 364 q 635 415 621 401 q 668 428 650 428 q 698 415 688 428 q 706 383 708 401 q 688 351 703 364 q 654 339 674 339 m 665 410 q 646 402 654 410 q 635 383 638 394 q 639 364 632 372 q 657 356 646 356 q 677 364 668 356 q 689 383 686 372 q 684 402 692 394 q 665 410 676 410 m 676 383 q 658 368 674 368 q 647 383 644 368 q 664 397 650 397 q 676 383 679 397 m 674 449 q 644 461 656 449 q 636 493 633 474 q 654 524 639 511 q 688 536 669 536 q 717 524 707 536 q 725 493 728 511 q 708 461 722 474 q 674 449 693 449 m 685 519 q 665 512 674 519 q 654 493 656 504 q 658 474 651 482 q 676 465 665 465 q 696 474 688 465 q 707 493 704 482 q 702 512 708 504 q 685 519 696 519 m 694 493 q 678 478 692 478 q 667 493 664 478 q 682 507 669 507 q 694 493 697 507 m 689 556 q 660 569 671 556 q 653 600 650 582 q 670 632 656 619 q 703 644 685 644 q 733 632 722 644 q 740 600 743 619 q 723 569 738 582 q 689 556 708 556 m 700 628 q 681 619 689 628 q 669 600 672 611 q 674 581 667 589 q 692 574 681 574 q 712 581 703 574 q 724 600 721 589 q 719 619 726 611 q 700 628 711 628 m 711 600 q 693 586 708 586 q 682 600 679 586 q 699 615 685 615 q 711 600 714 615 m 707 664 q 678 676 689 664 q 669 708 667 689 q 688 740 672 728 q 721 753 703 753 q 751 740 740 753 q 758 708 761 728 q 741 676 756 689 q 707 664 726 664 m 718 736 q 699 728 707 736 q 688 708 690 719 q 692 689 686 697 q 710 681 699 681 q 730 689 721 681 q 740 708 739 697 q 736 728 743 719 q 718 736 729 736 m 728 708 q 713 693 725 693 q 700 708 697 693 q 717 724 703 724 q 728 708 731 724 z "},"K":{"ha":747,"x_min":19,"x_max":888,"o":"m 731 206 q 729 140 725 174 q 751 65 733 106 l 725 61 l 654 0 l 328 0 l 353 25 l 388 61 l 374 61 l 304 0 l 181 0 l 19 0 q 44 31 35 14 q 57 67 53 49 q 63 101 61 85 q 68 133 65 118 l 161 732 q 144 825 171 799 q 140 840 139 831 q 149 854 142 849 l 211 908 q 225 935 210 922 q 272 949 240 949 l 482 949 q 527 928 518 949 q 517 890 536 907 q 488 855 501 876 q 469 804 475 833 l 460 742 l 449 647 q 499 663 476 653 q 506 684 503 674 q 511 701 510 694 l 517 732 q 516 788 522 764 q 496 825 510 811 q 495 838 490 831 q 506 850 500 844 l 565 901 q 588 933 568 917 q 624 949 607 949 l 833 949 q 878 928 869 949 q 868 890 888 907 q 841 856 851 876 q 825 804 831 836 l 821 775 q 775 645 810 706 q 688 532 740 585 q 743 286 767 431 l 731 206 m 435 214 q 428 279 440 249 q 394 325 417 310 l 375 206 q 376 144 371 178 q 397 76 382 111 q 413 106 407 92 q 422 133 419 119 l 435 214 m 699 97 q 703 104 710 97 q 694 206 682 129 l 703 260 l 707 286 q 699 422 718 357 q 633 532 681 486 q 735 641 696 578 q 785 775 774 704 l 789 804 q 829 901 801 882 q 833 908 832 904 q 828 913 833 913 l 618 913 q 613 908 615 913 q 611 901 610 904 q 625 804 638 879 l 621 775 q 598 710 615 740 q 555 658 581 681 q 497 624 529 636 q 432 611 465 611 l 403 611 l 424 742 l 433 804 q 478 901 446 879 q 481 908 481 904 q 476 913 482 913 l 267 913 q 260 908 261 913 q 260 901 258 904 q 276 866 274 890 q 271 804 278 842 l 176 206 q 133 104 164 129 q 131 99 131 101 q 138 97 132 97 l 268 97 l 322 97 l 347 97 q 351 104 358 97 q 339 206 326 133 l 347 260 l 365 369 l 378 449 l 407 449 q 468 436 440 449 q 514 401 496 424 q 540 349 532 379 q 543 286 549 319 l 539 260 l 531 206 q 485 104 518 133 q 484 99 482 101 q 489 97 486 97 l 699 97 m 246 126 q 216 140 226 126 q 208 172 206 153 q 226 204 211 192 q 260 217 240 217 q 290 204 279 217 q 297 172 300 192 q 280 140 294 153 q 246 126 265 126 m 257 200 q 237 192 246 200 q 225 172 228 183 q 230 153 222 161 q 249 144 238 144 q 269 153 260 144 q 281 172 278 161 q 276 192 283 183 q 257 200 268 200 m 268 172 q 250 157 265 157 q 238 172 235 157 q 256 186 240 186 q 268 172 271 186 m 264 240 q 234 253 244 240 q 226 285 224 265 q 244 317 229 304 q 278 331 258 331 q 308 317 297 331 q 315 285 318 304 q 298 253 313 265 q 264 240 283 240 m 275 313 q 255 304 264 313 q 243 285 246 296 q 248 265 240 274 q 267 257 256 257 q 287 265 278 257 q 299 285 296 274 q 294 304 301 296 q 275 313 286 313 m 286 285 q 268 271 283 271 q 256 285 253 271 q 274 300 258 300 q 286 285 289 300 m 281 349 q 251 362 261 349 q 243 394 240 375 q 261 426 246 414 q 296 439 276 439 q 325 426 315 439 q 332 394 335 414 q 315 362 329 375 q 281 349 300 349 m 293 422 q 272 414 282 422 q 260 394 263 406 q 265 375 258 383 q 283 367 272 367 q 304 375 294 367 q 315 394 314 383 q 311 414 318 406 q 293 422 304 422 m 303 394 q 298 383 303 388 q 286 379 293 379 q 272 394 272 379 q 290 408 275 408 q 303 394 306 408 m 299 460 q 269 472 279 460 q 261 504 258 485 q 278 537 264 524 q 313 550 293 550 q 342 537 332 550 q 350 504 353 524 q 333 472 347 485 q 299 460 318 460 m 310 532 q 290 524 299 532 q 278 504 281 515 q 283 485 275 493 q 301 476 290 476 q 322 485 313 476 q 333 504 331 493 q 328 524 336 515 q 310 532 321 532 m 321 504 q 303 490 318 490 q 290 504 288 490 q 308 519 293 519 q 321 504 324 519 m 318 571 q 288 584 299 571 q 279 617 276 597 q 297 649 282 636 q 332 661 313 661 q 362 649 351 661 q 369 617 372 636 q 352 584 367 597 q 318 571 338 571 m 329 643 q 308 635 318 643 q 297 617 299 628 q 302 597 294 606 q 321 589 310 589 q 341 597 332 589 q 353 617 350 606 q 347 635 354 628 q 329 643 340 643 m 339 617 q 322 601 336 601 q 310 617 307 601 q 326 631 313 631 q 339 617 342 631 m 333 681 q 303 694 314 681 q 296 726 293 707 q 313 758 299 744 q 347 771 328 771 q 377 758 367 771 q 385 726 388 744 q 367 694 382 707 q 333 681 353 681 m 346 754 q 325 746 335 754 q 313 726 315 738 q 318 707 311 715 q 336 699 325 699 q 357 707 347 699 q 368 726 367 715 q 364 746 371 738 q 346 754 357 754 m 356 726 q 339 711 353 711 q 328 715 332 711 q 325 726 324 719 q 343 740 328 740 q 356 726 358 740 m 353 792 q 322 804 333 792 q 314 836 311 817 q 332 869 317 856 q 367 882 347 882 q 397 869 386 882 q 404 836 407 856 q 387 804 401 817 q 353 792 372 792 m 364 864 q 344 856 353 864 q 332 836 335 847 q 337 817 329 825 q 356 808 344 808 q 376 817 367 808 q 388 836 385 825 q 383 856 390 847 q 364 864 375 864 m 374 836 q 357 822 371 822 q 344 836 342 822 q 363 851 347 851 q 374 836 376 851 m 400 490 q 370 503 381 490 q 363 535 360 515 q 381 567 365 554 q 415 581 396 581 q 445 567 435 581 q 453 535 456 554 q 435 503 450 515 q 400 490 419 490 m 413 563 q 392 554 401 563 q 379 535 382 546 q 385 515 378 524 q 403 507 392 507 q 424 515 414 507 q 435 535 433 524 q 431 554 438 546 q 413 563 424 563 m 422 535 q 417 524 422 528 q 406 521 413 521 q 393 535 393 521 q 410 550 396 550 q 422 535 425 550 m 518 493 q 489 506 500 493 q 481 539 478 519 q 499 571 483 558 q 532 583 514 583 q 563 571 551 583 q 571 539 574 558 q 553 506 568 519 q 518 493 538 493 m 529 567 q 509 558 518 567 q 497 539 500 550 q 502 519 494 528 q 521 511 510 511 q 541 519 532 511 q 553 539 550 528 q 548 558 556 550 q 529 567 540 567 m 540 539 q 522 524 538 524 q 511 539 508 524 q 528 553 514 553 q 540 539 543 553 m 615 579 q 585 592 596 579 q 578 624 575 604 q 595 656 581 643 q 629 669 610 669 q 660 656 649 669 q 668 624 671 643 q 650 592 665 604 q 615 579 635 579 m 626 651 q 606 643 615 651 q 594 624 596 635 q 599 604 592 613 q 617 596 606 596 q 638 604 628 596 q 650 624 647 613 q 644 643 651 635 q 626 651 638 651 m 638 624 q 619 608 635 608 q 608 624 606 608 q 624 639 611 639 q 635 635 631 639 q 638 624 639 631 m 681 686 q 651 699 661 686 q 643 732 640 713 q 660 764 646 751 q 694 776 675 776 q 724 764 714 776 q 732 732 735 751 q 715 699 729 713 q 681 686 700 686 m 692 760 q 672 751 681 760 q 660 732 663 743 q 665 713 657 721 q 683 704 672 704 q 703 713 694 704 q 715 732 713 721 q 710 751 718 743 q 692 760 703 760 m 703 732 q 685 717 700 717 q 672 732 669 717 q 690 747 675 747 q 703 732 706 747 m 710 794 q 679 808 690 794 q 671 840 668 821 q 689 872 674 860 q 724 885 704 885 q 753 872 743 885 q 761 840 764 860 q 744 808 758 821 q 710 794 729 794 m 721 868 q 701 860 710 868 q 689 840 692 851 q 694 821 688 829 q 713 813 701 813 q 733 821 724 813 q 744 840 743 829 q 740 860 747 851 q 721 868 732 868 m 732 840 q 715 825 729 825 q 704 829 708 825 q 701 840 700 833 q 719 856 704 856 q 732 840 735 856 m 575 418 q 544 431 556 418 q 536 463 533 443 q 554 495 539 482 q 589 508 569 508 q 618 495 607 508 q 626 463 629 482 q 608 431 624 443 q 575 418 593 418 m 586 490 q 566 482 575 490 q 554 463 557 474 q 560 444 553 451 q 578 436 567 436 q 599 444 589 436 q 610 463 608 451 q 605 482 613 474 q 586 490 597 490 m 596 463 q 581 449 593 449 q 569 453 574 449 q 567 463 565 457 q 585 478 569 478 q 596 463 599 478 m 614 326 q 583 339 594 326 q 575 371 572 351 q 593 403 578 390 q 628 417 608 417 q 657 403 646 417 q 665 371 668 390 q 647 339 663 351 q 614 326 632 326 m 625 399 q 605 390 614 399 q 593 371 596 382 q 598 351 590 360 q 617 343 606 343 q 636 351 628 343 q 647 371 644 360 q 643 390 650 382 q 625 399 636 399 m 635 371 q 618 356 632 356 q 606 371 603 356 q 624 386 608 386 q 635 371 638 386 m 621 217 q 591 230 601 217 q 583 263 581 243 q 601 294 586 282 q 636 307 617 307 q 666 294 656 307 q 674 263 676 282 q 656 230 671 243 q 621 217 640 217 m 633 290 q 613 282 622 290 q 600 263 603 274 q 606 243 599 251 q 624 235 613 235 q 644 243 635 235 q 656 263 654 251 q 651 282 658 274 q 633 290 644 290 m 643 263 q 626 247 640 247 q 614 263 611 247 q 631 278 617 278 q 643 263 646 278 m 593 111 q 563 124 574 111 q 556 157 553 138 q 573 189 558 176 q 607 201 588 201 q 638 189 626 201 q 646 157 649 176 q 628 124 643 138 q 593 111 613 111 m 606 185 q 585 176 594 185 q 574 157 576 168 q 578 138 572 146 q 596 129 585 129 q 617 138 607 129 q 628 157 626 146 q 624 176 631 168 q 606 185 617 185 m 615 157 q 599 142 613 142 q 586 157 583 142 q 603 172 589 172 q 615 157 618 172 z "},"L":{"ha":675,"x_min":28,"x_max":682,"o":"m 35 50 q 71 133 61 76 l 165 729 q 160 808 174 789 q 144 830 144 817 q 156 851 144 843 l 222 908 q 239 933 225 922 q 274 944 253 944 l 479 944 q 506 936 496 944 q 517 915 515 928 q 513 889 519 903 q 489 865 506 875 l 490 869 q 472 801 481 858 l 392 296 l 518 296 q 565 297 547 296 q 588 303 583 297 l 583 303 q 610 323 596 318 q 637 324 625 328 q 656 309 649 319 q 660 282 663 299 l 647 206 q 647 153 642 174 q 663 119 651 133 q 669 82 682 97 q 632 61 657 67 l 574 11 q 529 0 560 0 l 53 0 q 37 1 42 0 q 30 6 32 1 q 28 19 28 10 q 32 47 29 29 l 35 50 m 264 899 q 276 863 272 888 q 274 801 281 839 l 188 260 l 179 206 q 161 144 172 168 q 139 108 150 119 q 133 101 132 106 q 138 97 135 97 l 140 97 l 596 97 l 617 97 q 622 108 631 97 q 613 206 600 128 l 621 260 l 625 282 q 621 289 625 288 q 614 285 617 290 q 513 260 589 260 l 350 260 l 367 368 l 376 422 l 401 585 l 419 693 l 436 801 q 452 863 443 839 q 476 899 461 888 q 481 905 482 901 q 474 908 481 908 l 268 908 q 260 905 263 908 q 264 899 258 901 m 250 125 q 219 138 231 125 q 211 169 208 150 q 229 201 214 189 q 264 214 244 214 q 293 201 282 214 q 301 169 304 189 q 283 138 299 150 q 250 125 268 125 m 261 197 q 241 189 250 197 q 229 169 232 181 q 234 150 226 158 q 253 142 242 142 q 273 150 264 142 q 285 169 282 158 q 280 189 288 181 q 261 197 272 197 m 271 169 q 254 154 268 154 q 242 169 239 154 q 258 183 244 183 q 271 169 274 183 m 383 125 q 353 138 364 125 q 344 169 342 150 q 363 201 347 189 q 397 214 378 214 q 426 201 415 214 q 435 169 438 189 q 417 138 432 150 q 383 125 401 125 m 394 197 q 374 189 383 197 q 363 169 365 181 q 367 150 360 158 q 386 142 375 142 q 406 150 397 142 q 417 169 414 158 q 413 189 419 181 q 394 197 406 197 m 404 169 q 388 154 401 154 q 375 169 372 154 q 392 183 378 183 q 401 180 397 183 q 404 169 406 176 m 513 125 q 483 138 493 125 q 475 169 472 150 q 492 201 478 189 q 526 214 507 214 q 556 201 546 214 q 564 169 567 189 q 547 138 561 150 q 513 125 532 125 m 524 197 q 503 189 513 197 q 492 169 494 181 q 497 150 489 158 q 515 142 504 142 q 535 150 526 142 q 547 169 544 158 q 542 189 550 181 q 524 197 535 197 m 535 169 q 517 154 532 154 q 504 169 501 154 q 521 183 507 183 q 532 180 528 183 q 535 169 536 176 m 268 238 q 238 251 249 238 q 229 282 226 264 q 247 315 232 301 q 282 328 263 328 q 311 315 300 328 q 319 282 322 301 q 301 251 317 264 q 268 238 286 238 m 279 310 q 258 301 268 310 q 247 282 249 293 q 252 263 244 271 q 271 256 260 256 q 291 263 282 256 q 303 282 300 271 q 297 301 304 293 q 279 310 290 310 m 289 282 q 272 268 286 268 q 260 282 257 268 q 276 297 263 297 q 289 282 292 297 m 285 346 q 254 359 265 346 q 246 390 243 372 q 264 423 249 410 q 299 436 279 436 q 328 423 317 436 q 336 390 339 410 q 318 359 333 372 q 285 346 303 346 m 296 418 q 276 410 285 418 q 264 390 267 401 q 269 372 261 379 q 288 364 276 364 q 308 372 299 364 q 319 390 317 379 q 315 410 322 401 q 296 418 307 418 m 306 390 q 289 376 303 376 q 276 390 274 376 q 294 406 279 406 q 306 390 308 406 m 301 456 q 272 469 282 456 q 264 501 261 482 q 282 533 267 519 q 317 546 297 546 q 346 533 335 546 q 354 501 357 519 q 335 469 351 482 q 301 456 319 456 m 314 528 q 293 520 303 528 q 282 501 283 513 q 287 482 279 490 q 306 474 294 474 q 326 482 317 474 q 338 501 335 490 q 314 528 340 528 m 324 501 q 307 486 321 486 q 294 501 292 486 q 311 515 297 515 q 324 501 326 515 m 319 567 q 290 580 300 567 q 282 613 279 593 q 299 644 285 631 q 333 657 314 657 q 364 644 353 657 q 372 613 375 631 q 354 580 369 593 q 319 567 339 567 m 331 639 q 310 631 319 639 q 299 613 301 624 q 304 593 297 601 q 322 585 311 585 q 343 593 333 585 q 354 613 353 601 q 349 631 357 624 q 331 639 342 639 m 342 613 q 325 597 339 597 q 313 613 310 597 q 329 626 315 626 q 342 613 344 626 m 338 676 q 307 690 318 676 q 299 721 296 703 q 317 753 301 740 q 351 767 332 767 q 381 753 369 767 q 389 721 392 740 q 371 690 386 703 q 338 676 356 676 m 349 749 q 328 740 338 749 q 317 721 318 732 q 322 701 314 710 q 340 693 329 693 q 360 701 351 693 q 372 721 369 710 q 367 740 374 732 q 349 749 360 749 m 358 721 q 342 707 356 707 q 329 721 326 707 q 346 736 332 736 q 358 721 361 736 m 354 786 q 324 799 335 786 q 317 832 314 813 q 334 864 319 851 q 368 876 349 876 q 399 864 388 876 q 407 832 410 851 q 389 799 404 813 q 354 786 374 786 m 367 860 q 346 851 356 860 q 333 832 336 843 q 339 813 332 821 q 357 804 346 804 q 378 813 368 804 q 389 832 388 821 q 385 851 392 843 q 367 860 378 860 m 376 832 q 360 817 374 817 q 347 832 344 817 q 364 846 350 846 q 376 832 379 846 z "},"M":{"ha":951,"x_min":11,"x_max":1068,"o":"m 781 910 q 799 937 786 925 q 824 949 813 949 l 1032 949 q 1058 940 1050 949 q 1067 920 1067 932 q 1062 896 1068 908 q 1044 874 1056 883 l 1044 876 q 1024 804 1035 872 l 929 210 q 928 142 925 178 q 950 65 932 106 l 925 65 l 843 0 l 11 0 q 64 72 51 38 q 81 138 76 107 l 175 732 q 174 788 181 764 q 154 826 168 813 q 154 839 150 832 q 165 851 158 846 l 222 901 q 245 933 225 918 q 282 949 265 949 l 490 949 q 517 941 507 949 q 530 922 526 933 q 528 899 533 911 q 511 876 524 886 q 501 863 508 871 q 493 851 493 854 l 490 840 q 531 676 510 753 q 574 515 551 600 l 718 765 l 713 761 q 717 768 717 767 q 715 775 718 769 q 714 797 715 789 q 711 808 713 806 q 706 835 700 819 q 721 858 711 850 l 781 910 m 951 913 l 818 913 q 812 908 815 913 q 811 901 808 904 q 826 858 826 890 q 826 844 828 850 q 822 826 825 838 l 568 386 l 457 826 q 455 844 454 838 q 457 858 456 850 q 472 885 464 875 q 486 901 479 896 q 492 908 493 904 q 485 913 492 913 l 410 913 l 276 913 q 271 908 274 913 q 269 901 268 904 q 283 804 296 879 l 189 210 q 172 147 183 171 q 144 108 160 122 q 147 101 138 101 l 356 101 q 361 108 371 101 q 348 147 350 122 q 351 210 346 171 l 357 238 l 357 242 l 386 422 l 442 192 q 440 108 456 138 q 443 101 433 101 l 606 101 q 610 103 608 101 q 610 108 613 106 q 633 192 603 136 l 764 418 l 731 210 q 713 147 725 171 q 686 108 701 122 q 684 103 682 106 q 689 101 686 101 l 897 101 q 903 108 906 101 q 890 147 892 122 q 893 210 888 171 l 903 264 l 936 479 l 964 650 l 971 696 l 979 750 l 988 804 q 1028 901 1000 882 q 1031 908 1031 904 q 1026 913 1032 913 l 951 913 m 806 136 q 775 149 786 136 q 767 181 764 161 q 785 213 769 200 q 819 226 800 226 q 849 213 838 226 q 857 181 860 200 q 839 149 854 161 q 806 136 824 136 m 817 208 q 797 200 806 208 q 785 181 788 192 q 790 161 783 169 q 808 153 797 153 q 828 161 819 153 q 839 181 838 169 q 835 200 842 192 q 817 208 828 208 m 826 181 q 811 167 824 167 q 800 171 804 167 q 797 181 796 175 q 815 196 800 196 q 826 181 829 196 m 824 249 q 793 262 804 249 q 785 294 782 275 q 803 326 788 314 q 838 339 818 339 q 867 326 856 339 q 875 294 878 314 q 857 262 872 275 q 824 249 842 249 m 835 322 q 815 314 824 322 q 803 294 806 306 q 808 275 800 283 q 826 267 815 267 q 846 275 838 267 q 857 294 854 283 q 853 314 860 306 q 835 322 846 322 m 844 294 q 828 279 842 279 q 815 294 813 279 q 833 308 818 308 q 844 294 847 308 m 840 358 q 810 371 821 358 q 801 403 799 383 q 819 435 804 422 q 854 447 835 447 q 883 435 872 447 q 892 403 894 422 q 874 371 889 383 q 840 358 858 358 m 853 431 q 832 422 842 431 q 819 403 822 414 q 825 383 818 392 q 843 375 832 375 q 863 383 854 375 q 874 403 872 392 q 870 422 876 414 q 853 431 864 431 m 861 403 q 846 388 858 388 q 835 392 839 388 q 832 403 831 396 q 850 418 835 418 q 861 403 864 418 m 858 468 q 828 481 839 468 q 819 513 817 493 q 838 544 822 532 q 872 557 853 557 q 901 544 890 557 q 910 513 913 532 q 892 481 907 493 q 858 468 876 468 m 869 540 q 849 532 858 540 q 838 513 840 524 q 842 493 835 501 q 861 485 850 485 q 881 493 872 485 q 892 513 889 501 q 888 532 894 524 q 869 540 881 540 m 879 513 q 863 497 876 497 q 850 513 847 497 q 868 528 853 528 q 879 513 882 528 m 876 579 q 847 592 857 579 q 839 624 836 604 q 856 656 842 643 q 890 668 871 668 q 921 656 910 668 q 929 624 932 643 q 911 592 926 604 q 876 579 896 579 m 888 651 q 867 643 876 651 q 856 624 857 635 q 860 604 853 613 q 878 596 867 596 q 899 604 889 596 q 911 624 908 613 q 906 643 913 635 q 888 651 899 651 m 899 624 q 881 608 896 608 q 868 624 865 608 q 885 639 871 639 q 896 635 892 639 q 899 624 900 631 m 893 688 q 863 701 874 688 q 854 733 851 714 q 872 765 857 753 q 907 778 888 778 q 936 765 925 778 q 944 733 947 753 q 926 701 942 714 q 893 688 911 688 m 904 761 q 884 753 893 761 q 872 733 875 744 q 877 714 869 722 q 896 706 885 706 q 915 714 907 706 q 926 733 924 722 q 922 753 929 744 q 904 761 915 761 m 914 733 q 897 718 911 718 q 885 733 882 718 q 903 747 888 747 q 914 733 917 747 m 911 799 q 881 811 892 799 q 874 843 871 824 q 891 875 876 863 q 925 888 906 888 q 956 875 944 888 q 964 843 967 863 q 946 811 961 824 q 911 799 931 799 m 922 871 q 901 863 911 871 q 890 843 892 854 q 894 824 888 832 q 913 815 901 815 q 933 824 924 815 q 946 843 943 832 q 940 863 947 854 q 922 871 933 871 m 933 843 q 915 829 931 829 q 903 843 900 829 q 919 858 906 858 q 931 854 926 858 q 933 843 935 850 m 254 136 q 224 149 235 136 q 215 182 213 163 q 233 214 218 201 q 268 226 249 226 q 298 214 288 226 q 306 182 308 201 q 288 149 303 163 q 254 136 274 136 m 265 210 q 245 201 254 210 q 233 182 236 193 q 239 163 232 171 q 257 154 246 154 q 278 163 268 154 q 289 182 288 171 q 284 201 292 193 q 265 210 276 210 m 275 182 q 260 167 272 167 q 249 171 253 167 q 246 182 244 175 q 264 197 249 197 q 275 182 278 197 m 272 250 q 242 263 253 250 q 233 294 231 275 q 251 327 236 314 q 286 340 267 340 q 316 327 306 340 q 324 294 326 314 q 306 263 321 275 q 272 250 292 250 m 283 322 q 263 314 272 322 q 251 294 254 306 q 256 275 249 283 q 275 267 264 267 q 295 275 286 267 q 307 294 304 283 q 302 314 310 306 q 283 322 294 322 m 293 294 q 276 281 290 281 q 264 294 261 281 q 282 310 267 310 q 293 294 296 310 m 289 358 q 258 372 269 358 q 250 403 247 385 q 269 435 253 422 q 304 449 285 449 q 333 435 324 449 q 340 403 343 422 q 323 372 338 385 q 289 358 308 358 m 301 431 q 281 422 290 431 q 268 403 271 414 q 292 376 265 376 q 313 384 303 376 q 324 403 322 392 q 319 422 326 414 q 301 431 313 431 m 310 403 q 294 389 307 389 q 283 392 288 389 q 281 403 279 396 q 299 418 283 418 q 310 403 313 418 m 307 468 q 276 481 288 468 q 268 514 265 494 q 286 546 271 533 q 321 558 301 558 q 351 546 340 558 q 358 514 361 533 q 341 481 356 494 q 307 468 326 468 m 318 542 q 298 533 307 542 q 286 514 289 525 q 291 494 283 503 q 310 486 299 486 q 330 494 321 486 q 342 514 339 503 q 337 533 344 525 q 318 542 329 542 m 328 514 q 311 499 325 499 q 299 514 296 499 q 317 528 301 528 q 328 514 331 528 m 325 579 q 296 592 307 579 q 288 625 285 606 q 306 656 290 643 q 339 669 321 669 q 369 656 358 669 q 378 625 381 643 q 360 592 375 606 q 325 579 344 579 m 336 651 q 316 644 325 651 q 306 625 307 636 q 310 606 303 614 q 328 597 317 597 q 348 606 339 597 q 360 625 357 614 q 354 644 361 636 q 336 651 347 651 m 347 625 q 329 610 344 610 q 318 625 315 610 q 333 639 321 639 q 344 635 340 639 q 347 625 349 631 m 342 689 q 311 701 322 689 q 303 733 300 714 q 321 766 306 753 q 356 779 336 779 q 385 766 375 779 q 393 733 396 753 q 376 701 390 714 q 342 689 361 689 m 353 761 q 333 753 342 761 q 321 733 324 744 q 326 714 318 722 q 344 706 333 706 q 365 714 356 706 q 376 733 374 722 q 372 753 379 744 q 353 761 364 761 m 363 733 q 347 719 360 719 q 336 723 340 719 q 333 733 332 726 q 351 749 336 749 q 363 733 365 749 m 418 554 q 388 567 399 554 q 381 600 378 581 q 398 631 383 618 q 432 644 413 644 q 463 631 451 644 q 471 600 474 618 q 453 567 468 581 q 418 554 438 554 m 429 626 q 409 619 418 626 q 397 600 400 611 q 402 581 394 589 q 421 572 410 572 q 441 581 432 572 q 453 600 450 589 q 448 619 456 611 q 429 626 440 626 m 440 600 q 422 585 438 585 q 411 600 408 585 q 428 614 414 614 q 440 600 443 614 m 439 454 q 410 467 421 454 q 403 500 400 481 q 421 531 406 518 q 454 544 436 544 q 485 531 474 544 q 493 500 496 518 q 474 467 490 481 q 439 454 458 454 m 451 526 q 431 519 440 526 q 421 500 422 511 q 424 481 418 489 q 442 472 431 472 q 463 481 453 472 q 475 500 472 489 q 469 519 476 511 q 451 526 463 526 m 463 500 q 444 485 460 485 q 433 500 431 485 q 438 510 433 506 q 449 514 443 514 q 463 500 463 514 m 469 353 q 439 366 450 353 q 431 399 428 379 q 449 431 433 418 q 483 443 464 443 q 513 431 503 443 q 521 399 524 418 q 503 366 518 379 q 469 353 489 353 m 481 425 q 460 417 469 425 q 449 399 451 410 q 453 379 446 388 q 472 371 461 371 q 492 379 483 371 q 504 399 501 388 q 499 417 507 410 q 481 425 492 425 m 490 399 q 474 383 488 383 q 461 399 458 383 q 479 413 464 413 q 490 399 493 413 m 497 254 q 468 267 478 254 q 461 299 458 279 q 478 331 464 318 q 513 344 493 344 q 542 331 532 344 q 550 299 553 318 q 532 267 547 279 q 497 254 517 254 m 510 326 q 489 318 499 326 q 478 299 479 310 q 482 279 475 288 q 500 271 489 271 q 521 279 511 271 q 533 299 531 288 q 528 318 535 310 q 510 326 521 326 m 521 299 q 503 285 518 285 q 490 299 488 285 q 507 314 493 314 q 518 310 514 314 q 521 299 522 306 m 526 151 q 497 165 508 151 q 489 197 486 178 q 507 228 492 215 q 540 242 522 242 q 571 228 560 242 q 579 197 582 215 q 561 165 576 178 q 526 151 546 151 m 538 224 q 518 216 526 224 q 507 197 510 208 q 511 178 504 186 q 529 169 518 169 q 549 178 540 169 q 561 197 558 186 q 556 216 564 208 q 538 224 549 224 m 549 197 q 531 182 546 182 q 519 197 517 182 q 536 211 522 211 q 549 197 551 211 m 774 563 q 744 575 754 563 q 736 607 733 588 q 753 640 739 626 q 788 653 768 653 q 816 640 806 653 q 824 607 826 626 q 806 575 821 588 q 774 563 792 563 m 785 635 q 764 626 774 635 q 753 607 754 618 q 758 588 750 596 q 776 579 765 579 q 796 588 788 579 q 807 607 804 596 q 802 626 808 618 q 785 635 796 635 m 765 607 q 782 622 768 622 q 792 618 788 622 q 794 607 796 614 q 778 593 792 593 q 765 607 763 593 m 711 456 q 683 468 693 456 q 676 500 674 481 q 694 532 679 519 q 726 544 708 544 q 755 532 744 544 q 763 500 765 519 q 744 468 760 481 q 711 456 729 456 m 724 528 q 703 519 713 528 q 693 500 694 511 q 697 481 690 489 q 714 472 703 472 q 734 481 725 472 q 746 500 743 489 q 741 519 747 511 q 724 528 735 528 m 706 500 q 721 515 706 515 q 733 500 733 515 q 717 485 731 485 q 706 500 703 485 m 653 354 q 623 367 633 354 q 615 399 613 379 q 633 431 618 418 q 667 443 647 443 q 695 431 685 443 q 703 399 706 418 q 685 367 700 379 q 653 354 671 354 m 664 426 q 644 418 653 426 q 632 399 635 410 q 637 379 629 388 q 656 371 644 371 q 675 379 667 371 q 686 399 683 388 q 682 418 689 410 q 664 426 675 426 m 644 399 q 663 414 647 414 q 674 399 676 414 q 657 385 671 385 q 644 399 642 385 m 592 254 q 564 267 574 254 q 557 300 554 281 q 574 332 560 319 q 607 344 589 344 q 636 332 625 344 q 644 300 647 319 q 626 267 642 281 q 592 254 610 254 m 604 328 q 584 319 593 328 q 574 300 575 311 q 578 281 571 289 q 596 272 585 272 q 615 281 607 272 q 626 300 624 289 q 622 319 628 311 q 604 328 615 328 m 586 300 q 601 314 589 314 q 613 310 608 314 q 615 300 617 306 q 597 285 613 285 q 586 300 583 285 m 360 799 q 331 812 342 799 q 322 844 319 825 q 340 876 325 863 q 374 889 356 889 q 404 876 393 889 q 413 844 415 863 q 394 812 410 825 q 360 799 379 799 m 371 871 q 340 844 344 871 q 344 825 338 833 q 363 817 351 817 q 383 825 374 817 q 394 844 392 833 q 390 863 397 856 q 371 871 382 871 m 382 844 q 364 829 379 829 q 353 844 350 829 q 368 858 356 858 q 379 855 375 858 q 382 844 383 851 m 439 739 q 447 706 450 725 q 429 672 444 688 q 415 663 422 667 q 400 660 407 660 q 401 667 400 663 q 401 678 401 671 q 418 685 408 678 q 429 706 428 693 q 424 726 431 718 q 411 733 418 732 q 414 742 414 738 q 415 751 414 746 q 439 739 431 749 m 413 717 q 411 694 422 706 q 406 692 408 693 q 403 690 404 692 l 406 721 q 413 717 411 718 m 803 675 q 795 708 792 689 q 814 742 799 728 q 844 756 825 753 q 842 738 842 744 q 825 729 831 735 q 813 709 814 721 q 818 689 811 697 q 831 681 824 682 q 829 672 829 676 q 826 663 829 668 q 803 675 815 664 m 829 699 q 833 719 821 710 q 840 724 835 724 l 838 694 q 829 699 833 694 z "},"N":{"ha":788,"x_min":11,"x_max":918,"o":"m 56 0 q 18 15 25 0 q 24 40 11 29 l 44 54 q 72 133 64 79 l 167 732 q 157 815 178 799 q 164 858 153 847 l 226 910 q 278 949 229 949 l 488 949 q 524 944 513 949 q 535 929 535 939 q 526 905 535 919 q 504 869 518 890 l 489 847 q 488 820 488 836 q 492 793 488 804 l 543 707 l 547 732 q 538 815 558 797 q 544 858 533 847 l 607 910 q 657 949 610 949 l 868 949 q 904 945 893 949 q 917 934 915 942 q 911 914 918 926 q 893 883 904 901 q 870 852 881 872 q 856 804 860 832 l 761 207 q 763 153 757 176 q 779 119 768 131 q 781 85 793 103 q 744 61 769 68 l 683 11 q 644 0 668 0 l 435 0 q 413 6 419 0 q 407 22 407 13 q 412 42 407 32 q 425 58 417 51 l 429 61 q 439 81 436 68 q 449 108 442 93 q 449 137 453 119 q 442 163 446 154 l 388 254 l 381 207 q 382 153 376 176 q 399 119 388 131 q 401 85 414 103 q 364 61 389 68 l 303 11 q 265 0 289 0 l 56 0 m 265 901 q 275 804 288 882 l 189 261 l 181 207 q 165 144 174 168 q 140 108 156 119 q 137 101 138 106 q 143 97 136 97 l 353 97 q 359 101 358 97 q 357 108 360 106 q 344 207 332 133 l 371 369 l 379 424 l 394 525 l 550 250 q 560 217 557 233 q 557 178 564 200 q 541 135 550 153 q 521 108 532 117 q 517 101 518 106 q 522 97 517 97 l 733 97 q 740 101 739 97 q 738 108 740 106 q 722 144 726 119 q 724 207 717 168 l 818 804 q 863 901 831 879 q 863 913 869 913 l 651 913 q 646 901 642 913 q 656 804 668 882 l 639 696 l 621 586 l 608 500 l 458 771 q 446 813 446 793 q 454 858 446 833 q 482 901 464 890 q 482 913 489 913 l 272 913 q 265 901 261 913 m 253 129 q 222 142 233 129 q 214 174 211 154 q 232 206 217 193 q 267 218 247 218 q 297 206 286 218 q 304 174 307 193 q 287 142 301 154 q 253 129 272 129 m 264 201 q 244 193 253 201 q 232 174 235 185 q 238 154 231 163 q 256 146 244 146 q 276 154 267 146 q 288 174 286 163 q 283 193 290 185 q 264 201 275 201 m 274 174 q 258 158 271 158 q 247 163 251 158 q 244 174 243 167 q 263 189 247 189 q 274 174 276 189 m 271 242 q 240 255 251 242 q 232 288 229 268 q 250 319 235 307 q 285 332 265 332 q 315 319 304 332 q 322 288 325 307 q 305 255 319 268 q 271 242 290 242 m 282 315 q 262 307 271 315 q 250 288 253 299 q 256 268 249 276 q 274 260 263 260 q 294 268 285 260 q 306 288 304 276 q 301 307 308 299 q 282 315 293 315 m 292 288 q 276 272 289 272 q 265 276 269 272 q 263 288 261 281 q 281 303 265 303 q 292 288 294 303 m 289 351 q 258 364 269 351 q 250 396 247 376 q 268 428 253 415 q 303 442 283 442 q 333 428 322 442 q 340 396 343 415 q 323 364 338 376 q 289 351 308 351 m 300 424 q 279 415 289 424 q 268 396 269 407 q 272 376 265 385 q 290 368 279 368 q 311 376 301 368 q 324 396 321 385 q 318 415 325 407 q 300 424 311 424 m 310 396 q 293 381 307 381 q 281 396 278 381 q 297 411 283 411 q 310 396 313 411 m 306 461 q 275 474 286 461 q 267 507 264 488 q 285 539 269 526 q 319 551 300 551 q 349 539 339 551 q 357 507 360 526 q 340 474 354 488 q 306 461 325 461 m 317 535 q 297 526 306 535 q 285 507 288 518 q 290 488 283 496 q 308 479 297 479 q 329 488 319 479 q 340 507 339 496 q 335 526 343 518 q 317 535 328 535 m 326 507 q 311 492 324 492 q 300 496 304 492 q 297 507 296 500 q 315 522 300 522 q 326 507 329 522 m 324 574 q 294 586 304 574 q 286 618 283 599 q 303 650 289 638 q 338 663 318 663 q 368 650 357 663 q 376 618 379 638 q 358 586 374 599 q 324 574 343 574 m 335 646 q 315 638 324 646 q 303 618 306 629 q 308 599 300 607 q 326 590 315 590 q 347 599 338 590 q 358 618 356 607 q 353 638 361 629 q 335 646 346 646 m 346 618 q 328 603 343 603 q 317 618 314 603 q 333 633 319 633 q 346 618 349 633 m 340 683 q 310 696 321 683 q 301 728 299 708 q 320 760 304 747 q 356 774 336 774 q 385 760 375 774 q 392 728 394 747 q 374 696 389 708 q 340 683 360 683 m 353 756 q 332 747 342 756 q 319 728 322 739 q 325 708 318 717 q 343 700 332 700 q 364 708 354 700 q 375 728 374 717 q 371 747 378 739 q 353 756 364 756 m 361 728 q 346 713 361 713 q 332 728 332 713 q 350 743 335 743 q 361 728 364 743 m 358 793 q 328 806 339 793 q 321 839 318 819 q 338 871 324 858 q 372 883 353 883 q 403 871 392 883 q 411 839 414 858 q 393 806 408 819 q 358 793 378 793 m 369 865 q 349 858 358 865 q 338 839 340 850 q 342 819 335 828 q 361 811 350 811 q 381 819 372 811 q 393 839 390 828 q 388 858 396 850 q 369 865 381 865 m 381 839 q 363 824 378 824 q 351 839 349 824 q 368 853 354 853 q 381 839 383 853 m 635 136 q 605 149 615 136 q 597 182 594 163 q 615 214 600 201 q 649 226 629 226 q 679 214 668 226 q 688 182 690 201 q 669 149 685 163 q 635 136 654 136 m 646 210 q 626 201 635 210 q 614 182 617 193 q 619 163 613 171 q 638 154 626 154 q 658 163 649 154 q 669 182 668 171 q 665 201 672 193 q 646 210 657 210 m 657 182 q 640 167 654 167 q 628 182 625 167 q 644 197 631 197 q 657 182 660 197 m 653 250 q 623 263 633 250 q 615 296 613 276 q 633 328 618 315 q 667 340 647 340 q 697 328 686 340 q 706 296 708 315 q 688 263 703 276 q 653 250 672 250 m 664 324 q 644 315 653 324 q 632 296 635 307 q 637 276 629 285 q 656 268 644 268 q 676 276 667 268 q 688 296 685 285 q 683 315 690 307 q 664 324 675 324 m 675 296 q 657 281 672 281 q 646 296 643 281 q 663 310 649 310 q 675 296 678 310 m 446 556 q 416 568 426 556 q 408 600 406 581 q 426 633 411 619 q 460 646 440 646 q 490 633 479 646 q 499 600 501 619 q 481 568 496 581 q 446 556 465 556 m 457 628 q 437 619 446 628 q 425 600 428 611 q 430 581 422 589 q 449 574 438 574 q 469 581 460 574 q 481 600 478 589 q 476 619 483 611 q 457 628 468 628 m 468 600 q 450 586 465 586 q 439 600 436 586 q 456 615 442 615 q 468 600 471 615 m 500 471 q 469 483 481 471 q 461 515 458 496 q 479 547 464 535 q 514 560 494 560 q 544 547 533 560 q 551 515 554 535 q 534 483 549 496 q 500 471 519 471 m 511 543 q 491 535 500 543 q 479 515 482 526 q 485 496 478 504 q 503 488 492 488 q 524 496 514 488 q 535 515 533 504 q 530 535 538 526 q 511 543 522 543 m 521 515 q 506 500 518 500 q 494 504 499 500 q 492 515 490 508 q 510 531 494 531 q 521 515 524 531 m 547 374 q 517 387 528 374 q 510 419 507 400 q 527 451 513 439 q 561 464 542 464 q 591 451 581 464 q 599 419 601 439 q 581 387 596 400 q 547 374 567 374 m 558 447 q 538 439 547 447 q 526 419 529 431 q 532 400 525 408 q 550 392 539 392 q 571 400 561 392 q 582 419 581 408 q 577 439 585 431 q 558 447 569 447 m 569 419 q 553 404 567 404 q 542 408 546 404 q 539 419 538 413 q 557 435 542 435 q 569 419 572 435 m 671 360 q 641 372 651 360 q 633 404 631 385 q 651 437 636 424 q 685 450 665 450 q 715 437 704 450 q 724 404 726 424 q 706 372 721 385 q 671 360 690 360 m 682 432 q 661 424 671 432 q 650 404 651 415 q 654 385 647 393 q 672 376 661 376 q 693 385 683 376 q 706 404 703 393 q 700 424 707 415 q 682 432 693 432 m 693 404 q 675 389 690 389 q 664 404 661 389 q 679 419 667 419 q 690 415 686 419 q 693 404 694 411 m 688 469 q 658 483 668 469 q 650 515 647 496 q 667 547 653 535 q 701 560 682 560 q 732 547 721 560 q 740 515 743 535 q 722 483 738 496 q 688 469 707 469 m 699 543 q 678 535 688 543 q 667 515 669 526 q 672 496 665 504 q 690 488 679 488 q 711 496 701 488 q 722 515 721 504 q 717 535 725 526 q 699 543 710 543 m 710 515 q 693 500 707 500 q 681 515 678 500 q 697 529 683 529 q 710 515 713 529 m 707 581 q 676 594 688 581 q 668 626 665 607 q 686 658 671 646 q 721 671 701 671 q 751 658 740 671 q 758 626 761 646 q 741 594 756 607 q 707 581 726 581 m 718 654 q 698 646 707 654 q 686 626 689 638 q 691 607 683 615 q 710 599 699 599 q 730 607 721 599 q 742 626 739 615 q 737 646 744 638 q 718 654 729 654 m 729 626 q 711 611 726 611 q 699 626 696 611 q 717 642 701 642 q 729 626 732 642 m 722 692 q 692 704 703 692 q 685 736 682 717 q 703 768 688 756 q 738 781 718 781 q 767 768 757 781 q 775 736 778 756 q 757 704 772 717 q 722 692 742 692 m 735 764 q 714 756 724 764 q 701 736 704 747 q 707 717 700 725 q 725 708 714 708 q 746 717 736 708 q 757 736 756 725 q 753 756 760 747 q 735 764 746 764 m 744 736 q 728 721 742 721 q 715 736 713 721 q 732 751 718 751 q 744 736 747 751 m 742 801 q 711 815 722 801 q 703 846 700 828 q 721 878 706 865 q 756 892 736 892 q 785 878 775 892 q 793 846 796 865 q 776 815 790 828 q 742 801 761 801 m 753 874 q 733 865 742 874 q 721 846 724 857 q 726 827 718 835 q 744 819 733 819 q 765 827 756 819 q 776 846 774 835 q 772 865 779 857 q 753 874 764 874 m 764 846 q 746 832 761 832 q 733 846 731 832 q 751 861 736 861 q 764 846 767 861 m 440 724 q 450 691 453 710 q 431 657 447 672 q 401 643 417 646 q 402 651 401 647 q 404 663 403 656 q 421 669 411 663 q 432 690 431 678 q 426 711 433 703 q 413 718 418 717 q 418 736 415 725 q 440 724 432 733 m 415 701 q 413 679 425 689 q 408 677 410 678 q 404 675 407 676 l 407 706 q 415 701 414 703 m 574 285 q 564 317 561 299 q 582 350 567 336 q 613 364 596 361 q 610 346 613 360 q 594 338 600 343 q 583 317 585 329 q 588 297 581 306 q 601 290 594 290 q 597 272 597 279 q 574 285 582 275 m 600 307 q 601 329 589 317 q 608 332 607 332 l 607 303 q 600 307 600 303 z "},"O":{"ha":785,"x_min":68,"x_max":871,"o":"m 440 260 q 401 268 419 260 q 371 291 383 276 q 353 325 358 306 q 350 368 347 344 l 368 476 l 376 531 l 393 638 q 409 679 397 660 q 438 713 421 699 q 476 737 456 728 q 518 746 497 746 l 572 746 q 644 714 619 746 q 663 638 669 682 l 646 531 l 638 476 l 619 368 q 577 291 613 322 q 494 260 542 260 l 440 260 m 386 368 q 400 317 382 338 q 446 296 418 296 l 500 296 l 511 296 l 554 567 q 540 624 560 599 q 483 649 519 649 l 431 649 l 429 638 l 386 368 m 329 0 q 217 23 268 0 q 133 85 167 46 q 83 179 99 125 q 78 296 68 233 l 121 567 q 163 681 131 626 q 242 775 194 735 l 258 790 q 385 901 307 857 q 549 944 463 944 l 603 944 q 719 920 667 944 q 806 854 771 896 q 856 757 842 813 q 861 638 871 701 l 818 368 q 751 208 804 278 q 622 101 697 139 l 604 86 q 501 23 557 46 q 382 0 444 0 l 329 0 m 188 368 q 192 262 179 311 q 237 176 206 213 q 314 118 268 139 q 415 97 360 97 l 469 97 q 578 118 525 97 q 673 176 631 139 q 744 262 715 213 q 782 368 774 311 l 825 638 q 820 742 833 693 q 776 828 807 792 q 699 887 744 865 q 597 908 653 908 l 543 908 q 435 887 488 908 q 340 828 383 865 q 268 742 297 792 q 231 638 239 693 l 188 368 m 607 779 q 578 792 588 779 q 571 825 568 806 q 588 857 574 844 q 622 869 603 869 q 653 857 642 869 q 661 825 664 844 q 642 792 658 806 q 607 779 626 779 m 619 853 q 599 844 608 853 q 588 825 589 836 q 592 806 585 814 q 610 797 599 797 q 631 806 621 797 q 643 825 640 814 q 638 844 644 836 q 619 853 631 853 m 631 825 q 613 810 628 810 q 601 825 599 810 q 617 840 604 840 q 628 836 624 840 q 631 825 632 832 m 489 788 q 458 800 469 788 q 450 832 447 813 q 468 864 453 851 q 503 876 483 876 q 532 864 521 876 q 540 832 543 851 q 522 800 538 813 q 489 788 507 788 m 501 860 q 481 851 490 860 q 468 832 471 843 q 474 813 467 821 q 492 804 481 804 q 512 813 503 804 q 522 832 521 821 q 519 851 525 843 q 501 860 513 860 m 510 832 q 494 817 507 817 q 483 821 488 817 q 481 832 479 825 q 499 846 483 846 q 510 832 513 846 m 388 739 q 357 751 368 739 q 349 783 346 764 q 367 815 351 803 q 401 828 382 828 q 431 815 419 828 q 439 783 442 803 q 421 751 436 764 q 388 739 406 739 m 399 811 q 378 803 388 811 q 367 783 369 794 q 372 764 364 772 q 390 756 379 756 q 410 764 401 756 q 421 783 418 772 q 417 803 424 794 q 399 811 410 811 m 408 783 q 392 769 406 769 q 379 783 376 769 q 397 799 382 799 q 408 783 411 799 m 699 743 q 669 756 679 743 q 661 789 658 769 q 679 820 664 807 q 714 833 694 833 q 744 820 733 833 q 751 789 754 807 q 733 756 749 769 q 699 743 718 743 m 711 817 q 690 808 700 817 q 678 789 681 800 q 683 769 676 778 q 701 761 690 761 q 722 769 713 761 q 733 789 732 778 q 729 808 736 800 q 711 817 722 817 m 721 789 q 716 778 721 782 q 704 774 711 774 q 690 789 690 774 q 708 803 693 803 q 721 789 724 803 m 731 651 q 700 664 711 651 q 692 696 689 676 q 710 728 694 715 q 744 740 725 740 q 774 728 764 740 q 782 696 785 715 q 765 664 779 676 q 731 651 750 651 m 742 724 q 722 715 731 724 q 710 696 713 707 q 715 676 707 685 q 733 668 722 668 q 753 676 744 668 q 765 696 763 685 q 760 715 768 707 q 742 724 753 724 m 751 696 q 735 682 749 682 q 722 696 719 682 q 740 711 725 711 q 751 696 754 711 m 726 542 q 697 554 707 542 q 689 586 686 567 q 707 619 692 606 q 742 632 722 632 q 772 619 761 632 q 779 586 782 606 q 761 554 776 567 q 726 542 746 542 m 739 614 q 718 606 728 614 q 706 586 708 597 q 711 567 704 575 q 729 558 718 558 q 750 567 740 558 q 761 586 760 575 q 757 606 764 597 q 739 614 750 614 m 749 586 q 744 576 749 581 q 732 572 739 572 q 719 586 719 572 q 736 601 722 601 q 749 586 751 601 m 711 442 q 681 455 692 442 q 674 486 671 468 q 691 519 676 506 q 725 532 706 532 q 755 519 744 532 q 763 486 765 506 q 745 455 760 468 q 711 442 731 442 m 722 514 q 702 506 711 514 q 690 486 693 497 q 695 467 688 475 q 714 460 703 460 q 734 467 725 460 q 746 486 743 475 q 741 506 749 497 q 722 514 733 514 m 733 486 q 715 472 731 472 q 703 486 700 472 q 721 501 706 501 q 733 486 736 501 m 700 343 q 669 356 681 343 q 661 388 658 368 q 679 419 664 407 q 714 432 694 432 q 743 419 732 432 q 751 388 754 407 q 733 356 749 368 q 700 343 718 343 m 711 415 q 690 407 700 415 q 679 388 681 399 q 684 368 676 376 q 703 360 692 360 q 722 368 714 360 q 733 388 731 376 q 728 407 735 399 q 711 415 722 415 m 721 388 q 704 372 718 372 q 692 388 689 372 q 708 403 694 403 q 718 399 714 403 q 721 388 722 394 m 657 250 q 628 263 639 250 q 619 294 617 275 q 638 326 622 314 q 671 339 653 339 q 701 326 690 339 q 710 294 713 314 q 692 263 707 275 q 657 250 676 250 m 668 322 q 649 314 657 322 q 638 294 640 306 q 642 275 635 283 q 660 267 649 267 q 680 275 671 267 q 692 294 689 283 q 687 314 694 306 q 668 322 679 322 m 679 294 q 661 279 676 279 q 650 294 647 279 q 667 310 653 310 q 679 294 682 310 m 576 161 q 547 174 557 161 q 539 207 536 188 q 556 238 542 225 q 590 251 571 251 q 621 238 610 251 q 629 207 632 225 q 611 174 626 188 q 576 161 596 161 m 588 235 q 567 226 576 235 q 556 207 558 218 q 560 188 553 196 q 579 179 568 179 q 599 188 590 179 q 611 207 608 196 q 606 226 614 218 q 588 235 599 235 m 599 207 q 581 192 596 192 q 569 207 567 192 q 586 221 572 221 q 599 207 601 221 m 475 136 q 446 149 457 136 q 438 181 435 161 q 456 213 440 200 q 489 226 471 226 q 519 213 508 226 q 528 181 531 200 q 510 149 525 161 q 475 136 494 136 m 486 208 q 467 200 475 208 q 456 181 458 192 q 460 161 453 169 q 478 153 467 153 q 498 161 489 153 q 510 181 507 169 q 505 200 513 192 q 486 208 497 208 m 497 181 q 479 165 494 165 q 468 181 465 165 q 485 196 471 196 q 497 181 500 196 m 372 147 q 342 160 353 147 q 335 192 332 172 q 352 224 338 211 q 386 236 367 236 q 416 224 406 236 q 424 192 426 211 q 406 160 421 172 q 372 147 392 147 m 385 219 q 364 211 374 219 q 351 192 354 203 q 357 172 350 181 q 375 164 364 164 q 396 172 386 164 q 407 192 406 181 q 403 211 410 203 q 385 219 396 219 m 394 192 q 378 176 392 176 q 367 181 371 176 q 364 192 363 185 q 382 207 367 207 q 394 192 397 207 m 288 207 q 258 219 268 207 q 250 251 247 232 q 267 283 253 271 q 301 296 282 296 q 331 283 321 296 q 339 251 342 271 q 322 219 336 232 q 288 207 307 207 m 299 279 q 278 271 288 279 q 267 251 269 263 q 272 232 264 240 q 290 224 279 224 q 310 232 301 224 q 322 251 319 240 q 317 271 325 263 q 299 279 310 279 m 310 251 q 292 236 307 236 q 279 251 276 236 q 297 267 282 267 q 310 251 313 267 m 265 304 q 235 317 246 304 q 226 350 224 331 q 244 382 229 369 q 279 394 260 394 q 309 382 299 394 q 317 350 319 369 q 299 317 314 331 q 265 304 285 304 m 278 378 q 257 369 267 378 q 244 350 247 361 q 250 331 243 339 q 268 322 257 322 q 289 331 279 322 q 300 350 299 339 q 296 369 303 361 q 278 378 289 378 m 286 350 q 271 335 283 335 q 260 339 264 335 q 257 350 256 343 q 275 364 260 364 q 286 350 289 364 m 279 417 q 249 429 260 417 q 242 461 239 442 q 259 493 244 481 q 293 506 274 506 q 323 493 313 506 q 331 461 333 481 q 313 429 328 442 q 279 417 299 417 m 290 489 q 270 481 279 489 q 258 461 261 472 q 263 442 256 450 q 282 433 271 433 q 302 442 293 433 q 314 461 311 450 q 309 481 317 472 q 290 489 301 489 m 301 461 q 283 446 299 446 q 271 461 268 446 q 289 476 274 476 q 301 461 304 476 m 300 519 q 269 532 281 519 q 261 564 258 544 q 279 596 264 583 q 314 608 294 608 q 344 596 333 608 q 351 564 354 583 q 334 532 349 544 q 300 519 319 519 m 311 592 q 291 583 300 592 q 279 564 282 575 q 284 544 276 553 q 303 536 292 536 q 323 544 314 536 q 335 564 332 553 q 330 583 338 575 q 311 592 322 592 m 321 564 q 304 549 318 549 q 292 564 289 549 q 310 579 294 579 q 321 564 324 579 m 325 635 q 295 647 306 635 q 288 679 285 660 q 305 711 290 699 q 339 724 319 724 q 369 711 358 724 q 378 679 381 699 q 360 647 375 660 q 325 635 344 635 m 336 707 q 316 699 325 707 q 304 679 307 690 q 309 660 301 668 q 328 651 317 651 q 348 660 339 651 q 360 679 357 668 q 355 699 363 690 q 336 707 347 707 m 347 679 q 329 664 344 664 q 318 679 315 664 q 335 694 321 694 q 347 679 350 694 z "}}}
